<?xml version="1.0" encoding="utf-8"?>
<!-- Generator: Adobe Illustrator 18.0.0, SVG Export Plug-In . SVG Version: 6.00 Build 0)  -->
<!DOCTYPE svg PUBLIC "-//W3C//DTD SVG 1.1//EN" "http://www.w3.org/Graphics/SVG/1.1/DTD/svg11.dtd">
<svg version="1.1" id="Layer_1" xmlns="http://www.w3.org/2000/svg" xmlns:xlink="http://www.w3.org/1999/xlink" x="0px" y="0px"
	 viewBox="0 0 16 16" enable-background="new 0 0 16 16" xml:space="preserve">
<path d="M14.3,0.2h-0.8h-0.8H4.3C3.6,0.2,3,0.8,3,1.6v1.5H1.7c-0.8,0-1.4,0.6-1.4,1.4v10c0,0.8,0.6,1.4,1.4,1.4h10
	c0.8,0,1.4-0.6,1.4-1.4v-1.5h1.3c0.8,0,1.4-0.6,1.4-1.4v-10C15.7,0.9,15,0.2,14.3,0.2z M12.5,14.4c0,0.5-0.4,0.8-0.8,0.8h-10
	c-0.5,0-0.8-0.4-0.8-0.8v-10c0-0.5,0.4-0.8,0.8-0.8H3v8c0,0.8,0.6,1.4,1.4,1.4h8.2V14.4z M15.2,11.6c0,0.5-0.4,0.8-0.8,0.8h-10
	c-0.5,0-0.8-0.4-0.8-0.8v-10c0-0.4,0.4-0.8,0.8-0.8h8.3h0.8h0.8c0.4,0,0.8,0.4,0.8,0.8V11.6z"/>
<path opacity="0.8" fill="#FFFFFF" d="M14.2,12.4H4.4c-0.5,0-0.9-0.4-0.9-0.9V1.7c0-0.5,0.4-0.9,0.9-0.9h9.8c0.5,0,0.9,0.4,0.9,0.9
	v9.8C15.2,12,14.7,12.4,14.2,12.4z"/>
<path opacity="0.8" d="M12.2,8.9c0.3-0.3,0.3-0.6,0-0.8c-0.3-0.2-0.5-0.3-0.8,0l-1.3,1.3V2.7c0-0.3-0.3-0.6-0.6-0.6
	c-0.3,0-0.6,0.3-0.6,0.6v6.7L7.4,7.9c-0.3-0.3-0.6-0.2-0.8,0c-0.2,0.2-0.3,0.6,0,0.8l2.8,2.8l0,0l0,0L12.2,8.9z"/>
<path opacity="0.8" fill="#FFFFFF" d="M3.9,12.9C3.4,12.9,3,12.5,3,12V3.6H1.8C1.3,3.6,0.8,4,0.8,4.5v9.8c0,0.5,0.4,0.9,0.9,0.9h9.8
	c0.5,0,0.9-0.4,0.9-0.9v-1.4H3.9z"/>
</svg>
