<?xml version="1.0" encoding="utf-8"?>
<!-- Generator: Adobe Illustrator 18.0.0, SVG Export Plug-In . SVG Version: 6.00 Build 0)  -->
<!DOCTYPE svg PUBLIC "-//W3C//DTD SVG 1.1//EN" "http://www.w3.org/Graphics/SVG/1.1/DTD/svg11.dtd">
<svg version="1.1" id="Layer_1" xmlns="http://www.w3.org/2000/svg" xmlns:xlink="http://www.w3.org/1999/xlink" x="0px" y="0px"
	 viewBox="0 0 24 24" enable-background="new 0 0 24 24" xml:space="preserve">
<g>
	<path fill="#FFFFFF" d="M21.8,23.6H2.4c-1.1,0-2-0.9-2-2V2.2c0-1.1,0.9-2,2-2h19.3c1.1,0,2,0.9,2,2v19.3
		C23.8,22.7,22.9,23.6,21.8,23.6z"/>
	<path d="M21.8,23.9H2.4c-1.3,0-2.3-1-2.3-2.3V2.2c0-1.3,1-2.3,2.3-2.3h19.3c1.4,0,2.4,1,2.4,2.3v19.3
		C24.1,22.9,23.1,23.9,21.8,23.9z M2.4,0.6c-0.9,0-1.6,0.7-1.6,1.6v19.3c0,0.9,0.7,1.6,1.6,1.6h19.3c0.9,0,1.6-0.7,1.6-1.6V2.2
		c0-0.9-0.7-1.6-1.6-1.6C21.7,0.6,2.4,0.6,2.4,0.6z"/>
</g>
<g>
	<path d="M4.1,8.7c0.4-0.1,1-0.1,1.7-0.1c0.9,0,1.5,0.2,1.9,0.6C8,9.4,8.3,9.9,8.3,10.5c0,0.6-0.2,1.1-0.5,1.4
		c-0.5,0.5-1.2,0.7-2.1,0.7c-0.3,0-0.5,0-0.7-0.1v2.7H4.1V8.7z M5,11.9C5.2,12,5.4,12,5.7,12c1,0,1.7-0.5,1.7-1.4
		c0-0.9-0.6-1.3-1.6-1.3c-0.4,0-0.7,0-0.8,0.1V11.9z"/>
	<path d="M10.3,8.6v2.8h3.3V8.6h0.9v6.7h-0.9v-3.2h-3.3v3.2H9.4V8.6H10.3z"/>
	<path d="M15.9,8.7c0.4-0.1,1-0.1,1.7-0.1c0.9,0,1.5,0.2,1.9,0.6c0.4,0.3,0.6,0.8,0.6,1.4c0,0.6-0.2,1.1-0.5,1.4
		c-0.5,0.5-1.2,0.7-2.1,0.7c-0.3,0-0.5,0-0.7-0.1v2.7h-0.9V8.7z M16.8,11.9C17,12,17.2,12,17.5,12c1,0,1.7-0.5,1.7-1.4
		c0-0.9-0.6-1.3-1.6-1.3c-0.4,0-0.7,0-0.8,0.1V11.9z"/>
</g>
</svg>
