<?xml version="1.0" encoding="utf-8"?>
<!-- Generator: Adobe Illustrator 18.0.0, SVG Export Plug-In . SVG Version: 6.00 Build 0)  -->
<!DOCTYPE svg PUBLIC "-//W3C//DTD SVG 1.1//EN" "http://www.w3.org/Graphics/SVG/1.1/DTD/svg11.dtd">
<svg version="1.1" id="Layer_1" xmlns="http://www.w3.org/2000/svg" xmlns:xlink="http://www.w3.org/1999/xlink" x="0px" y="0px"
	 viewBox="0 0 24 24" enable-background="new 0 0 24 24" xml:space="preserve">
<g>
	<path fill="#FFFFFF" d="M21.9,23.7H2.6c-1.1,0-2-0.9-2-2V2.3c0-1.1,0.9-2,2-2h19.3c1.1,0,2,0.9,2,2v19.3
		C23.9,22.8,23,23.7,21.9,23.7z"/>
	<path d="M21.9,24H2.6c-1.3,0-2.4-1.1-2.4-2.4V2.3C0.2,1,1.3,0,2.6,0h19.3c1.3,0,2.4,1.1,2.4,2.4v19.3C24.3,23,23.2,24,21.9,24z
		 M2.6,0.7C1.7,0.7,1,1.4,1,2.3v19.3c0,0.9,0.7,1.6,1.6,1.6h19.3c0.9,0,1.6-0.7,1.6-1.6V2.3c0-0.9-0.7-1.6-1.6-1.6H2.6z"/>
</g>
<polygon points="22.7,10.2 16.4,6.4 10,2.6 10,10.2 10,17.9 16.4,14.1 "/>
<g>
	<path d="M13.5,22.3H4.6c-1.4,0-2.5-1.1-2.5-2.5v-8.9c0-1.4,1.1-2.5,2.5-2.5h8.9c1.4,0,2.5,1.1,2.5,2.5v8.9
		C16,21.2,14.9,22.3,13.5,22.3z M4.6,9.4c-0.8,0-1.5,0.7-1.5,1.5v8.9c0,0.8,0.7,1.5,1.5,1.5h8.9c0.8,0,1.5-0.7,1.5-1.5v-8.9
		c0-0.8-0.7-1.5-1.5-1.5H4.6z"/>
</g>
</svg>
