<?xml version="1.0" encoding="utf-8"?>
<!-- Generator: Adobe Illustrator 18.0.0, SVG Export Plug-In . SVG Version: 6.00 Build 0)  -->
<!DOCTYPE svg PUBLIC "-//W3C//DTD SVG 1.1//EN" "http://www.w3.org/Graphics/SVG/1.1/DTD/svg11.dtd">
<svg version="1.1" id="Layer_1" xmlns="http://www.w3.org/2000/svg" xmlns:xlink="http://www.w3.org/1999/xlink" x="0px" y="0px"
	 viewBox="0 0 24 24" enable-background="new 0 0 24 24" xml:space="preserve">
<g>
	<path d="M24.1,4.1v17.4c0,1.4-1.1,2.5-2.5,2.5H3.1c-1.4,0-2.5-1.1-2.5-2.5V4.1c0-1.4,1.1-2.5,2.5-2.5h4.4v1H3.1
		c-0.8,0-1.5,0.7-1.5,1.5v17.4c0,0.8,0.7,1.5,1.5,1.5h18.4c0.8,0,1.5-0.7,1.5-1.5V4.1c0-0.8-0.7-1.5-1.5-1.5h-3.1v-1h3.1
		C22.9,1.6,24.1,2.8,24.1,4.1z"/>
</g>
<path d="M12.7,9.1l3.3-3c0.3-0.3,0.3-0.8,0-1.1c-0.3-0.3-0.8-0.3-1.1,0l-1.7,1.7V0.8c0-0.4-0.4-0.8-0.8-0.8s-0.8,0.4-0.8,0.8v5.9
	L9.8,4.8C9.5,4.5,9,4.5,8.6,4.8c-0.4,0.3-0.3,0.8,0,1.1l3.2,3.2c0.1,0.1,0.1,0.1,0.1,0.1L12,9.3L12,9.3l0.1,0.1l0.1,0.1h0.1l0,0l0,0
	h0.1l0.1-0.1l0.1-0.1l0.1-0.1L12.7,9.1C12.6,9.1,12.6,9.1,12.7,9.1L12.7,9.1z"/>
<g>
	<path d="M4,12.5c0.5-0.1,1.2-0.2,2-0.2c1,0,1.8,0.2,2.3,0.7C8.7,13.4,9,14,9,14.7c0,0.7-0.2,1.3-0.6,1.7c-0.6,0.6-1.5,0.9-2.5,0.9
		c-0.3,0-0.6,0-0.8-0.1v3.2H4V12.5z M5,16.4c0.2,0.1,0.5,0.1,0.9,0.1c1.3,0,2-0.6,2-1.7c0-1.1-0.8-1.6-1.9-1.6c-0.5,0-0.8,0-1,0.1
		V16.4z"/>
	<path d="M9.4,12.5c0.6-0.1,1.4-0.2,2.2-0.2c1.5,0,2.6,0.3,3.3,1c0.7,0.7,1.1,1.6,1.1,2.9c0,1.3-0.4,2.4-1.2,3.1
		c-0.8,0.8-2,1.2-3.6,1.2c-0.7,0-1.4,0-1.9-0.1V12.5z M10.5,19.7c0.3,0,0.6,0.1,1.1,0.1c2.2,0,3.4-1.2,3.4-3.4
		c0-1.9-1.1-3.1-3.3-3.1c-0.5,0-0.9,0-1.2,0.1V19.7z"/>
	<path d="M16.7,12.4H21v0.9h-3.3V16h3.1v0.9h-3.1v3.7h-1V12.4z"/>
</g>
</svg>
