<?xml version="1.0" encoding="utf-8"?>
<!-- Generator: Adobe Illustrator 18.0.0, SVG Export Plug-In . SVG Version: 6.00 Build 0)  -->
<!DOCTYPE svg PUBLIC "-//W3C//DTD SVG 1.1//EN" "http://www.w3.org/Graphics/SVG/1.1/DTD/svg11.dtd">
<svg version="1.1" id="Layer_1" xmlns="http://www.w3.org/2000/svg" xmlns:xlink="http://www.w3.org/1999/xlink" x="0px" y="0px"
	 viewBox="0 0 24 24" enable-background="new 0 0 24 24" xml:space="preserve">
<g>
	<path d="M23.9,2.2v15.5c0,1.2-0.9,2.1-2.1,2.1H6.3c-1.2,0-2.1-0.9-2.1-2.1V2.2c0-1.2,0.9-2.1,2.1-2.1H10V1H6.3C5.6,1,5,1.6,5,2.2
		v15.5C5,18.4,5.6,19,6.3,19h15.5c0.7,0,1.3-0.6,1.3-1.3V2.2C23,1.6,22.4,1,21.8,1h-2.6V0.1h2.6C22.9,0.1,23.9,1.1,23.9,2.2z"/>
</g>
<g>
	<path d="M19.8,19.6v2.5c0,1.2-0.9,2.1-2.1,2.1H2.2c-1.2,0-2.1-0.9-2.1-2.1V6.6c0-1.2,0.9-2.1,2.1-2.1h2.6v0.8H2.2
		c-0.7,0-1.3,0.6-1.3,1.3v15.5c0,0.7,0.6,1.3,1.3,1.3h15.5c0.7,0,1.3-0.6,1.3-1.3v-2.5"/>
</g>
<path d="M15,14.4l3.9-3.6c0.4-0.4,0.4-1,0-1.3s-1-0.4-1.3,0l-2,2V1.2c0-0.5-0.4-0.9-0.9-0.9s-0.9,0.4-0.9,0.9l0,10.4l-2.3-2.3
	c-0.4-0.4-1-0.4-1.3,0s-0.4,1,0,1.3l3.8,3.8c0.1,0.1,0.1,0.1,0.1,0.1l0.1,0.1l0.1,0.1l0.1,0.1l0.1,0.1l0.1,0l0,0l0,0l0.1,0l0.1-0.1
	l0.1-0.1l0.1-0.1l0.1-0.1C14.9,14.4,14.9,14.4,15,14.4L15,14.4z"/>
</svg>
