<?xml version="1.0" encoding="utf-8"?>
<!-- Generator: Adobe Illustrator 18.0.0, SVG Export Plug-In . SVG Version: 6.00 Build 0)  -->
<!DOCTYPE svg PUBLIC "-//W3C//DTD SVG 1.1//EN" "http://www.w3.org/Graphics/SVG/1.1/DTD/svg11.dtd">
<svg version="1.1" id="Layer_1" xmlns="http://www.w3.org/2000/svg" xmlns:xlink="http://www.w3.org/1999/xlink" x="0px" y="0px"
	 viewBox="0 0 16 16" enable-background="new 0 0 16 16" xml:space="preserve">
<path opacity="0.8" fill="#FFFFFF" enable-background="new    " d="M13.4,16H2.7c-1.1,0-1.8-0.8-1.8-1.9V3.4c0-1.1,0.7-1.8,1.8-1.8
	h10.8c1.1,0,1.7,0.7,1.7,1.8L15.3,14C15.3,15.3,14.6,16,13.4,16z"/>
<g opacity="0.5" enable-background="new    ">
	<path d="M13.4,16.6h-11c-1.3,0-2.3-1-2.3-2.3v-11C0.1,2,1.1,1,2.4,1h11.1c1.3,0,2.3,1,2.3,2.3v11.1C15.8,15.6,14.8,16.6,13.4,16.6z
		 M2.5,1.7c-0.9,0-1.6,0.7-1.6,1.6v11.1c0,0.9,0.7,1.6,1.6,1.6h11.1c0.9,0,1.6-0.7,1.6-1.6V3.3c0-0.9-0.7-1.6-1.6-1.6H2.5z"/>
</g>
<path opacity="0.8" d="M7.2,11.6c0.2-0.2,0.2-0.5,0-0.6c-0.2-0.1-0.4-0.2-0.6,0l-1,1V4.9c0-0.2-0.2-0.4-0.4-0.4
	c-0.2,0-0.4,0.2-0.4,0.4V12l-1.1-1.1c-0.2-0.2-0.4-0.2-0.6,0c-0.2,0.2-0.2,0.5,0,0.6L5,13.6l0,0l0,0L7.2,11.6z"/>
<g opacity="0.8">
	<polygon points="11.5,9.5 11.5,4.8 10.1,4.8 10,9.5 	"/>
	<polygon points="9.4,9.5 9.7,9.5 9.7,4.8 9.4,4.8 	"/>
	<path d="M11.4,4.5l-1.8,0c-0.1,0-0.1,0-0.1,0.1v0.9L11.5,6l0-1.4C11.6,4.5,11.5,4.5,11.4,4.5z"/>
	<path d="M9.4,9.9l0,0.2c0,0.1,0.1,0.1,0.1,0.1l1.8,0c0.1,0,0.1,0,0.1-0.1l0-0.2L9.4,9.9z"/>
	<g>
		<path d="M11.1,10.4c0.3,0,0.4,0.2,0.2,0.5l-0.7,1c-0.2,0.2-0.4,0.2-0.6,0l-0.7-1.1c-0.2-0.2,0-0.5,0.2-0.5L11.1,10.4z"/>
	</g>
</g>
<rect x="8.3" y="12.5" opacity="0.8" width="4.3" height="0.9"/>
</svg>
