<?xml version="1.0" encoding="utf-8"?>
<!-- Generator: Adobe Illustrator 18.0.0, SVG Export Plug-In . SVG Version: 6.00 Build 0)  -->
<!DOCTYPE svg PUBLIC "-//W3C//DTD SVG 1.1//EN" "http://www.w3.org/Graphics/SVG/1.1/DTD/svg11.dtd">
<svg version="1.1" id="Layer_1" xmlns="http://www.w3.org/2000/svg" xmlns:xlink="http://www.w3.org/1999/xlink" x="0px" y="0px"
	 viewBox="0 0 24 24" enable-background="new 0 0 24 24" xml:space="preserve">
<g id="Page-1">
	<g id="Core" transform="translate(-127.000000, -128.000000)">
		<g id="content-cut" transform="translate(127.500000, 128.000000)">
			<path id="Shape" d="M19.4,9.2c1,0.8,2.5,0.7,3.4-0.3c0.8-1,0.7-2.5-0.3-3.4c-1-0.9-2.5-0.7-3.4,0.3c-0.3,0.3-0.4,0.6-0.5,0.9
				l-2.1,0.1l-0.1-2.1c0.4-0.1,0.6-0.3,0.7-0.6c0.8-1,0.7-2.5-0.3-3.4c-1-0.8-2.5-0.7-3.4,0.3c-0.8,1-0.7,2.5,0.3,3.4
				C14,4.7,14.3,4.9,14.6,5l0.1,2.1L9,7.5L7.5,9.4l11.3-0.9C18.8,8.9,19,9,19.4,9.2L19.4,9.2z M20,6.7c0.4-0.6,1.1-0.6,1.7-0.1
				c0.6,0.4,0.6,1.1,0.1,1.7c-0.4,0.6-1.1,0.6-1.7,0.1C19.6,7.9,19.6,7.2,20,6.7L20,6.7z M14.5,2.1C15,1.5,15.7,1.4,16.2,2
				c0.6,0.4,0.6,1.1,0.2,1.7c-0.5,0.5-1.2,0.5-1.7,0.1C14.2,3.3,14.1,2.6,14.5,2.1L14.5,2.1z M16,8c-0.1,0.1-0.3,0.1-0.5,0.1
				c-0.1-0.1-0.1-0.3-0.1-0.5c0.1-0.1,0.3-0.1,0.5-0.1C16.2,7.8,16.2,7.9,16,8L16,8z M15.7,16.3l1.6-1.8l-0.4-5l-1.7,0.1L15.7,16.3
				L15.7,16.3z"/>
		</g>
	</g>
</g>
<path d="M19.8,12.5v9.2c0,0.6-0.5,1.1-1.1,1.1H2.4c-0.6,0-1.1-0.5-1.1-1.1V2.4c0-0.6,0.5-1.1,1.1-1.1h2.7h4.2V6h1V5l0,0V0.3H9.4H5.1
	H2.4c-1.2,0-2.1,0.9-2.1,2.1v19.3c0,1.2,0.9,2.1,2.1,2.1h16.3c1.2,0,2.1-0.9,2.1-2.1v-9.2H19.8z"/>
</svg>
