<?xml version="1.0" encoding="utf-8"?>
<!-- Generator: Adobe Illustrator 18.0.0, SVG Export Plug-In . SVG Version: 6.00 Build 0)  -->
<!DOCTYPE svg PUBLIC "-//W3C//DTD SVG 1.1//EN" "http://www.w3.org/Graphics/SVG/1.1/DTD/svg11.dtd">
<svg version="1.1" id="Layer_1" xmlns="http://www.w3.org/2000/svg" xmlns:xlink="http://www.w3.org/1999/xlink" x="0px" y="0px"
	 viewBox="0 0 24 24" enable-background="new 0 0 24 24" xml:space="preserve">
<g>
	<path d="M24,12.8v8.5c0,1.2-0.9,2.1-2.1,2.1H2.4c-1.2,0-2.1-0.9-2.1-2.1v-19c0-1.2,0.9-2.1,2.1-2.1l4.6,0v0.8l-4.6,0
		c-0.7,0-1.3,0.6-1.3,1.3v19c0,0.7,0.6,1.3,1.3,1.3h19.5c0.7,0,1.3-0.6,1.3-1.3v-8.5"/>
</g>
<path d="M9.8,14.1l3.9-3.6c0.4-0.4,0.4-1,0-1.3c-0.4-0.4-1-0.4-1.3,0l-2,2V0.9C10.4,0.4,10,0,9.5,0C9.1,0,8.6,0.4,8.6,0.9v10.4
	L6.4,9C6,8.6,5.4,8.6,5.1,9s-0.4,1,0,1.3l3.8,3.8c0.1,0.1,0.1,0.1,0.1,0.1l0.1,0.1l0.1,0.1l0.1,0.1l0.1,0.1l0.1,0l0,0l0,0l0.1,0
	l0.1-0.1l0.1-0.1l0.1-0.1l0.1-0.1C9.8,14.2,9.8,14.2,9.8,14.1L9.8,14.1z"/>
<g>
	<g>
		<polygon points="15,18.9 21.8,12.2 19.7,10.1 12.9,16.8 		"/>
		<polygon points="12,15.9 12.4,16.3 19.2,9.6 18.8,9.2 		"/>
		<path d="M22.7,10.9l-2.6-2.6c-0.1-0.1-0.2-0.1-0.3-0.1l-0.4,0.4l2.9,3l0.4-0.4C22.8,11.2,22.8,11,22.7,10.9z"/>
		<path d="M11.5,16.4l-0.3,0.3c-0.1,0.1,0,0.2,0.1,0.3l2.6,2.6c0.1,0.1,0.2,0.1,0.3,0.1l0.3-0.3L11.5,16.4z"/>
	</g>
	<g>
		<path d="M13.3,19.6c0.4,0.4,0.3,0.9-0.3,1l-2.5,0.5c-0.6,0.1-0.9-0.2-0.8-0.8l0.6-2.5c0.1-0.6,0.6-0.7,1-0.3L13.3,19.6z"/>
	</g>
</g>
</svg>
