<?xml version="1.0" encoding="utf-8"?>
<!-- Generator: Adobe Illustrator 18.0.0, SVG Export Plug-In . SVG Version: 6.00 Build 0)  -->
<!DOCTYPE svg PUBLIC "-//W3C//DTD SVG 1.1//EN" "http://www.w3.org/Graphics/SVG/1.1/DTD/svg11.dtd">
<svg version="1.1" id="Layer_1" xmlns="http://www.w3.org/2000/svg" xmlns:xlink="http://www.w3.org/1999/xlink" x="0px" y="0px"
	 viewBox="0 0 24 24" enable-background="new 0 0 24 24" xml:space="preserve">
<polygon points="16.1,2.1 18.4,6.8 23.6,7.6 19.9,11.3 20.7,16.5 16.1,14.1 11.4,16.5 12.3,11.3 8.5,7.6 13.7,6.8 "/>
<path d="M19.5,18v3.4c0,0.6-0.5,1.1-1.1,1.1H2.1C1.5,22.5,1,22,1,21.4V2.1C1,1.5,1.5,1,2.1,1h2.7H9v4.7h3v-1h-2V0H9.1H4.8H2.1
	C0.9,0,0,0.9,0,2.1v19.3c0,1.2,0.9,2.1,2.1,2.1h16.3c1.2,0,2.1-0.9,2.1-2.1V18H19.5z"/>
</svg>
