<?xml version="1.0" encoding="utf-8"?>
<!-- Generator: Adobe Illustrator 18.0.0, SVG Export Plug-In . SVG Version: 6.00 Build 0)  -->
<!DOCTYPE svg PUBLIC "-//W3C//DTD SVG 1.1//EN" "http://www.w3.org/Graphics/SVG/1.1/DTD/svg11.dtd">
<svg version="1.1" id="Layer_1" xmlns="http://www.w3.org/2000/svg" xmlns:xlink="http://www.w3.org/1999/xlink" x="0px" y="0px"
	 viewBox="0 0 24 24" enable-background="new 0 0 24 24" xml:space="preserve">
<g>
	<path d="M23.9,2.6v18.4c0,1.4-1.1,2.5-2.5,2.5H2.9c-1.4,0-2.5-1.1-2.5-2.5V2.6c0-1.4,1.1-2.5,2.5-2.5h4.4v1H2.9
		c-0.8,0-1.5,0.7-1.5,1.5v18.4c0,0.8,0.7,1.5,1.5,1.5h18.4c0.8,0,1.5-0.7,1.5-1.5V2.6c0-0.8-0.7-1.5-1.5-1.5h-3.1v-1h3.1
		C22.7,0.1,23.9,1.3,23.9,2.6z"/>
</g>
<path d="M13.3,17.1l4.7-4.2c0.4-0.4,0.4-1.1,0-1.6c-0.4-0.4-1.1-0.4-1.6,0L14,13.7V1.4c0-0.6-0.5-1.1-1.1-1.1
	c-0.6,0-1.1,0.5-1.1,1.1l0,12.3L9.2,11c-0.4-0.4-1.1-0.4-1.6,0s-0.4,1.1,0,1.6l4.5,4.5c0.1,0.1,0.1,0.1,0.1,0.1l0.1,0.1l0.1,0.1
	l0.1,0.1l0.1,0.1l0.1,0l0,0l0,0l0.1,0l0.1-0.1l0.1-0.1l0.1-0.1l0.1-0.1C13.2,17.1,13.2,17.1,13.3,17.1L13.3,17.1z"/>
</svg>
