<?xml version="1.0" encoding="utf-8"?>
<!-- Generator: Adobe Illustrator 18.0.0, SVG Export Plug-In . SVG Version: 6.00 Build 0)  -->
<!DOCTYPE svg PUBLIC "-//W3C//DTD SVG 1.1//EN" "http://www.w3.org/Graphics/SVG/1.1/DTD/svg11.dtd">
<svg version="1.1" id="Layer_1" xmlns="http://www.w3.org/2000/svg" xmlns:xlink="http://www.w3.org/1999/xlink" x="0px" y="0px"
	 viewBox="0 0 24 24" enable-background="new 0 0 24 24" xml:space="preserve">
<g>
	<polyline fill="#FFFFFF" points="5.1,0.6 9.8,0.6 9.8,5.3 12.3,5.3 	"/>
	<path d="M19.8,10.3v11.2c0,0.6-0.5,1.1-1.1,1.1H2.4c-0.6,0-1.1-0.5-1.1-1.1V2.2c0-0.6,0.5-1.1,1.1-1.1h2.7h4.2v4.7h3v-1h-2V0.1H9.4
		H5.1H2.4C1.2,0.1,0.3,1,0.3,2.2v19.3c0,1.2,0.9,2.1,2.1,2.1h16.3c1.2,0,2.1-0.9,2.1-2.1V10.3H19.8z"/>
</g>
<g>
	<g>
		<polygon points="15.1,12.3 22.9,4.6 20.6,2.3 12.7,9.9 		"/>
		<polygon points="11.8,8.9 12.2,9.4 19.9,1.7 19.5,1.3 		"/>
		<path d="M23.9,3.2l-3-3c-0.1-0.1-0.3-0.2-0.4-0.1l-0.5,0.5l3.4,3.4l0.5-0.5C24,3.5,24,3.3,23.9,3.2z"/>
		<path d="M11.1,9.5l-0.4,0.4c-0.1,0.1-0.1,0.3,0.1,0.4l3,3c0.1,0.1,0.3,0.2,0.4,0.1l0.4-0.4L11.1,9.5z"/>
	</g>
	<g>
		<path d="M13.2,13.1c0.5,0.5,0.3,0.9-0.3,1.1l-2.8,0.7c-0.7,0.2-1-0.3-0.9-0.9L9.8,11c0.1-0.6,0.7-0.7,1.1-0.3L13.2,13.1z"/>
	</g>
</g>
</svg>
