<?xml version="1.0" encoding="utf-8"?>
<!-- Generator: Adobe Illustrator 18.0.0, SVG Export Plug-In . SVG Version: 6.00 Build 0)  -->
<!DOCTYPE svg PUBLIC "-//W3C//DTD SVG 1.1//EN" "http://www.w3.org/Graphics/SVG/1.1/DTD/svg11.dtd">
<svg version="1.1" id="Layer_1" xmlns="http://www.w3.org/2000/svg" xmlns:xlink="http://www.w3.org/1999/xlink" x="0px" y="0px"
	 viewBox="0 0 24 24" enable-background="new 0 0 24 24" xml:space="preserve">
<g>
	<path d="M21.4,23.6H2.9c-1.4,0-2.5-1.1-2.5-2.5V2.6c0-1.4,1.1-2.5,2.5-2.5h18.4c1.4,0,2.5,1.1,2.5,2.5V7h-1V2.6
		c0-0.8-0.7-1.5-1.5-1.5H2.9c-0.8,0-1.5,0.7-1.5,1.5v18.4c0,0.8,0.7,1.5,1.5,1.5h18.4c0.8,0,1.5-0.7,1.5-1.5V18h1v3.1
		C23.9,22.4,22.7,23.6,21.4,23.6z"/>
</g>
<path d="M23.3,13c0.1-0.1,0.1-0.1,0.1-0.1l0.1-0.1l0.1-0.1l0.1-0.1l0.1-0.1l0-0.1l0,0l0,0v-0.1l-0.1-0.1l-0.1-0.1l-0.1-0.1L23.4,12
	c-0.1-0.1-0.1-0.1-0.1-0.1l-4.5-4.5c-0.4-0.4-1.1-0.4-1.6,0s-0.4,1.1,0,1.6l2.7,2.7l-12.3,0c-0.6,0-1.1,0.5-1.1,1.1
	c0,0.6,0.5,1.1,1.1,1.1h12.3l-2.4,2.4c-0.4,0.4-0.4,1.1,0,1.6s1.1,0.4,1.6,0L23.3,13L23.3,13z"/>
</svg>
