<?xml version="1.0" encoding="utf-8"?>
<!-- Generator: Adobe Illustrator 18.0.0, SVG Export Plug-In . SVG Version: 6.00 Build 0)  -->
<!DOCTYPE svg PUBLIC "-//W3C//DTD SVG 1.1//EN" "http://www.w3.org/Graphics/SVG/1.1/DTD/svg11.dtd">
<svg version="1.1" id="Layer_1" xmlns="http://www.w3.org/2000/svg" xmlns:xlink="http://www.w3.org/1999/xlink" x="0px" y="0px"
	 viewBox="0 0 24 24" enable-background="new 0 0 24 24" xml:space="preserve">
<path d="M16,1.8c-0.4,0.1-0.7,0.5-0.7,0.9c0.1,0.4,0.5,0.7,0.9,0.7L18.6,3l-5.3,7.2c-0.3,0.3-0.2,0.8,0.2,1.1s0.8,0.2,1.1-0.2
	L20,3.7l0.2,2.9c0.1,0.4,0.5,0.7,0.9,0.7c0.5,0,0.8-0.5,0.7-1l-0.6-4.7C21.3,1.2,21,1,20.6,1L16,1.8z"/>
<path d="M19.5,10.7v11.2c0,0.6-0.5,1.1-1.1,1.1H2.1C1.5,23,1,22.5,1,21.9V2.6C1,2,1.5,1.5,2.1,1.5h2.7H9v4.7h3v-1h-2V0.5H9.1H4.8
	H2.1C0.9,0.5,0,1.4,0,2.6v19.3C0,23.1,0.9,24,2.1,24h16.3c1.2,0,2.1-0.9,2.1-2.1V10.7H19.5z"/>
</svg>
