<?xml version="1.0" encoding="utf-8"?>
<!-- Generator: Adobe Illustrator 18.0.0, SVG Export Plug-In . SVG Version: 6.00 Build 0)  -->
<!DOCTYPE svg PUBLIC "-//W3C//DTD SVG 1.1//EN" "http://www.w3.org/Graphics/SVG/1.1/DTD/svg11.dtd">
<svg version="1.1" id="Layer_1" xmlns="http://www.w3.org/2000/svg" xmlns:xlink="http://www.w3.org/1999/xlink" x="0px" y="0px"
	 viewBox="0 0 16 16" enable-background="new 0 0 16 16" xml:space="preserve">
<g opacity="0.3" enable-background="new    ">
	<path d="M0.2,13.5V2.6c0-1.3,1.1-2.4,2.4-2.4h10.9c1.3,0,2.4,1.1,2.4,2.4l0,10.8c0,1.3-1.1,2.4-2.4,2.4H2.7
		C1.3,15.8,0.2,14.7,0.2,13.5z M13.4,1H2.7C1.7,1,1,1.7,1,2.6v10.9c0,0.9,0.7,1.6,1.6,1.6h10.9c0.9,0,1.6-0.7,1.6-1.6V2.6
		c0-0.9-0.8-1.7-1.7-1.7V1z"/>
</g>
<path opacity="0.8" fill="#FFFFFF" enable-background="new    " d="M0.5,13.5V2.6c0-1.1,0.9-2,2-2h10.9c1.1,0,2,0.9,2,2v10.8
	c0,1.1-0.9,2-2,2H2.7C1.5,15.4,0.7,14.5,0.5,13.5z"/>
<path fill="#D42B00" d="M4.9,6.2C5.7,5.7,6.7,5.7,7,5.7h2.3c0.1,0,0.1,0,0.2,0V4.6c0-0.3,0.2-0.4,0.5-0.3l2.3,2.2
	c0.3,0.2,0.3,0.5,0,0.6L9.9,9.3C9.5,9.5,9.4,9.3,9.4,9l0-1C9.3,8,9.3,8,9.3,8h-2H7.1c-1.2,0-2.5,0.4-2.5,2.3l0.2,1.4
	c-0.7-0.4-1-1.8-1.1-2.6C3.5,7.9,4.1,6.7,4.9,6.2z"/>
</svg>
