<?xml version="1.0" encoding="utf-8"?>
<!-- Generator: Adobe Illustrator 18.0.0, SVG Export Plug-In . SVG Version: 6.00 Build 0)  -->
<!DOCTYPE svg PUBLIC "-//W3C//DTD SVG 1.1//EN" "http://www.w3.org/Graphics/SVG/1.1/DTD/svg11.dtd">
<svg version="1.1" id="Layer_1" xmlns="http://www.w3.org/2000/svg" xmlns:xlink="http://www.w3.org/1999/xlink" x="0px" y="0px"
	 viewBox="0 0 16 16" enable-background="new 0 0 16 16" xml:space="preserve">
<path opacity="0.15" enable-background="new    " d="M1,15.2c0.3,0.3,1,0.5,1.4,0.5h11c1.3,0,1.8-0.7,2-1.9L15.4,2.5
	c0-0.3-0.2-0.8-0.4-1L1,15.2z"/>
<path opacity="0.7" fill="#FFFFFF" enable-background="new    " d="M15.2,1.5c-0.3-0.3-0.8-0.5-1.2-0.5l-11.5,0
	c-1.3,0-2.1,0.7-1.9,2v11.7c0,0.3,0.1,0.5,0.3,0.7L15.2,1.5z"/>
<g opacity="0.8" enable-background="new    ">
	<path d="M13.8,16.4H2.2c-1.3,0-2.4-1.1-2.4-2.4V2.5c0-1.3,1.1-2.4,2.4-2.4h11.6c1.3,0,2.4,1.1,2.4,2.4v11.6
		C16.2,15.4,15.1,16.4,13.8,16.4z M2.2,0.9c-0.9,0-1.6,0.7-1.6,1.6v11.6c0,0.9,0.7,1.6,1.6,1.6h11.6c0.9,0,1.6-0.7,1.6-1.6V2.5
		c0-0.9-0.7-1.6-1.6-1.6H2.2z"/>
</g>
<path d="M5.1,7c0.8-0.5,1.8-0.5,2.1-0.5h2.3c0.1,0,0.1,0,0.2,0V5.4c0-0.3,0.2-0.4,0.5-0.3l2.3,2.2c0.3,0.2,0.3,0.5,0,0.6l-2.4,2.2
	c-0.4,0.2-0.5,0-0.5-0.3v-1c-0.1,0-0.1,0-0.1,0h-2H7.3c-1.2,0-2.5,0.4-2.5,2.3L5,12.5c-0.7-0.4-1-1.8-1.1-2.6C3.7,8.7,4.3,7.5,5.1,7
	z"/>
<g id="Arrow_10">
</g>
</svg>
