<?xml version="1.0" encoding="utf-8"?>
<!-- Generator: Adobe Illustrator 18.0.0, SVG Export Plug-In . SVG Version: 6.00 Build 0)  -->
<!DOCTYPE svg PUBLIC "-//W3C//DTD SVG 1.1//EN" "http://www.w3.org/Graphics/SVG/1.1/DTD/svg11.dtd">
<svg version="1.1" id="Layer_1" xmlns="http://www.w3.org/2000/svg" xmlns:xlink="http://www.w3.org/1999/xlink" x="0px" y="0px"
	 viewBox="0 0 24 24" enable-background="new 0 0 24 24" xml:space="preserve">
<g>
	<g>
		<path fill="#80DBEC" d="M21.7,23.6H2.4c-1.2,0-2.1-0.9-2.1-2.1V2.2c0-1.2,0.9-2.1,2.1-2.1h7.5v5.2L9.8,7.2l-1-0.1l0.1-1.9l0-4.2
			H2.4c-0.6,0-1.1,0.5-1.1,1.1v19.3c0,0.6,0.5,1.1,1.1,1.1h19.3c0.6,0,1.1-0.5,1.1-1.1v-9h-5.3v-1h6.3v10
			C23.8,22.7,22.9,23.6,21.7,23.6z"/>
	</g>
</g>
<polygon fill="#E34646" points="14.5,0.6 16.8,5.3 22,6.1 18.3,9.8 19.1,15 14.5,12.6 9.8,15 10.7,9.8 6.9,6.1 12.1,5.3 "/>
</svg>
