<?xml version="1.0" encoding="utf-8"?>
<!-- Generator: Adobe Illustrator 18.0.0, SVG Export Plug-In . SVG Version: 6.00 Build 0)  -->
<!DOCTYPE svg PUBLIC "-//W3C//DTD SVG 1.1//EN" "http://www.w3.org/Graphics/SVG/1.1/DTD/svg11.dtd">
<svg version="1.1" id="Layer_1" xmlns="http://www.w3.org/2000/svg" xmlns:xlink="http://www.w3.org/1999/xlink" x="0px" y="0px"
	 viewBox="0 0 24 24" enable-background="new 0 0 24 24" xml:space="preserve">
<path fill="#80DBEC" d="M21.5,0.9H9.1C7.7,0.9,6.6,2,6.6,3.4v2.4H2.8c-1.4,0-2.5,1.1-2.5,2.5v12.9c0,1.4,1.1,2.5,2.5,2.5h12.9
	c1.4,0,2.5-1.1,2.5-2.5v-2.9h3.3c1.3,0,2.4-1.1,2.4-2.4V3.4C23.9,2,22.8,0.9,21.5,0.9z M17.1,21.1c0,0.8-0.7,1.5-1.5,1.5H2.8
	c-0.8,0-1.5-0.7-1.5-1.5V8.3c0-0.8,0.7-1.5,1.5-1.5h12.9c0.8,0,1.5,0.7,1.5,1.5v12.8H17.1z M22.9,15.8c0,0.8-0.6,1.4-1.4,1.4h-3.3
	V8.3c0-1.4-1.1-2.5-2.5-2.5h-8V3.4C7.7,2.6,8.3,2,9.1,2h12.4c0.8,0,1.4,0.6,1.4,1.4V15.8z"/>
<g>
	<g>
		<path fill="#E34646" d="M21,18.3h-2.8v-1.1l2.9,0.1c1,0,1.8-0.8,1.8-1.8V3.7C22.9,2.7,22,2,21,2H9.4C8.4,2,7.6,2.3,7.7,5.8l-1.2,0
			C6,1.1,7.9,0.9,9.4,0.9h11.7c2.2,0,2.7,1.3,2.7,2.8v11.7C23.9,17.6,22.4,18.3,21,18.3z"/>
	</g>
</g>
</svg>
