<?xml version="1.0" encoding="utf-8"?>
<!-- Generator: Adobe Illustrator 18.0.0, SVG Export Plug-In . SVG Version: 6.00 Build 0)  -->
<!DOCTYPE svg PUBLIC "-//W3C//DTD SVG 1.1//EN" "http://www.w3.org/Graphics/SVG/1.1/DTD/svg11.dtd">
<svg version="1.1" id="Layer_1" xmlns="http://www.w3.org/2000/svg" xmlns:xlink="http://www.w3.org/1999/xlink" x="0px" y="0px"
	 viewBox="0 0 24 24" enable-background="new 0 0 24 24" xml:space="preserve">
<g>
	<path d="M16.7,23.7H3c-1.4,0-2.5-1.1-2.5-2.5V7.5C0.5,6.2,1.6,5,3,5h6.4v1H3C2.2,6,1.5,6.7,1.5,7.5v13.6c0,0.8,0.7,1.5,1.5,1.5
		h13.6c0.8,0,1.5-0.7,1.5-1.5v-5.9h1v5.9C19.2,22.6,18,23.7,16.7,23.7z"/>
</g>
<path d="M12,7.5c1.2-0.8,2.7-0.8,3.1-0.8h3.5c0.1,0,0.1,0,0.3,0V5c0-0.5,0.2-0.7,0.7-0.4L23,7.9c0.4,0.2,0.4,0.6,0,0.9L19.4,12
	c-0.4,0.2-0.7,0-0.7-0.4v-1.5c-0.2,0-0.2,0-0.3,0h-3h-0.2c-1.9,0-3.8,0.6-3.8,3.5l0.3,2.1c-1-0.7-1.5-2.8-1.6-3.9
	C9.9,9.9,10.7,8.3,12,7.5z"/>
</svg>
