<?xml version="1.0" encoding="utf-8"?>
<!-- Generator: Adobe Illustrator 18.0.0, SVG Export Plug-In . SVG Version: 6.00 Build 0)  -->
<!DOCTYPE svg PUBLIC "-//W3C//DTD SVG 1.1//EN" "http://www.w3.org/Graphics/SVG/1.1/DTD/svg11.dtd">
<svg version="1.1" id="Layer_1" xmlns="http://www.w3.org/2000/svg" xmlns:xlink="http://www.w3.org/1999/xlink" x="0px" y="0px"
	 viewBox="0 0 24 24" enable-background="new 0 0 24 24" xml:space="preserve">
<path d="M20.6,16V19c-0.2,0.3-0.5,0.5-0.8,0.5h-14c-0.5,0-0.9-0.4-0.9-0.9V2c0-0.3,0.2-0.6,0.4-0.8h0.3h6.1v3.9h9.6V4.3h-8.7v-4
	h-0.8H8.2H5.9c-0.1,0-0.2,0-0.3,0H2.9c-1.2,0-2.1,0.9-2.1,2.1v19.3c0,1.2,0.9,2.1,2.1,2.1h16.6c1.2,0,2.1-0.9,2.1-2.1v-3.1V16v0
	H20.6z M19.5,22.8H2.9c-0.6,0-1.1-0.5-1.1-1.1V2.4c0-0.6,0.5-1.1,1.1-1.1h1.3C4.1,1.5,4.1,1.8,4.1,2v16.5c0,1,0.8,1.8,1.8,1.8h14
	c0.3,0,0.6-0.1,0.8-0.2v1.5C20.6,22.3,20.1,22.8,19.5,22.8z"/>
<path d="M19.7,7.2c-0.3-0.3-0.8-0.3-1.1,0c-0.3,0.3-0.3,0.8,0,1.1l1.7,1.7l-9,0c-0.4,0-0.8,0.4-0.8,0.8s0.4,0.8,0.8,0.8l9.3,0
	l-2.2,1.9c-0.3,0.3-0.3,0.8,0,1.1c0.3,0.4,0.9,0.3,1.2,0l3.4-3.2c0.3-0.2,0.3-0.6,0-0.9L19.7,7.2z"/>
</svg>
