<?xml version="1.0" encoding="utf-8"?>
<!-- Generator: Adobe Illustrator 18.0.0, SVG Export Plug-In . SVG Version: 6.00 Build 0)  -->
<!DOCTYPE svg PUBLIC "-//W3C//DTD SVG 1.1//EN" "http://www.w3.org/Graphics/SVG/1.1/DTD/svg11.dtd">
<svg version="1.1" id="Layer_1" xmlns="http://www.w3.org/2000/svg" xmlns:xlink="http://www.w3.org/1999/xlink" x="0px" y="0px"
	 viewBox="0 0 24 24" enable-background="new 0 0 24 24" xml:space="preserve">
<g>
	<path fill="#FFFFFF" d="M21.7,23.2H2.3c-1.1,0-2-0.9-2-2V1.8c0-1.1,0.9-2,2-2h19.3c1.1,0,2,0.9,2,2v19.3
		C23.7,22.3,22.8,23.2,21.7,23.2z"/>
	<path d="M21.7,23.5H2.3c-1.3,0-2.3-1-2.3-2.3V1.8c0-1.3,1-2.3,2.3-2.3h19.3c1.4,0,2.4,1,2.4,2.3v19.3C24,22.5,23,23.5,21.7,23.5z
		 M2.3,0.2c-0.9,0-1.6,0.7-1.6,1.6v19.3c0,0.9,0.7,1.6,1.6,1.6h19.3c0.9,0,1.6-0.7,1.6-1.6V1.8c0-0.9-0.7-1.6-1.6-1.6
		C21.6,0.2,2.3,0.2,2.3,0.2z"/>
</g>
<g>
	<path id="path1901" d="M9,17.1c0,0-0.8,0.5,0.6,0.6c1.6,0.2,2.4,0.2,4.2-0.2c0,0,0.5,0.3,1.1,0.5C10.9,19.7,5.9,17.9,9,17.1"/>
	<path id="path1903" d="M8.5,14.8c0,0-0.9,0.6,0.5,0.8c1.7,0.2,3.1,0.2,5.4-0.3c0,0,0.3,0.3,0.8,0.5C10.4,17.3,5.1,16,8.5,14.8"/>
	<path id="path1905" d="M12.6,11.1c1,1.1-0.3,2.1-0.3,2.1s2.5-1.3,1.3-2.9c-1.1-1.5-1.9-2.2,2.5-4.8C16.3,5.5,9.3,7.2,12.6,11.1"/>
	<path id="path1907" d="M17.9,18.7c0,0,0.6,0.5-0.6,0.8c-2.3,0.7-9.6,0.9-11.6,0c-0.7-0.3,0.6-0.8,1.1-0.8c0.4-0.1,0.7-0.1,0.7-0.1
		c-0.8-0.6-5.2,1.1-2.2,1.6C13.3,21.6,20,19.7,17.9,18.7"/>
	<path id="path1909" d="M9.4,12.5c0,0-3.7,0.9-1.3,1.2c1,0.1,3,0.1,4.9-0.1c1.5-0.1,3.1-0.4,3.1-0.4s-0.5,0.2-0.9,0.5
		c-3.8,1-11,0.5-8.9-0.5C8,12.4,9.4,12.5,9.4,12.5"/>
	<path id="path1911" d="M16,16.2c3.8-2,2-3.9,0.8-3.6c-0.3,0.1-0.4,0.1-0.4,0.1s0.1-0.2,0.3-0.3C19.2,11.6,21,15,16,16.2
		C15.9,16.3,16,16.3,16,16.2"/>
	<path id="path1913" d="M13.7,1.3c0,0,2.1,2.1-2,5.4c-3.3,2.6-0.8,4.1,0,5.8c-1.9-1.7-3.3-3.3-2.4-4.7C10.7,5.7,14.6,4.7,13.7,1.3"
		/>
	<path id="path1915" d="M9.8,21.6c3.7,0.2,9.3-0.1,9.4-1.9c0,0-0.3,0.7-3,1.2c-3.1,0.6-7,0.5-9.3,0.1C6.9,21.1,7.4,21.4,9.8,21.6"/>
</g>
</svg>
