<?xml version="1.0" encoding="utf-8"?>
<!-- Generator: Adobe Illustrator 18.0.0, SVG Export Plug-In . SVG Version: 6.00 Build 0)  -->
<!DOCTYPE svg PUBLIC "-//W3C//DTD SVG 1.1//EN" "http://www.w3.org/Graphics/SVG/1.1/DTD/svg11.dtd">
<svg version="1.1" id="Layer_1" xmlns="http://www.w3.org/2000/svg" xmlns:xlink="http://www.w3.org/1999/xlink" x="0px" y="0px"
	 viewBox="0 0 24 24" enable-background="new 0 0 24 24" xml:space="preserve">
<path d="M21.5,0.9H9.1C7.7,0.9,6.6,2,6.6,3.4v2.4H2.8c-1.4,0-2.5,1.1-2.5,2.5v12.9c0,1.4,1.1,2.5,2.5,2.5h12.9
	c1.4,0,2.5-1.1,2.5-2.5v-2.9h3.3c1.3,0,2.4-1.1,2.4-2.4V3.4C23.9,2,22.8,0.9,21.5,0.9z M17.1,21.1c0,0.8-0.7,1.5-1.5,1.5H2.8
	c-0.8,0-1.5-0.7-1.5-1.5V8.3c0-0.8,0.7-1.5,1.5-1.5h12.9c0.8,0,1.5,0.7,1.5,1.5V21.1z M22.9,15.8c0,0.8-0.6,1.4-1.4,1.4h-3.3V8.3
	c0-1.4-1.1-2.5-2.5-2.5h-8V3.4c0-0.8,0.6-1.4,1.4-1.4h12.4c0.8,0,1.4,0.6,1.4,1.4V15.8z"/>
</svg>
