<?xml version="1.0" encoding="utf-8"?>
<!-- Generator: Adobe Illustrator 18.0.0, SVG Export Plug-In . SVG Version: 6.00 Build 0)  -->
<!DOCTYPE svg PUBLIC "-//W3C//DTD SVG 1.1//EN" "http://www.w3.org/Graphics/SVG/1.1/DTD/svg11.dtd">
<svg version="1.1" id="Layer_1" xmlns="http://www.w3.org/2000/svg" xmlns:xlink="http://www.w3.org/1999/xlink" x="0px" y="0px"
	 viewBox="0 0 24 24" enable-background="new 0 0 24 24" xml:space="preserve">
<g>
	<path d="M7.1,23.7h13.6c1.4,0,2.5-1.1,2.5-2.5V7.5c0-1.4-1.1-2.5-2.5-2.5h-6.4v1h6.4c0.8,0,1.5,0.7,1.5,1.5v13.6
		c0,0.8-0.7,1.5-1.5,1.5H7.1c-0.8,0-1.5-0.7-1.5-1.5v-5.9h-1v5.9C4.6,22.6,5.7,23.7,7.1,23.7z"/>
</g>
<path d="M13.7,11.8c-0.1,1.2-0.6,3.3-1.6,3.9l0.3-2.1c0-2.9-1.9-3.5-3.8-3.5H8.3h-3c-0.1,0-0.1,0-0.3,0v1.5c0,0.5-0.2,0.7-0.7,0.4
	L0.8,8.8c-0.4-0.2-0.4-0.6,0-0.9l3.5-3.3C4.8,4.4,5,4.6,5,5v1.7c0.2,0,0.2,0,0.3,0h3.5c0.4,0,1.9,0,3.1,0.8
	C13.1,8.3,13.8,9.9,13.7,11.8z"/>
</svg>
