<?xml version="1.0" encoding="utf-8"?>
<!-- Generator: Adobe Illustrator 18.0.0, SVG Export Plug-In . SVG Version: 6.00 Build 0)  -->
<!DOCTYPE svg PUBLIC "-//W3C//DTD SVG 1.1//EN" "http://www.w3.org/Graphics/SVG/1.1/DTD/svg11.dtd">
<svg version="1.1" id="Layer_1" xmlns="http://www.w3.org/2000/svg" xmlns:xlink="http://www.w3.org/1999/xlink" x="0px" y="0px"
	 viewBox="0 0 24 24" enable-background="new 0 0 24 24" xml:space="preserve">
<g>
	<path d="M2.5,8.1V11h3.3V8.1h0.9v6.7H5.8v-3.2H2.5v3.2H1.6V8.1H2.5z"/>
	<path d="M8.8,8.9h-2V8.1h5v0.7H9.7v6H8.8V8.9z"/>
	<path d="M17.4,11.9c0-0.9-0.1-2.1-0.1-2.9l0,0c-0.2,0.8-0.5,1.6-0.8,2.6l-1.2,3.3h-0.7l-1.1-3.2c-0.3-0.9-0.6-1.8-0.8-2.6l0,0
		c0,0.8-0.1,2-0.1,3L12.4,15h-0.8L12,8.1h1.1l1.1,3.3c0.3,0.8,0.5,1.6,0.7,2.3l0,0c0.2-0.7,0.4-1.4,0.7-2.3l1.2-3.3H18l0.4,6.7h-0.8
		L17.4,11.9z"/>
	<path d="M18.6,8.1h0.9v6h2.9v0.7h-3.7L18.6,8.1L18.6,8.1z"/>
</g>
<g>
	<path d="M21.7,24H2.3C1,24,0,23,0,21.7V2.3C0,1,1,0,2.3,0h19.3C23,0,24,1,24,2.3v19.3c0.1,0.6-0.1,1.2-0.6,1.6
		C23,23.8,22.4,24,21.7,24z M2.3,0.7c-0.9,0-1.6,0.7-1.6,1.6v19.3c0,0.9,0.7,1.6,1.6,1.6h19.4c0.4,0,0.9-0.2,1.2-0.5
		c0.3-0.3,0.4-0.7,0.4-1.1l0-19.3c0-0.9-0.7-1.6-1.6-1.6H2.3z"/>
</g>
</svg>
