<?xml version="1.0" encoding="utf-8"?>
<!-- Generator: Adobe Illustrator 18.0.0, SVG Export Plug-In . SVG Version: 6.00 Build 0)  -->
<!DOCTYPE svg PUBLIC "-//W3C//DTD SVG 1.1//EN" "http://www.w3.org/Graphics/SVG/1.1/DTD/svg11.dtd">
<svg version="1.1" id="Layer_1" xmlns="http://www.w3.org/2000/svg" xmlns:xlink="http://www.w3.org/1999/xlink" x="0px" y="0px"
	 viewBox="0 0 24 24" enable-background="new 0 0 24 24" xml:space="preserve">
<polygon points="22.6,0.3 18.6,4.2 14.7,0.3 13.4,1.6 17.3,5.6 13.5,9.4 14.9,10.7 18.6,7 22.4,10.7 23.8,9.4 20,5.6 24,1.6 "/>
<path d="M19.7,12.5v9.2c0,0.6-0.5,1.1-1.1,1.1H2.3c-0.6,0-1.1-0.5-1.1-1.1V2.4c0-0.6,0.5-1.1,1.1-1.1H5h4.2V6h3V5h-2V0.3H9.3H5H2.3
	c-1.2,0-2.1,0.9-2.1,2.1v19.3c0,1.2,0.9,2.1,2.1,2.1h16.3c1.2,0,2.1-0.9,2.1-2.1v-9.2H19.7z"/>
</svg>
