<?xml version="1.0" encoding="utf-8"?>
<!-- Generator: Adobe Illustrator 18.0.0, SVG Export Plug-In . SVG Version: 6.00 Build 0)  -->
<!DOCTYPE svg PUBLIC "-//W3C//DTD SVG 1.1//EN" "http://www.w3.org/Graphics/SVG/1.1/DTD/svg11.dtd">
<svg version="1.1" id="Layer_1" xmlns="http://www.w3.org/2000/svg" xmlns:xlink="http://www.w3.org/1999/xlink" x="0px" y="0px"
	 viewBox="0 0 24 24" enable-background="new 0 0 24 24" xml:space="preserve">
<path d="M20.1,8.9V19c-0.2,0.3-0.5,0.5-0.8,0.5h-14c-0.5,0-0.9-0.4-0.9-0.9V2c0-0.3,0.2-0.6,0.4-0.8h0.3h6.1v3.9h2.6V4.3h-1.7v-4
	h-0.8H7.6H5.3c-0.1,0-0.2,0-0.3,0H2.4c-1.2,0-2.1,0.9-2.1,2.1v19.3c0,1.2,0.9,2.1,2.1,2.1H19c1.2,0,2.1-0.9,2.1-2.1v-3.1V9v0H20.1z
	 M19,22.8H2.4c-0.6,0-1.1-0.5-1.1-1.1V2.4c0-0.6,0.5-1.1,1.1-1.1h1.3C3.6,1.5,3.5,1.7,3.5,2v16.5c0,1,0.8,1.8,1.8,1.8h14
	c0.3,0,0.6-0.1,0.8-0.2v1.5C20.1,22.3,19.6,22.8,19,22.8z"/>
<path d="M15.9,13.9c0.4,0,0.7-0.4,0.8-0.8c0-0.4-0.4-0.7-0.8-0.8l-2.4,0.1l6.1-6.6c0.3-0.3,0.3-0.8-0.1-1.1
	c-0.3-0.3-0.8-0.3-1.1,0.1l-6.1,6.6l-0.1-2.7c0-0.4-0.4-0.7-0.8-0.8s-0.7,0.4-0.8,0.8l0.1,5.2L15.9,13.9z"/>
</svg>
