<?xml version="1.0" encoding="utf-8"?>
<!-- Generator: Adobe Illustrator 18.0.0, SVG Export Plug-In . SVG Version: 6.00 Build 0)  -->
<!DOCTYPE svg PUBLIC "-//W3C//DTD SVG 1.1//EN" "http://www.w3.org/Graphics/SVG/1.1/DTD/svg11.dtd">
<svg version="1.1" id="Layer_1" xmlns="http://www.w3.org/2000/svg" xmlns:xlink="http://www.w3.org/1999/xlink" x="0px" y="0px"
	 viewBox="0 0 24 24" enable-background="new 0 0 24 24" xml:space="preserve">
<g>
	<path d="M21.2,4.7C21.2,4.7,21.2,4.7,21.2,4.7c0-0.1,0-0.1,0-0.1c0,0,0,0,0-0.1c0,0,0,0,0-0.1c0,0,0-0.1-0.1-0.1c0,0,0,0,0,0
		c0,0,0,0,0,0c0,0-0.1-0.1-0.1-0.1c0,0,0,0-0.1,0c0,0,0,0-0.1,0c0,0,0,0-0.1,0c0,0,0,0-0.1,0c0,0-0.1,0-0.1,0L16.4,4
		c-0.4,0-0.7,0.3-0.7,0.7c0,0.4,0.3,0.7,0.7,0.7l2.5,0.1l-5.9,5.4c-0.3,0.3-0.3,0.7,0,1c0.3,0.3,0.7,0.3,1,0l5.9-5.4l-0.1,2.5
		c0,0.4,0.3,0.7,0.7,0.7C20.7,9.7,21,9.4,21,9l0.2-4.1c0,0,0,0,0,0C21.2,4.8,21.2,4.8,21.2,4.7z"/>
	<path d="M21.7,0.7H9c-1.4,0-2.5,1.1-2.5,2.5V6H2.8C1.4,6,0.3,7.1,0.3,8.5v12.7c0,1.4,1.1,2.5,2.5,2.5h12.7c1.4,0,2.5-1.1,2.5-2.5
		v-2.9h3.8c1.4,0,2.5-1.1,2.5-2.5V3.1C24.2,1.8,23,0.7,21.7,0.7z M23.2,15.8c0,0.8-0.7,1.5-1.5,1.5h-3.8v-6.1h-1v10
		c0,0.8-0.7,1.5-1.5,1.5H2.8c-0.8,0-1.5-0.7-1.5-1.5V8.5C1.3,7.7,2,7,2.8,7h10.8V6h-6V3.1c0-0.8,0.7-1.5,1.5-1.5h12.7
		c0.8,0,1.5,0.7,1.5,1.5V15.8z"/>
</g>
</svg>
