<?xml version="1.0" encoding="utf-8"?>
<!-- Generator: Adobe Illustrator 18.0.0, SVG Export Plug-In . SVG Version: 6.00 Build 0)  -->
<!DOCTYPE svg PUBLIC "-//W3C//DTD SVG 1.1//EN" "http://www.w3.org/Graphics/SVG/1.1/DTD/svg11.dtd">
<svg version="1.1" id="Layer_1" xmlns="http://www.w3.org/2000/svg" xmlns:xlink="http://www.w3.org/1999/xlink" x="0px" y="0px"
	 viewBox="0 0 24 24" enable-background="new 0 0 24 24" xml:space="preserve">
<g id="Page-1">
	<g id="Core" transform="translate(-127.000000, -128.000000)">
		<g id="content-cut" transform="translate(127.500000, 128.000000)">
			<path id="Shape" d="M19,10.3c1,1,2.6,1.1,3.6,0.1s1.1-2.6,0.1-3.6c-1-1-2.6-1.1-3.6-0.1c-0.3,0.3-0.5,0.5-0.6,0.9l-2.2-0.1
				l0.1-2.2c0.4-0.1,0.6-0.2,0.9-0.5c1-1,1.1-2.6,0.1-3.6c-1-1-2.6-1.1-3.6-0.1s-1.1,2.6-0.1,3.6C14,5,14.3,5.2,14.6,5.3l-0.1,2.2
				L8.2,7.2L6.4,9l12.1,0.4C18.5,9.8,18.7,10,19,10.3L19,10.3z M20,7.6c0.5-0.5,1.3-0.5,1.8,0.1c0.5,0.5,0.5,1.3-0.1,1.8
				c-0.5,0.5-1.3,0.5-1.8-0.1C19.4,8.9,19.5,8.1,20,7.6L20,7.6z M14.7,2c0.5-0.5,1.3-0.5,1.8,0.1C17,2.6,17,3.4,16.5,3.9
				c-0.5,0.5-1.3,0.5-1.8-0.1C14.2,3.3,14.2,2.5,14.7,2L14.7,2z M15.6,8.6c-0.1,0.1-0.3,0.1-0.5,0c-0.1-0.1-0.1-0.3,0-0.5
				c0.1-0.1,0.3-0.1,0.5,0C15.8,8.3,15.8,8.5,15.6,8.6L15.6,8.6z M14.2,17.4l1.9-1.7l0.2-5.4l-1.8-0.1L14.2,17.4L14.2,17.4z"/>
		</g>
	</g>
</g>
<g>
	<path d="M16,24.1H2.4c-1.4,0-2.5-1.1-2.5-2.5V8c0-1.4,1.1-2.5,2.5-2.5h6.4v1H2.4C1.5,6.5,0.9,7.2,0.9,8v13.6c0,0.8,0.7,1.5,1.5,1.5
		H16c0.8,0,1.5-0.7,1.5-1.5v-5.9h1v5.9C18.5,23,17.4,24.1,16,24.1z"/>
</g>
</svg>
