<?xml version="1.0" encoding="utf-8"?>
<!-- Generator: Adobe Illustrator 18.0.0, SVG Export Plug-In . SVG Version: 6.00 Build 0)  -->
<!DOCTYPE svg PUBLIC "-//W3C//DTD SVG 1.1//EN" "http://www.w3.org/Graphics/SVG/1.1/DTD/svg11.dtd">
<svg version="1.1" id="Layer_1" xmlns="http://www.w3.org/2000/svg" xmlns:xlink="http://www.w3.org/1999/xlink" x="0px" y="0px"
	 viewBox="0 0 24 24" enable-background="new 0 0 24 24" xml:space="preserve">
<g>
	<path fill="#FFFFFF" d="M21.5,23.3H2.1c-1.1,0-2-0.9-2-2V1.9c0-1.1,0.9-2,2-2h19.3c1.1,0,2,0.9,2,2v19.3
		C23.5,22.4,22.6,23.3,21.5,23.3z"/>
	<path d="M21.5,23.6H2.1c-1.3,0-2.3-1-2.3-2.3V1.9c0-1.3,1-2.3,2.3-2.3h19.3c1.4,0,2.4,1,2.4,2.3v19.3
		C23.8,22.6,22.8,23.6,21.5,23.6z M2.1,0.3C1.2,0.3,0.5,1,0.5,1.9v19.3c0,0.9,0.7,1.6,1.6,1.6h19.3c0.9,0,1.6-0.7,1.6-1.6V1.9
		c0-0.9-0.7-1.6-1.6-1.6C21.4,0.3,2.1,0.3,2.1,0.3z"/>
</g>
<g>
	<path d="M9.6,15.3c-0.4,0.2-1.2,0.5-2.3,0.5c-2.4,0-4-1.6-4-4.1c0-2.5,1.7-4.3,4.3-4.3c0.9,0,1.6,0.2,2,0.4L9.3,9
		C9,8.8,8.5,8.6,7.7,8.6c-1.8,0-2.8,1.4-2.8,3c0,1.9,1.2,3,2.8,3c0.8,0,1.4-0.2,1.8-0.4L9.6,15.3z"/>
	<path d="M10.2,14.1c0.4,0.3,1.2,0.6,1.9,0.6c1.1,0,1.6-0.5,1.6-1.2c0-0.7-0.4-1.1-1.5-1.5c-1.4-0.5-2.1-1.3-2.1-2.3
		c0-1.3,1-2.4,2.8-2.4c0.8,0,1.5,0.2,2,0.5L14.4,9c-0.3-0.2-0.9-0.5-1.6-0.5c-0.9,0-1.3,0.5-1.3,1.1c0,0.7,0.5,1,1.5,1.4
		c1.4,0.5,2.1,1.2,2.1,2.4c0,1.4-1.1,2.4-3,2.4c-0.9,0-1.7-0.2-2.3-0.5L10.2,14.1z"/>
	<path d="M15.4,14.1c0.4,0.3,1.2,0.6,1.9,0.6c1.1,0,1.6-0.5,1.6-1.2c0-0.7-0.4-1.1-1.5-1.5c-1.4-0.5-2.1-1.3-2.1-2.3
		c0-1.3,1-2.4,2.8-2.4c0.8,0,1.5,0.2,2,0.5L19.6,9c-0.3-0.2-0.9-0.5-1.6-0.5c-0.9,0-1.3,0.5-1.3,1.1c0,0.7,0.5,1,1.5,1.4
		c1.4,0.5,2.1,1.2,2.1,2.4c0,1.4-1.1,2.4-3,2.4c-0.9,0-1.7-0.2-2.3-0.5L15.4,14.1z"/>
</g>
</svg>
