<?xml version="1.0" encoding="utf-8"?>
<!-- Generator: Adobe Illustrator 18.0.0, SVG Export Plug-In . SVG Version: 6.00 Build 0)  -->
<!DOCTYPE svg PUBLIC "-//W3C//DTD SVG 1.1//EN" "http://www.w3.org/Graphics/SVG/1.1/DTD/svg11.dtd">
<svg version="1.1" id="Layer_1" xmlns="http://www.w3.org/2000/svg" xmlns:xlink="http://www.w3.org/1999/xlink" x="0px" y="0px"
	 viewBox="0 0 24 24" enable-background="new 0 0 24 24" xml:space="preserve">
<path d="M10.3,0.5L3.3,0.4c-0.6,0-1.1,0.5-1.1,1.1v20.9c0,0.6,0.5,1.1,1.1,1.1h15.6c0.6,0,1.1-0.5,1.1-1.1V8.7L10.3,0.5z M17,22.6
	l-12.7,0c-0.9,0-1.2,0.2-1.2-0.9V2.1c0-0.9,0.2-0.9,1.1-0.9h5.6l0,0c0,0.2,0,0.2,0,0.5l0,6.7c0,1.5-0.2,1.4,1,1.4c0,0,5.5,0,8.2,0
	v11.9C18.9,22.6,18.7,22.7,17,22.6z"/>
</svg>
