<?xml version="1.0" encoding="utf-8"?>
<!-- Generator: Adobe Illustrator 18.0.0, SVG Export Plug-In . SVG Version: 6.00 Build 0)  -->
<!DOCTYPE svg PUBLIC "-//W3C//DTD SVG 1.1//EN" "http://www.w3.org/Graphics/SVG/1.1/DTD/svg11.dtd">
<svg version="1.1" id="Layer_1" xmlns="http://www.w3.org/2000/svg" xmlns:xlink="http://www.w3.org/1999/xlink" x="0px" y="0px"
	 viewBox="0 0 24 24" enable-background="new 0 0 24 24" xml:space="preserve">
<path d="M21.5,0.9H9.1C7.7,0.9,6.6,2,6.6,3.4v2.4H2.8c-1.4,0-2.5,1.1-2.5,2.5v12.9c0,1.4,1.1,2.5,2.5,2.5h12.9
	c1.4,0,2.5-1.1,2.5-2.5v-2.9h3.3c1.3,0,2.4-1.1,2.4-2.4V3.4C23.9,2,22.8,0.9,21.5,0.9z M17.1,21.1c0,0.8-0.7,1.5-1.5,1.5H2.8
	c-0.8,0-1.5-0.7-1.5-1.5V8.3c0-0.8,0.7-1.5,1.5-1.5h12.9c0.8,0,1.5,0.7,1.5,1.5v12.8H17.1z M22.9,15.8c0,0.8-0.6,1.4-1.4,1.4h-3.3
	V8.3c0-1.4-1.1-2.5-2.5-2.5h-8V3.4C7.7,2.6,8.3,2,9.1,2h12.4c0.8,0,1.4,0.6,1.4,1.4V15.8z"/>
<path d="M12.3,19.8H6c-1.1,0-2-0.9-2-2v-6.8c0-1.1,0.9-2,2-2h6.4c1.1,0,2,0.9,2,2v6.8C14.3,18.9,13.4,19.8,12.3,19.8z"/>
<path d="M17.5,4.6h-6.4c-0.9,0-1.6,0.6-1.9,1.4H16c1.1,0,2,0.9,2,2v7.3c0.8-0.2,1.5-1,1.5-1.9V6.6C19.5,5.5,18.6,4.6,17.5,4.6z"/>
</svg>
