<?xml version="1.0" encoding="utf-8"?>
<!-- Generator: Adobe Illustrator 18.0.0, SVG Export Plug-In . SVG Version: 6.00 Build 0)  -->
<!DOCTYPE svg PUBLIC "-//W3C//DTD SVG 1.1//EN" "http://www.w3.org/Graphics/SVG/1.1/DTD/svg11.dtd">
<svg version="1.1" id="Layer_1" xmlns="http://www.w3.org/2000/svg" xmlns:xlink="http://www.w3.org/1999/xlink" x="0px" y="0px"
	 viewBox="0 0 24 24" enable-background="new 0 0 24 24" xml:space="preserve">
<g>
	<path d="M21.3,0.1H2.9c-1.4,0-2.5,1.1-2.5,2.5v18.5c0,1.4,1.1,2.5,2.5,2.5h18.5c1.3,0,2.5-1.2,2.4-2.6V2.6
		C23.8,1.2,22.7,0.1,21.3,0.1z M22.8,21c0,0.8-0.7,1.5-1.5,1.5H2.9c-0.8,0-1.5-0.7-1.5-1.5V2.6c0-0.8,0.7-1.5,1.5-1.5h18.4
		c0.8,0,1.5,0.7,1.5,1.5V21z"/>
	<rect x="3.7" y="5.8" width="16.2" height="1"/>
	<rect x="3.7" y="18.8" width="4.9" height="1"/>
	<rect x="3.7" y="11.5" width="5.8" height="1"/>
	<path d="M18.9,11.5h-7.4v1h7.4c0.8,0,1.5,0.7,1.5,1.5v3.6c0,0.8-0.7,1.5-1.5,1.5h-3.6l-0.6,0v-1.2c0-0.3-0.2-0.4-0.5-0.3l-2.8,1.6
		c-0.3,0.2-0.3,0.4,0,0.6l2.8,1.6c0.2,0.1,0.4,0,0.4-0.3v-1h4.2c1.4,0,2.5-1.1,2.5-2.5V14C21.4,12.6,20.3,11.5,18.9,11.5z"/>
</g>
</svg>
