<?xml version="1.0" encoding="utf-8"?>
<!-- Generator: Adobe Illustrator 18.0.0, SVG Export Plug-In . SVG Version: 6.00 Build 0)  -->
<!DOCTYPE svg PUBLIC "-//W3C//DTD SVG 1.1//EN" "http://www.w3.org/Graphics/SVG/1.1/DTD/svg11.dtd">
<svg version="1.1" id="Layer_1" xmlns="http://www.w3.org/2000/svg" xmlns:xlink="http://www.w3.org/1999/xlink" x="0px" y="0px"
	 viewBox="0 0 24 24" enable-background="new 0 0 24 24" xml:space="preserve">
<g id="Page-1">
	<g id="Core" transform="translate(-127.000000, -128.000000)">
		<g id="content-cut" transform="translate(127.500000, 128.000000)">
			<path id="Shape" d="M19.2,10.5c0.8,1,2.3,1.3,3.4,0.5c1-0.8,1.3-2.3,0.5-3.4s-2.3-1.3-3.4-0.5c-0.3,0.3-0.6,0.4-0.7,0.7l-2.1-0.3
				l0.3-2.1c0.4-0.1,0.6-0.1,0.8-0.4c1-0.8,1.3-2.3,0.5-3.4c-0.8-1-2.3-1.3-3.4-0.5c-1,0.8-1.3,2.3-0.5,3.4c0.3,0.3,0.5,0.6,0.7,0.7
				l-0.3,2.1L9.5,6.5L7.6,8l11.2,1.6C18.7,10,18.9,10.1,19.2,10.5L19.2,10.5z M20.4,8.1c0.6-0.4,1.2-0.4,1.7,0.3
				c0.4,0.6,0.4,1.2-0.3,1.7c-0.6,0.4-1.2,0.4-1.7-0.3C19.7,9.2,19.9,8.5,20.4,8.1L20.4,8.1z M16.1,2.4c0.6-0.4,1.2-0.4,1.7,0.3
				c0.4,0.6,0.4,1.2-0.2,1.7c-0.5,0.3-1.3,0.3-1.7-0.3C15.4,3.5,15.5,2.8,16.1,2.4L16.1,2.4z M16.2,8.5c-0.1,0.1-0.3,0.1-0.5-0.1
				c-0.1-0.1-0.1-0.3,0.1-0.5c0.1-0.1,0.3-0.1,0.5,0.1C16.4,8.4,16.4,8.5,16.2,8.5L16.2,8.5z M14,16.6l2-1.4l0.7-4.9L15,9.9L14,16.6
				L14,16.6z"/>
		</g>
	</g>
</g>
<path d="M20.1,12.6v6.2c-0.2,0.3-0.5,0.5-0.8,0.5h-14c-0.5,0-0.9-0.4-0.9-0.9V1.8c0-0.3,0.2-0.6,0.4-0.8h0.3h6.1v3.9h2.6V4h-1.7V0
	h-0.8H7.7H5.4C5.3,0,5.2,0,5.1,0H2.4C1.2,0,0.3,0.9,0.3,2.1v19.3c0,1.2,0.9,2.1,2.1,2.1H19c1.2,0,2.1-0.9,2.1-2.1v-3.1v-5.7v0H20.1z
	 M19,22.5H2.4c-0.6,0-1.1-0.5-1.1-1.1V2.1C1.3,1.5,1.8,1,2.4,1h1.3C3.6,1.3,3.6,1.5,3.6,1.8v16.5c0,1,0.8,1.8,1.8,1.8h14
	c0.3,0,0.6-0.1,0.8-0.2v1.5C20.1,22,19.6,22.5,19,22.5z"/>
</svg>
