<?xml version="1.0" encoding="utf-8"?>
<!-- Generator: Adobe Illustrator 18.0.0, SVG Export Plug-In . SVG Version: 6.00 Build 0)  -->
<!DOCTYPE svg PUBLIC "-//W3C//DTD SVG 1.1//EN" "http://www.w3.org/Graphics/SVG/1.1/DTD/svg11.dtd">
<svg version="1.1" id="Layer_1" xmlns="http://www.w3.org/2000/svg" xmlns:xlink="http://www.w3.org/1999/xlink" x="0px" y="0px"
	 viewBox="0 0 24 24" enable-background="new 0 0 24 24" xml:space="preserve">
<path d="M21.6,0H6.1C4.8,0,3.7,1,3.6,2.3C2.3,2.4,1.3,3.5,1.3,4.8v16.9c0,1.4,1.1,2.5,2.5,2.5h15.5c1.3,0,2.4-1,2.5-2.3
	c1.3-0.1,2.3-1.2,2.3-2.5V2.5C24.1,1.1,23,0,21.6,0z M19.3,23.1H3.8c-0.8,0-1.5-0.7-1.5-1.5V4.8c0-0.7,0.6-1.4,1.3-1.5v16.1
	c0,1.4,1.1,2.5,2.5,2.5h14.7C20.7,22.6,20.1,23.1,19.3,23.1z M23.1,19.4c0,0.8-0.7,1.5-1.5,1.5H6.1c-0.8,0-1.5-0.7-1.5-1.5V2.5
	C4.6,1.7,5.2,1,6.1,1h15.5c0.8,0,1.5,0.7,1.5,1.5V19.4z"/>
<g id="Page-1">
	<g id="Core" transform="translate(-127.000000, -128.000000)">
		<g id="content-cut" transform="translate(127.500000, 128.000000)">
			<path id="Shape" d="M17,12c0.9,0.9,2.4,1,3.4,0.1c0.9-0.9,1-2.4,0.1-3.4s-2.4-1-3.4-0.1c-0.3,0.3-0.5,0.5-0.6,0.8l-2.1-0.1
				l0.1-2.1c0.4-0.1,0.6-0.2,0.8-0.5c0.9-0.9,1-2.4,0.1-3.4c-0.9-0.9-2.4-1-3.4-0.1c-0.9,0.9-1,2.4-0.1,3.4c0.3,0.3,0.6,0.5,0.8,0.6
				l-0.1,2.1L6.9,9.1l-1.7,1.7l11.3,0.4C16.5,11.6,16.7,11.7,17,12L17,12z M17.9,9.5C18.4,9,19.1,9,19.6,9.6
				c0.5,0.5,0.5,1.2-0.1,1.7c-0.5,0.5-1.2,0.5-1.7-0.1C17.4,10.7,17.5,10,17.9,9.5L17.9,9.5z M13,4.3c0.5-0.5,1.2-0.5,1.7,0.1
				c0.5,0.5,0.5,1.2,0,1.7C14.2,6.5,13.4,6.5,13,6C12.5,5.5,12.5,4.8,13,4.3L13,4.3z M13.8,10.4c-0.1,0.1-0.3,0.1-0.5,0
				c-0.1-0.1-0.1-0.3,0-0.5c0.1-0.1,0.3-0.1,0.5,0C14,10.2,14,10.3,13.8,10.4L13.8,10.4z M12.5,18.6l1.8-1.6l0.2-5l-1.7-0.1
				L12.5,18.6L12.5,18.6z"/>
		</g>
	</g>
</g>
</svg>
