<?xml version="1.0" encoding="utf-8"?>
<!-- Generator: Adobe Illustrator 18.0.0, SVG Export Plug-In . SVG Version: 6.00 Build 0)  -->
<!DOCTYPE svg PUBLIC "-//W3C//DTD SVG 1.1//EN" "http://www.w3.org/Graphics/SVG/1.1/DTD/svg11.dtd">
<svg version="1.1" id="Layer_1" xmlns="http://www.w3.org/2000/svg" xmlns:xlink="http://www.w3.org/1999/xlink" x="0px" y="0px"
	 viewBox="0 0 24 24" enable-background="new 0 0 24 24" xml:space="preserve">
<g>
	<path fill="#FFFFFF" d="M21.7,23.2H2.3c-1.1,0-2-0.9-2-2V1.8c0-1.1,0.9-2,2-2h19.3c1.1,0,2,0.9,2,2v19.3
		C23.7,22.3,22.8,23.2,21.7,23.2z"/>
	<path d="M21.7,23.5H2.3c-1.3,0-2.3-1-2.3-2.3V1.8c0-1.3,1-2.3,2.3-2.3h19.3c1.4,0,2.4,1,2.4,2.3v19.3C24,22.5,23,23.5,21.7,23.5z
		 M2.3,0.2c-0.9,0-1.6,0.7-1.6,1.6v19.3c0,0.9,0.7,1.6,1.6,1.6h19.3c0.9,0,1.6-0.7,1.6-1.6V1.8c0-0.9-0.7-1.6-1.6-1.6
		C21.6,0.2,2.3,0.2,2.3,0.2z"/>
</g>
<g>
	<path d="M2.5,8.1V11h3.3V8.1h0.9v6.7H5.8v-3.2H2.5v3.2H1.6V8.1H2.5z"/>
	<path d="M8.8,8.9h-2V8.1h5v0.7H9.7v6H8.8V8.9z"/>
	<path d="M17.4,11.9c0-0.9-0.1-2.1-0.1-2.9h0c-0.2,0.8-0.5,1.6-0.8,2.6l-1.2,3.3h-0.7l-1.1-3.2c-0.3-0.9-0.6-1.8-0.8-2.6h0
		c0,0.8-0.1,2-0.1,3l-0.2,2.9h-0.8L12,8.1h1.1l1.1,3.3c0.3,0.8,0.5,1.6,0.7,2.3h0c0.2-0.7,0.4-1.4,0.7-2.3l1.2-3.3H18l0.4,6.7h-0.8
		L17.4,11.9z"/>
	<path d="M18.6,8.1h0.9v6h2.9v0.7h-3.7V8.1z"/>
</g>
</svg>
