<?xml version="1.0" encoding="utf-8"?>
<!-- Generator: Adobe Illustrator 18.0.0, SVG Export Plug-In . SVG Version: 6.00 Build 0)  -->
<!DOCTYPE svg PUBLIC "-//W3C//DTD SVG 1.1//EN" "http://www.w3.org/Graphics/SVG/1.1/DTD/svg11.dtd">
<svg version="1.1" id="Layer_1" xmlns="http://www.w3.org/2000/svg" xmlns:xlink="http://www.w3.org/1999/xlink" x="0px" y="0px"
	 viewBox="0 0 24 24" enable-background="new 0 0 24 24" xml:space="preserve">
<path d="M22.8,2.3L22.8,2.3c0-0.1,0-0.1,0-0.2c0,0,0,0,0-0.1c0,0,0,0,0-0.1c0,0,0,0,0-0.1c0,0,0-0.1-0.1-0.1l0,0l0,0l-0.1-0.1
	c0,0,0,0-0.1,0c0,0,0,0-0.1,0c0,0,0,0-0.1,0c0,0,0,0-0.1,0h-0.1h-4.2c-0.4,0-0.7,0.3-0.7,0.7S17.5,3,17.9,3h2.5l-5.7,5.7
	c-0.3,0.3-0.3,0.7,0,1s0.7,0.3,1,0L21.4,4v2.5c0,0.4,0.3,0.7,0.7,0.7c0.4,0,0.7-0.3,0.7-0.7L22.8,2.3L22.8,2.3z"/>
<path fill="none" stroke="#000000" stroke-miterlimit="10" d="M17.5,12h5.8v2.6v6.9c0,0.9-0.7,1.6-1.6,1.6H2.4
	c-0.9,0-1.6-0.7-1.6-1.6V2.2c0-0.9,0.7-1.6,1.6-1.6c0,0,3.8,0,7,0v4.7h4.7"/>
</svg>
