<?xml version="1.0" encoding="utf-8"?>
<!-- Generator: Adobe Illustrator 18.0.0, SVG Export Plug-In . SVG Version: 6.00 Build 0)  -->
<!DOCTYPE svg PUBLIC "-//W3C//DTD SVG 1.1//EN" "http://www.w3.org/Graphics/SVG/1.1/DTD/svg11.dtd">
<svg version="1.1" id="Layer_1" xmlns="http://www.w3.org/2000/svg" xmlns:xlink="http://www.w3.org/1999/xlink" x="0px" y="0px"
	 viewBox="0 0 24 24" enable-background="new 0 0 24 24" xml:space="preserve">
<path d="M17.4,4.4c-0.1-0.2-0.2-0.5-0.3-0.7C16,1,13.6,0,11.6,0c-2.7,0-5.6,1.8-6,5.5v0.8c0,0,0,0.3,0,0.5c0.2,1.8,1.6,3.6,2.6,5.4
	c1.1,1.9,2.3,3.7,3.4,5.6c0.7-1.2,1.4-2.4,2.1-3.6c0.2-0.3,0.4-0.7,0.6-1c0.1-0.2,0.4-0.4,0.5-0.6c1.1-2,2.9-4.1,2.9-6.1V5.4
	C17.7,5.2,17.5,4.4,17.4,4.4z M11.6,9.9c-2.2,0-4-1.8-4-4s1.8-4,4-4c2.2,0,4,1.8,4,4C15.6,8.2,13.8,9.9,11.6,9.9z"/>
<path fill="none" stroke="#000000" stroke-miterlimit="10" d="M18.7,4.6c1.2,0,2.1,0.9,2.1,2.1v14.2c0,1.2-0.9,2.1-2.1,2.1H4.5
	c-1.2,0-2.1-0.9-2.1-2.1V6.7c0-1.2,0.9-2.1,2.1-2.1"/>
</svg>
