<?xml version="1.0" encoding="utf-8"?>
<!-- Generator: Adobe Illustrator 18.0.0, SVG Export Plug-In . SVG Version: 6.00 Build 0)  -->
<!DOCTYPE svg PUBLIC "-//W3C//DTD SVG 1.1//EN" "http://www.w3.org/Graphics/SVG/1.1/DTD/svg11.dtd">
<svg version="1.1" id="Layer_1" xmlns="http://www.w3.org/2000/svg" xmlns:xlink="http://www.w3.org/1999/xlink" x="0px" y="0px"
	 viewBox="0 0 24 24" enable-background="new 0 0 24 24" xml:space="preserve">
<g>
	<path d="M20.9,16.3H3c-1.4,0-2.5-1.1-2.5-2.5v-3.3C0.5,9.1,1.6,8,3,8h17.9c1.4,0,2.5,1.1,2.5,2.5v3.3
		C23.4,15.2,22.3,16.3,20.9,16.3z M3,9c-0.8,0-1.5,0.7-1.5,1.5v3.3c0,0.8,0.7,1.5,1.5,1.5h17.9c0.8,0,1.5-0.7,1.5-1.5v-3.3
		c0-0.8-0.7-1.5-1.5-1.5H3z"/>
</g>
<circle cx="18.3" cy="12.1" r="6.2"/>
</svg>
