<?xml version="1.0" encoding="utf-8"?>
<!-- Generator: Adobe Illustrator 18.0.0, SVG Export Plug-In . SVG Version: 6.00 Build 0)  -->
<!DOCTYPE svg PUBLIC "-//W3C//DTD SVG 1.1//EN" "http://www.w3.org/Graphics/SVG/1.1/DTD/svg11.dtd">
<svg version="1.1" id="Layer_1" xmlns="http://www.w3.org/2000/svg" xmlns:xlink="http://www.w3.org/1999/xlink" x="0px" y="0px"
	 viewBox="0 0 24 24" enable-background="new 0 0 24 24" xml:space="preserve">
<g>
	<path d="M21.7,23.6H2.4c-1.2,0-2.1-0.9-2.1-2.1V2.2c0-1.2,0.9-2.1,2.1-2.1h7v1h-7c-0.6,0-1.1,0.5-1.1,1.1v19.3
		c0,0.6,0.5,1.1,1.1,1.1h19.3c0.6,0,1.1-0.5,1.1-1.1V5.3h1v16.2C23.8,22.7,22.9,23.6,21.7,23.6z"/>
</g>
<g>
	<polyline fill="#FFFFFF" points="5.1,0.6 9.8,0.6 9.8,5.3 12.3,5.3 	"/>
	<polygon points="12.3,5.8 9.3,5.8 9.3,1.1 5.1,1.1 5.1,0.1 10.3,0.1 10.3,4.8 12.3,4.8 	"/>
</g>
<g>
	<g>
		<polygon points="12.9,13.7 21.3,5.4 18.8,2.9 10.4,11.1 		"/>
		<polygon points="9.4,10 9.8,10.5 18.1,2.3 17.7,1.8 		"/>
		<path d="M22.4,3.9l-3.2-3.2c-0.1-0.1-0.3-0.2-0.4-0.1l-0.5,0.5l3.6,3.7l0.5-0.5C22.5,4.2,22.5,4,22.4,3.9z"/>
		<path d="M8.7,10.6L8.3,11c-0.1,0.1-0.1,0.3,0.1,0.4l3.2,3.2c0.1,0.1,0.3,0.2,0.4,0.1l0.4-0.4L8.7,10.6z"/>
	</g>
	<g>
		<path d="M10.9,14.5c0.5,0.5,0.3,1-0.3,1.2l-3,0.7c-0.7,0.2-1.1-0.3-1-1l0.7-3.1C7.4,11.7,8,11.5,8.5,12L10.9,14.5z"/>
	</g>
</g>
</svg>
