<?xml version="1.0" encoding="utf-8"?>
<!-- Generator: Adobe Illustrator 18.0.0, SVG Export Plug-In . SVG Version: 6.00 Build 0)  -->
<!DOCTYPE svg PUBLIC "-//W3C//DTD SVG 1.1//EN" "http://www.w3.org/Graphics/SVG/1.1/DTD/svg11.dtd">
<svg version="1.1" id="Layer_1" xmlns="http://www.w3.org/2000/svg" xmlns:xlink="http://www.w3.org/1999/xlink" x="0px" y="0px"
	 viewBox="0 0 24 24" enable-background="new 0 0 24 24" xml:space="preserve">
<path d="M23.8,1.7c0-0.1,0-0.1,0-0.2V1.4V1.3V1.2V1.1L23.7,1l0,0l0,0l-0.1-0.1h-0.1h-0.1h-0.1h-0.1c-0.1,0-0.1,0-0.2,0h-6.4
	c-0.6,0-1.1,0.5-1.1,1.1s0.5,1.1,1.1,1.1h3.8l-8.7,8.7c-0.4,0.4-0.4,1.1,0,1.5s1.1,0.4,1.5,0l8.7-8.7V8c0,0.6,0.5,1.1,1.1,1.1
	s1.1-0.5,1.1-1.1L23.8,1.7L23.8,1.7z"/>
<g>
	<path d="M21.7,23.6H2.4c-1.2,0-2.1-0.9-2.1-2.1V2.2c0-1.2,0.9-2.1,2.1-2.1h10v1h-10c-0.6,0-1.1,0.5-1.1,1.1v19.3
		c0,0.6,0.5,1.1,1.1,1.1h19.3c0.6,0,1.1-0.5,1.1-1.1v-8.9h1v8.9C23.8,22.7,22.9,23.6,21.7,23.6z"/>
</g>
</svg>
