<?xml version="1.0" encoding="utf-8"?>
<!-- Generator: Adobe Illustrator 18.0.0, SVG Export Plug-In . SVG Version: 6.00 Build 0)  -->
<!DOCTYPE svg PUBLIC "-//W3C//DTD SVG 1.1//EN" "http://www.w3.org/Graphics/SVG/1.1/DTD/svg11.dtd">
<svg version="1.1" id="Layer_1" xmlns="http://www.w3.org/2000/svg" xmlns:xlink="http://www.w3.org/1999/xlink" x="0px" y="0px"
	 viewBox="0 0 24 24" enable-background="new 0 0 24 24" xml:space="preserve">
<path d="M21.6,0H6.1C4.8,0,3.7,1,3.6,2.3C2.3,2.4,1.3,3.5,1.3,4.8v16.9c0,1.4,1.1,2.5,2.5,2.5h15.5c1.3,0,2.4-1,2.5-2.3
	c1.3-0.1,2.3-1.2,2.3-2.5V2.5C24.1,1.1,23,0,21.6,0z M19.3,23.1H3.8c-0.8,0-1.5-0.7-1.5-1.5V4.8c0-0.7,0.6-1.4,1.3-1.5v16.1
	c0,1.4,1.1,2.5,2.5,2.5h14.7C20.7,22.6,20.1,23.1,19.3,23.1z M23.1,19.4c0,0.8-0.7,1.5-1.5,1.5H6.1c-0.8,0-1.5-0.7-1.5-1.5V2.5
	C4.6,1.7,5.2,1,6.1,1h15.5c0.8,0,1.5,0.7,1.5,1.5V19.4z"/>
<polygon points="14,3.6 16.3,8.3 21.5,9.1 17.8,12.8 18.6,18 14,15.6 9.3,18 10.2,12.8 6.4,9.1 11.6,8.3 "/>
</svg>
