<?xml version="1.0" encoding="utf-8"?>
<!-- Generator: Adobe Illustrator 18.0.0, SVG Export Plug-In . SVG Version: 6.00 Build 0)  -->
<!DOCTYPE svg PUBLIC "-//W3C//DTD SVG 1.1//EN" "http://www.w3.org/Graphics/SVG/1.1/DTD/svg11.dtd">
<svg version="1.1" id="Layer_1" xmlns="http://www.w3.org/2000/svg" xmlns:xlink="http://www.w3.org/1999/xlink" x="0px" y="0px"
	 viewBox="0 0 24 24" enable-background="new 0 0 24 24" xml:space="preserve">
<g>
	<path fill="#010101" d="M21.7,24.1H2.3C1,24.1,0,23,0,21.7V2.4C0,1.1,1,0,2.3,0h19.3C23,0,24,1.1,24,2.4v19.3
		c0.1,0.6-0.1,1.2-0.6,1.6C23,23.8,22.4,24.1,21.7,24.1z M2.3,0.8c-0.9,0-1.6,0.7-1.6,1.6v19.3c0,0.9,0.7,1.6,1.6,1.6h19.4
		c0.4,0,0.9-0.2,1.2-0.5c0.3-0.3,0.4-0.7,0.4-1.1l0-19.3c0-0.9-0.7-1.6-1.6-1.6H2.3z"/>
</g>
</svg>
