<?xml version="1.0" encoding="utf-8"?>
<!-- Generator: Adobe Illustrator 18.0.0, SVG Export Plug-In . SVG Version: 6.00 Build 0)  -->
<!DOCTYPE svg PUBLIC "-//W3C//DTD SVG 1.1//EN" "http://www.w3.org/Graphics/SVG/1.1/DTD/svg11.dtd">
<svg version="1.1" id="Layer_1" xmlns="http://www.w3.org/2000/svg" xmlns:xlink="http://www.w3.org/1999/xlink" x="0px" y="0px"
	 viewBox="0 0 24 24" enable-background="new 0 0 24 24" xml:space="preserve">
<path d="M20.8,9V19c-0.2,0.3-0.5,0.5-0.8,0.5H6c-0.5,0-0.9-0.4-0.9-0.9V2c0-0.3,0.2-0.6,0.4-0.8h0.3h6.1v3.9h2.6V4.3h-1.7v-4H12H8.3
	H6c-0.1,0-0.2,0-0.3,0H3.1C1.9,0.3,1,1.2,1,2.4v19.3c0,1.2,0.9,2.1,2.1,2.1h16.6c1.2,0,2.1-0.9,2.1-2.1v-3.1V9v0H20.8z M19.7,22.8
	H3.1c-0.6,0-1.1-0.5-1.1-1.1V2.4c0-0.6,0.5-1.1,1.1-1.1h1.3C4.3,1.5,4.2,1.8,4.2,2v16.5c0,1,0.8,1.8,1.8,1.8h14
	c0.3,0,0.6-0.1,0.8-0.2v1.5C20.8,22.3,20.3,22.8,19.7,22.8z"/>
<path d="M16,1.8c-0.4,0.1-0.7,0.5-0.7,0.9c0.1,0.4,0.5,0.7,0.9,0.7L18.6,3l-5.3,7.2c-0.3,0.3-0.2,0.8,0.2,1.1s0.8,0.2,1.1-0.2
	L20,3.7l0.2,2.9c0.1,0.4,0.5,0.7,0.9,0.7c0.5,0,0.8-0.5,0.7-1l-0.6-4.7C21.3,1.2,21,1,20.6,1L16,1.8z"/>
</svg>
