<?xml version="1.0" encoding="utf-8"?>
<!-- Generator: Adobe Illustrator 18.0.0, SVG Export Plug-In . SVG Version: 6.00 Build 0)  -->
<!DOCTYPE svg PUBLIC "-//W3C//DTD SVG 1.1//EN" "http://www.w3.org/Graphics/SVG/1.1/DTD/svg11.dtd">
<svg version="1.1" id="Layer_1" xmlns="http://www.w3.org/2000/svg" xmlns:xlink="http://www.w3.org/1999/xlink" x="0px" y="0px"
	 viewBox="0 0 24 24" enable-background="new 0 0 24 24" xml:space="preserve">
<g>
	<path d="M21.7,23.6H2.4c-1.2,0-2.1-0.9-2.1-2.1V2.2c0-1.2,0.9-2.1,2.1-2.1h7.5v4.3l4,0.1l0,1l-5-0.1V1.1H2.4
		c-0.6,0-1.1,0.5-1.1,1.1v19.3c0,0.6,0.5,1.1,1.1,1.1h19.3c0.6,0,1.1-0.5,1.1-1.1V13h1v8.5C23.8,22.7,22.9,23.6,21.7,23.6z"/>
</g>
<path fill="none" stroke="#000000" stroke-miterlimit="10" d="M22.9,10.4"/>
<path fill="none" stroke="#000000" stroke-miterlimit="10" d="M15.3,2.1"/>
<path fill="none" stroke="#000000" stroke-miterlimit="10" d="M15.3,10.4"/>
<path fill="none" stroke="#000000" stroke-miterlimit="10" d="M22.9,2.1"/>
<g>
	<rect x="14.5" y="7.4" transform="matrix(0.7564 0.6541 -0.6541 0.7564 9.8517 -10.7161)" width="9.6" height="1"/>
</g>
<g>
	<rect x="18.8" y="3.1" transform="matrix(0.654 0.7565 -0.7565 0.654 12.6338 -11.8872)" width="1" height="9.6"/>
</g>
</svg>
