<?xml version="1.0" encoding="utf-8"?>
<!-- Generator: Adobe Illustrator 18.0.0, SVG Export Plug-In . SVG Version: 6.00 Build 0)  -->
<!DOCTYPE svg PUBLIC "-//W3C//DTD SVG 1.1//EN" "http://www.w3.org/Graphics/SVG/1.1/DTD/svg11.dtd">
<svg version="1.1" id="Layer_1" xmlns="http://www.w3.org/2000/svg" xmlns:xlink="http://www.w3.org/1999/xlink" x="0px" y="0px"
	 viewBox="0 0 24 24" enable-background="new 0 0 24 24" xml:space="preserve">
<path fill="#FFFFFF" stroke="#000000" stroke-width="0.75" stroke-miterlimit="10" d="M21.7,23.7H2.3c-1.1,0-2-0.9-2-2V2.4
	c0-1.1,0.9-2,2-2h19.3c1.1,0,2,0.9,2,2v19.3C23.7,22.8,22.8,23.7,21.7,23.7z"/>
<path d="M3.5,21.6L3.5,21.6c-0.4,0-0.8-0.4-0.8-0.8V3.4C2.7,3,3,2.6,3.5,2.6h0c0.4,0,0.8,0.4,0.8,0.8v17.4
	C4.3,21.2,3.9,21.6,3.5,21.6z"/>
<path d="M20.3,21.6L20.3,21.6c-0.4,0-0.8-0.4-0.8-0.8V3.4c0-0.4,0.4-0.8,0.8-0.8h0c0.4,0,0.8,0.4,0.8,0.8v17.4
	C21.1,21.2,20.8,21.6,20.3,21.6z"/>
</svg>
