<?xml version="1.0" encoding="utf-8"?>
<!-- Generator: Adobe Illustrator 18.0.0, SVG Export Plug-In . SVG Version: 6.00 Build 0)  -->
<!DOCTYPE svg PUBLIC "-//W3C//DTD SVG 1.1//EN" "http://www.w3.org/Graphics/SVG/1.1/DTD/svg11.dtd">
<svg version="1.1" id="Layer_1" xmlns="http://www.w3.org/2000/svg" xmlns:xlink="http://www.w3.org/1999/xlink" x="0px" y="0px"
	 viewBox="0 0 16 16" enable-background="new 0 0 16 16" xml:space="preserve">
<g opacity="0.3" enable-background="new    ">
	<path d="M13.4,15.8H2.6c-1.3,0-2.4-1.1-2.4-2.4V2.6c0-1.3,1.1-2.4,2.4-2.4h10.9c1.3,0,2.4,1.1,2.4,2.4v10.9
		C15.8,14.8,14.7,15.8,13.4,15.8z M2.6,1C1.7,1,0.9,1.7,0.9,2.6v10.9c0,0.9,0.7,1.6,1.6,1.6h10.9c0.9,0,1.6-0.7,1.6-1.6V2.6
		c0-0.9-0.7-1.6-1.6-1.6H2.6z"/>
</g>
<path opacity="0.8" fill="#FFFFFF" enable-background="new    " d="M13.4,15.5H2.6c-1.1,0-2-0.9-2-2V2.6c0-1.1,0.9-2,2-2h10.9
	c1.1,0,2,0.9,2,2v10.9C15.4,14.6,14.5,15.5,13.4,15.5z"/>
<rect x="2.5" y="3.9" width="10.8" height="0.7"/>
<rect x="2.5" y="12.5" width="3.3" height="0.7"/>
<rect x="2.5" y="7.7" width="3.9" height="0.7"/>
<path d="M12.6,7.7H7.7v0.7h4.9c0.5,0,1,0.5,1,1v2.4c0,0.5-0.5,1-1,1h-2.4H9.8v-0.8c0-0.2-0.1-0.3-0.3-0.2l-1.9,1.1
	c-0.2,0.1-0.2,0.3,0,0.4l1.9,1.1c0.1,0.1,0.3,0,0.3-0.2v-0.7h2.8c0.9,0,1.7-0.7,1.7-1.7V9.3C14.3,8.4,13.5,7.7,12.6,7.7z"/>
</svg>
