<?xml version="1.0" encoding="utf-8"?>
<!-- Generator: Adobe Illustrator 18.0.0, SVG Export Plug-In . SVG Version: 6.00 Build 0)  -->
<!DOCTYPE svg PUBLIC "-//W3C//DTD SVG 1.1//EN" "http://www.w3.org/Graphics/SVG/1.1/DTD/svg11.dtd">
<svg version="1.1" id="Layer_1" xmlns="http://www.w3.org/2000/svg" xmlns:xlink="http://www.w3.org/1999/xlink" x="0px" y="0px"
	 viewBox="0 0 16 16" enable-background="new 0 0 16 16" xml:space="preserve">
<path opacity="0.8" fill="#FFFFFF" enable-background="new    " d="M13.4,15.2H2.6c-1.1,0-1.8-0.8-1.8-1.9V2.6
	c0-1.1,0.7-1.8,1.8-1.8h10.8c1.1,0,1.7,0.7,1.7,1.8l0.1,10.6C15.2,14.5,14.5,15.2,13.4,15.2z"/>
<g opacity="0.5" enable-background="new    ">
	<path d="M13.4,15.8h-11c-1.3,0-2.3-1-2.3-2.3v-11c0-1.3,1-2.3,2.3-2.3h11.1c1.3,0,2.3,1,2.3,2.3v11.1
		C15.7,14.8,14.7,15.8,13.4,15.8z M2.4,0.9c-0.9,0-1.6,0.7-1.6,1.6v11.1c0,0.9,0.7,1.6,1.6,1.6h11.1c0.9,0,1.6-0.7,1.6-1.6V2.5
		c0-0.9-0.7-1.6-1.6-1.6H2.4z"/>
</g>
<g id="Arrow_10">
</g>
<g>
	<g opacity="0.8">
		<path d="M2.2,11.9v-1.1L5,8.6c0.2-0.1,0.2-0.4,0-0.5L2.2,5.8V4.7L6.5,8c0.2,0.2,0.2,0.3,0,0.6L2.2,11.9z"/>
	</g>
	<g opacity="0.8">
		<path d="M5.8,11.9v-1.1l2.8-2.3c0.2-0.1,0.2-0.4,0-0.5L5.8,5.8V4.7L10.2,8c0.2,0.2,0.2,0.3,0,0.6L5.8,11.9z"/>
	</g>
	<g opacity="0.8">
		<path d="M9.3,11.9v-1.1l2.8-2.3c0.2-0.1,0.2-0.4,0-0.5L9.3,5.8V4.7L13.7,8c0.2,0.2,0.2,0.3,0,0.6L9.3,11.9z"/>
	</g>
</g>
</svg>
