<?xml version="1.0" encoding="utf-8"?>
<!-- Generator: Adobe Illustrator 18.0.0, SVG Export Plug-In . SVG Version: 6.00 Build 0)  -->
<!DOCTYPE svg PUBLIC "-//W3C//DTD SVG 1.1//EN" "http://www.w3.org/Graphics/SVG/1.1/DTD/svg11.dtd">
<svg version="1.1" id="Layer_1" xmlns="http://www.w3.org/2000/svg" xmlns:xlink="http://www.w3.org/1999/xlink" x="0px" y="0px"
	 viewBox="0 0 16 16" enable-background="new 0 0 16 16" xml:space="preserve">
<path opacity="0.15" enable-background="new    " d="M1.2,14.6c0.2,0.4,0.6,0.6,1.4,0.6h10.6c1.2,0,2-0.6,1.9-1.8l0-11.1
	c0-0.3-0.3-0.8-0.4-0.8L1.2,14.6z"/>
<path opacity="0.7" fill="#FFFFFF" enable-background="new    " d="M14.8,1.5c-0.3-0.3-0.9-0.7-1.3-0.7h-11C1.2,1,0.8,1.6,0.8,2.9
	v11.2C1,14.4,1,14.5,1.2,14.7L14.8,1.5z"/>
<g opacity="0.8" enable-background="new    ">
	<path d="M13.4,15.8h-11c-1.3,0-2.3-1-2.3-2.3v-11c0-1.3,1-2.3,2.3-2.3h11.1c1.3,0,2.3,1,2.3,2.3v11.1
		C15.7,14.8,14.7,15.8,13.4,15.8z M2.4,0.9c-0.9,0-1.6,0.7-1.6,1.6v11.1c0,0.9,0.7,1.6,1.6,1.6h11.1c0.9,0,1.6-0.7,1.6-1.6V2.5
		c0-0.9-0.7-1.6-1.6-1.6H2.4z"/>
</g>
<g id="Arrow_10">
</g>
<g opacity="0.8">
	<path d="M1.6,11.9v-1.1l3.1-2.5L1.6,5.8V4.7l4.3,3.2v1L1.6,11.9z"/>
</g>
<g opacity="0.8">
	<path d="M5.6,11.9v-1.1l3.1-2.5L5.6,5.8V4.7l4.3,3.2v1L5.6,11.9z"/>
</g>
<g opacity="0.8">
	<path d="M9.7,11.9v-1.1l3.1-2.5L9.7,5.8V4.7L14,7.9v1L9.7,11.9z"/>
</g>
</svg>
