<?xml version="1.0" encoding="utf-8"?>
<!-- Generator: Adobe Illustrator 18.0.0, SVG Export Plug-In . SVG Version: 6.00 Build 0)  -->
<!DOCTYPE svg PUBLIC "-//W3C//DTD SVG 1.1//EN" "http://www.w3.org/Graphics/SVG/1.1/DTD/svg11.dtd">
<svg version="1.1" id="Layer_1" xmlns="http://www.w3.org/2000/svg" xmlns:xlink="http://www.w3.org/1999/xlink" x="0px" y="0px"
	 viewBox="0 0 16 16" enable-background="new 0 0 16 16" xml:space="preserve">
<path opacity="0.8" fill="#FFFFFF" enable-background="new    " d="M13.5,2.3H7.8c0-1-0.8-1.8-1.8-1.8H2.5c-1,0-1.8,0.8-1.8,1.8
	v11.3c0,1,0.8,1.8,1.8,1.8h2.4H6h7.5c1,0,1.8-0.8,1.8-1.8V4.1C15.3,3.1,14.4,2.3,13.5,2.3z"/>
<path opacity="0.5" fill="none" stroke="#000000" stroke-miterlimit="10" enable-background="new    " d="M13.5,2.3H7.8
	c0-1-0.8-1.8-1.8-1.8H2.5c-1,0-1.8,0.8-1.8,1.8v11.3c0,1,0.8,1.8,1.8,1.8h2.4H6h7.5c1,0,1.8-0.8,1.8-1.8V4.1
	C15.3,3.1,14.4,2.3,13.5,2.3z"/>
<path opacity="0.5" enable-background="new    " d="M13.5,4.1H6.1c-1.1,0-2,0.6-2.2,1.6v0.2v7.8c0,0.7-0.6,1.3-1.3,1.3h1.9
	c0.1-0.2,0.2-0.6,0.2-1.3V6.4C4.8,5.6,5.4,5,6.1,5h7.4c0.7,0,1.3,0.6,1.3,1.3V4.5C14.8,4.3,13.9,4.1,13.5,4.1z"/>
<polygon opacity="0.8" fill="#D33737" enable-background="new    " points="13.3,7.4 12.6,6.7 9.9,9.3 7.2,6.7 6.5,7.4 9.2,10 
	6.5,12.7 7.2,13.4 9.9,10.7 12.6,13.4 13.3,12.7 10.6,10 "/>
</svg>
