<?xml version="1.0" encoding="utf-8"?>
<!-- Generator: Adobe Illustrator 18.0.0, SVG Export Plug-In . SVG Version: 6.00 Build 0)  -->
<!DOCTYPE svg PUBLIC "-//W3C//DTD SVG 1.1//EN" "http://www.w3.org/Graphics/SVG/1.1/DTD/svg11.dtd">
<svg version="1.1" id="Layer_1" xmlns="http://www.w3.org/2000/svg" xmlns:xlink="http://www.w3.org/1999/xlink" x="0px" y="0px"
	 viewBox="0 0 16 16" enable-background="new 0 0 16 16" xml:space="preserve">
<g opacity="0.5" enable-background="new    ">
	<path d="M0.2,13.4V2.6c0-1.3,1.1-2.4,2.4-2.4h10.8c1.3,0,2.4,1.1,2.4,2.4v10.7c0,1.3-0.8,2.4-2.4,2.4H2.6
		C1.3,15.7,0.2,14.6,0.2,13.4z M2.6,1C1.7,1,1,1.7,1,2.6v10.8C1,14.3,1.7,15,2.6,15h10.8c0.9,0,1.5-0.7,1.5-1.6V2.6
		C15,1.7,14.4,1,13.5,1H2.6z"/>
</g>
<path opacity="0.8" fill="#FFFFFF" enable-background="new    " d="M0.8,13.3V2.8c0-1.1,0.9-1.9,1.9-1.9h10.4c1.1,0,1.9,0.9,1.9,1.9
	v10.4c0,1.1-0.9,1.9-1.9,1.9H2.9C1.8,15.1,0.9,14.3,0.8,13.3z"/>
<polygon opacity="0.8" fill="#D33737" enable-background="new    " points="12.7,4.2 11.7,3.2 7.9,6.9 4.2,3.2 3.2,4.2 7,7.9 
	3.2,11.7 4.2,12.6 7.9,8.9 11.7,12.6 12.7,11.7 8.9,7.9 "/>
</svg>
