<?xml version="1.0" encoding="utf-8"?>
<!-- Generator: Adobe Illustrator 18.0.0, SVG Export Plug-In . SVG Version: 6.00 Build 0)  -->
<!DOCTYPE svg PUBLIC "-//W3C//DTD SVG 1.1//EN" "http://www.w3.org/Graphics/SVG/1.1/DTD/svg11.dtd">
<svg version="1.1" id="Layer_1" xmlns="http://www.w3.org/2000/svg" xmlns:xlink="http://www.w3.org/1999/xlink" x="0px" y="0px"
	 viewBox="0 0 16 16" enable-background="new 0 0 16 16" xml:space="preserve">
<g opacity="0.3" enable-background="new    ">
	<path d="M0.2,11.1V2.2c0-1.1,0.9-2,2-2H11c1.1,0,2,0.9,2,2V11c0,1.1-0.7,2-2,2H2.2C1.1,12.9,0.2,12,0.2,11.1z M2.2,0.9
		c-0.7,0-1.3,0.6-1.3,1.3v8.9c0,0.7,0.6,1.3,1.3,1.3h8.9c0.7,0,1.2-0.6,1.2-1.3V2.2c0-0.7-0.5-1.3-1.2-1.3H2.2z"/>
</g>
<path opacity="0.8" fill="#FFFFFF" enable-background="new    " d="M0.5,11.1V2.2c0-0.9,0.7-1.6,1.6-1.6H11c0.9,0,1.6,0.7,1.6,1.6
	V11c0,0.9-0.7,1.6-1.6,1.6H2.2C1.3,12.6,0.6,11.9,0.5,11.1z"/>
<path opacity="0.8" fill="#FFFFFF" enable-background="new    " d="M14.1,3.3H13v8c-0.3,1.4-1.1,1.4-1.8,1.6H3.7v0.6
	c-0.1,1.3,0.6,1.9,1.5,1.9h8.7c1.8,0,1.7-1.1,1.7-1.9V4.9C15.6,4,14.9,3.3,14.1,3.3z"/>
<path opacity="0.3" d="M14.1,3h-1.1v0.7h1.2c0.7,0,1.2,0.6,1.2,1.3v8.9c0,0.7-0.5,1.3-1.2,1.3H5.2c-0.7,0-1.3-0.6-1.3-1.3v-1H3.2v1
	c0.1,1,1,1.9,2,1.9h8.8c1.1,0,2-0.9,2-2V5C16,3.9,15.1,3,14.1,3z"/>
<polygon fill="#D33737" points="10.5,3.5 9.7,2.7 6.6,5.7 3.4,2.7 2.6,3.5 5.8,6.5 2.6,9.6 3.4,10.4 6.6,7.3 9.7,10.4 10.5,9.6 
	7.4,6.5 "/>
</svg>
