<?xml version="1.0" encoding="utf-8"?>
<!-- Generator: Adobe Illustrator 18.0.0, SVG Export Plug-In . SVG Version: 6.00 Build 0)  -->
<!DOCTYPE svg PUBLIC "-//W3C//DTD SVG 1.1//EN" "http://www.w3.org/Graphics/SVG/1.1/DTD/svg11.dtd">
<svg version="1.1" id="Layer_1" xmlns="http://www.w3.org/2000/svg" xmlns:xlink="http://www.w3.org/1999/xlink" x="0px" y="0px"
	 viewBox="0 0 16 16" enable-background="new 0 0 16 16" xml:space="preserve">
<path opacity="0.8" fill="#FFFFFF" enable-background="new    " d="M11.9,2.2h-0.7c-0.2-0.3-0.6-0.5-0.9-0.5H8.5V1.2
	c0-0.5-0.5-0.5-0.8-0.5h-3C4.5,0.6,4,0.6,4,1.2v0.6H2c-0.7,0-1.3,0.7-1.3,1.5V13c0,0.6,0.3,1.1,0.7,1.3c0,0.9,0.7,1.6,1.6,1.6h8.8
	c0.9,0,1.6-0.8,1.6-1.8V4C13.5,3,12.7,2.2,11.9,2.2z M10.2,14.5c0.7,0,1.3-0.7,1.3-1.5V3.2c0-0.1,0-0.2,0-0.3h0.4
	c0.5,0,0.9,0.5,0.9,1v10.2c0,0.6-0.4,1.1-0.9,1.1H3.1c-0.4,0-0.8-0.2-0.9-0.7H10.2z"/>
<g opacity="0.8">
	<g>
		<path fill="#050202" d="M10.5,4.8c0,0.1-0.2,0.2-0.4,0.2H2.1c-0.2,0-0.4-0.1-0.4-0.2V4.3c0-0.1,0.2-0.2,0.4-0.2h8.1
			c0.2,0,0.4,0.1,0.4,0.2V4.8L10.5,4.8z"/>
	</g>
	<g>
		<path fill="#050202" d="M10.5,8.3c0,0.1-0.2,0.2-0.4,0.2H2.1c-0.2,0-0.4-0.1-0.4-0.2V7.8c0-0.1,0.2-0.2,0.4-0.2h8.1
			c0.2,0,0.4,0.1,0.4,0.2V8.3L10.5,8.3z"/>
	</g>
	<g>
		<path fill="#050202" d="M10.5,12.2c0,0.1-0.2,0.2-0.4,0.2H2.1c-0.2,0-0.4-0.1-0.4-0.2v-0.4c0-0.1,0.2-0.2,0.4-0.2h8.1
			c0.2,0,0.4,0.1,0.4,0.2V12.2L10.5,12.2z"/>
	</g>
</g>
<g opacity="0.8">
	<path fill="#050505" d="M10.3,14.8H1.8c-0.7,0-1.3-0.7-1.3-1.6V3.1c0-0.8,0.6-1.5,1.3-1.5h2V1c0-0.6,0.6-0.6,0.8-0.6h3.1
		c0.3,0,0.8,0,0.8,0.6v0.6h1.8c0.7,0,1.4,0.7,1.4,1.5v10.1C11.7,14.1,11,14.8,10.3,14.8z M1.8,1.8c-0.6,0-1.1,0.6-1.1,1.3v10.1
		c0,0.7,0.5,1.3,1.1,1.3h8.5c0.6,0,1.1-0.6,1.1-1.3V3.1c0-0.7-0.5-1.3-1.1-1.3h-2V1c0-0.2-0.1-0.3-0.5-0.3H4.6
		C4.2,0.7,4.1,0.8,4.1,1v0.8H1.8z"/>
</g>
<g opacity="0.8">
	<path fill="#050505" d="M12.1,15.9H3c-0.8,0-1.6-0.5-1.6-1.4h0.3c0,0.8,0.7,1.1,1.3,1.1h9.1c0.6,0,1.2-0.6,1.2-1.4V3.7
		c0-0.7-0.6-1.3-1.2-1.3h-0.7V2.2h0.7c0.8,0,1.4,0.7,1.4,1.6v10.6C13.5,15.1,12.8,15.9,12.1,15.9z"/>
</g>
<g opacity="0.8">
	<path fill="#050202" d="M7.9,1.6C7.9,1.8,7.8,2,7.6,2H5.1C4.9,2,4.8,1.8,4.8,1.6l0,0c0-0.2,0.1-0.4,0.2-0.4h2.6
		C7.8,1.2,7.9,1.4,7.9,1.6L7.9,1.6z"/>
</g>
</svg>
