<?xml version="1.0" encoding="utf-8"?>
<!-- Generator: Adobe Illustrator 18.0.0, SVG Export Plug-In . SVG Version: 6.00 Build 0)  -->
<!DOCTYPE svg PUBLIC "-//W3C//DTD SVG 1.1//EN" "http://www.w3.org/Graphics/SVG/1.1/DTD/svg11.dtd">
<svg version="1.1" id="Layer_1" xmlns="http://www.w3.org/2000/svg" xmlns:xlink="http://www.w3.org/1999/xlink" x="0px" y="0px"
	 viewBox="0 0 16 16" enable-background="new 0 0 16 16" xml:space="preserve">
<g id="Arrow_10">
</g>
<polygon opacity="0.8" fill="#FFFFFF" points="15.5,15.5 5.5,15.5 5.5,3.1 11.6,3.1 15.5,6.3 "/>
<path opacity="0.3" enable-background="new    " d="M11.7,2.8H5.2v13h10.6V6.2L11.7,2.8z M11.8,3.7l3,2.5h-3V3.7z M5.8,15.2V3.4h5.3
	v3.3h4.1v8.4C15.2,15.2,5.8,15.2,5.8,15.2z"/>
<g opacity="0.3">
	<rect x="7.2" y="8.1" width="6.6" height="0.8"/>
</g>
<g opacity="0.3">
	<rect x="8.1" y="10.1" width="4.2" height="0.8"/>
</g>
<g opacity="0.3">
	<rect x="7.1" y="12.3" width="6.8" height="0.8"/>
</g>
<polygon fill="#1AAA00" points="4.5,2.3 8.7,2.3 6.4,0.3 0.3,0.3 0.3,12.7 4.5,12.7 "/>
<g opacity="0.3">
	<rect x="2" y="5" width="2.5" height="0.8"/>
</g>
<g opacity="0.3">
	<rect x="2.3" y="7.1" width="1.6" height="0.8"/>
</g>
<g opacity="0.3">
	<rect x="2" y="9.3" width="2.5" height="0.8"/>
</g>
<path opacity="0.3" enable-background="new    " d="M4.5,12.4c-1.9,0-3.9,0-3.9,0V0.7H6v1.7h0.7V0.9l1.7,1.5h1L6.5,0H0v13h4.5V12.4z
	"/>
</svg>
