<?xml version="1.0" encoding="utf-8"?>
<!-- Generator: Adobe Illustrator 18.0.0, SVG Export Plug-In . SVG Version: 6.00 Build 0)  -->
<!DOCTYPE svg PUBLIC "-//W3C//DTD SVG 1.1//EN" "http://www.w3.org/Graphics/SVG/1.1/DTD/svg11.dtd">
<svg version="1.1" id="Layer_1" xmlns="http://www.w3.org/2000/svg" xmlns:xlink="http://www.w3.org/1999/xlink" x="0px" y="0px"
	 viewBox="0 0 16 16" enable-background="new 0 0 16 16" xml:space="preserve">
<g opacity="0.3" enable-background="new    ">
	<path d="M0.2,13.5V2.6c0-1.3,1.1-2.4,2.4-2.4h10.9c1.3,0,2.4,1.1,2.4,2.4v10.8c0,1.3-1.1,2.4-2.4,2.4H2.7
		C1.4,15.8,0.3,14.7,0.2,13.5z M2.7,1C1.8,1,1.1,1.7,1.1,2.6v10.9c0,0.9,0.7,1.6,1.6,1.6h10.9c0.9,0,1.5-0.7,1.5-1.6V2.6
		c0-0.9-0.6-1.6-1.5-1.6C13.6,1,2.7,1,2.7,1z"/>
</g>
<path opacity="0.8" fill="#FFFFFF" enable-background="new    " d="M0.6,13.5V2.6c0-1.1,0.9-2,2-2h10.9c1.1,0,2,0.9,2,2v10.8
	c0,1.1-0.9,2-2,2H2.7C1.6,15.4,0.7,14.5,0.6,13.5z"/>
<path fill="#D33737" d="M6.5,4.4C6,4.4,5.6,5,5.6,5.4v8.4c0,0.6,0.4,1,0.8,1h7.1c0.5,0,0.8-0.5,0.8-1V5.4c0-0.6-0.4-1-0.9-1h-1.7
	V3.7c0-0.2-0.1-0.3-0.5-0.3H8.8c-0.4,0-0.5,0.1-0.5,0.3v0.7H6.5z"/>
<path opacity="0.8" fill="none" stroke="#000000" stroke-width="0.75" stroke-miterlimit="10" enable-background="new    " d="
	M6.5,4.4C6,4.4,5.6,5,5.6,5.4v8.4c0,0.6,0.4,1,0.8,1h7.1c0.5,0,0.8-0.5,0.8-1V5.4c0-0.6-0.4-1-0.9-1h-1.7V3.7c0-0.2-0.1-0.3-0.5-0.3
	H8.8c-0.4,0-0.5,0.1-0.5,0.3v0.7H6.5z"/>
<path fill="#1AAA00" enable-background="new    " d="M3.8,12.4V4.1c0-0.5,0.4-1,0.8-1h1.9V2.4c0-0.2,0.1-0.3,0.5-0.3h0.8V1.4
	c0-0.2-0.1-0.3-0.5-0.3H4.7c-0.4,0-0.5,0.1-0.5,0.3l0,0.7l-1.8,0c-0.5,0-0.8,0.5-0.8,1v8.4c0,0.6,0.4,1,0.8,1h1.3
	C3.8,12.6,3.8,12.5,3.8,12.4z"/>
<path opacity="0.8" fill="none" stroke="#000000" stroke-width="0.75" stroke-miterlimit="10" enable-background="new    " d="
	M3.8,12.4V4.1c0-0.5,0.4-1,0.8-1h1.9V2.4c0-0.2,0.1-0.3,0.5-0.3h0.8V1.4c0-0.2-0.1-0.3-0.5-0.3H4.7c-0.4,0-0.5,0.1-0.5,0.3l0,0.7
	l-1.8,0c-0.5,0-0.8,0.5-0.8,1v8.4c0,0.6,0.4,1,0.8,1h1.3C3.8,12.6,3.8,12.5,3.8,12.4z"/>
<g id="Arrow_10">
</g>
<path opacity="0.8" fill="#050505" enable-background="new    " d="M12.9,7.4H7.1c-0.3,0-0.5-0.2-0.5-0.5v0c0-0.3,0.2-0.5,0.5-0.5
	h5.9c0.3,0,0.5,0.2,0.5,0.5v0C13.4,7.2,13.2,7.4,12.9,7.4z"/>
<path opacity="0.8" fill="#050505" enable-background="new    " d="M13,10.1H7.1c-0.3,0-0.5-0.2-0.5-0.5v0c0-0.3,0.2-0.5,0.5-0.5H13
	c0.3,0,0.5,0.2,0.5,0.5v0C13.5,9.8,13.3,10.1,13,10.1z"/>
<path opacity="0.8" fill="#050505" enable-background="new    " d="M12.9,13H7c-0.3,0-0.5-0.2-0.5-0.5v0C6.5,12.2,6.7,12,7,12h5.9
	c0.3,0,0.5,0.2,0.5,0.5v0C13.4,12.8,13.1,13,12.9,13z"/>
</svg>
