<?xml version="1.0" encoding="utf-8"?>
<!-- Generator: Adobe Illustrator 18.0.0, SVG Export Plug-In . SVG Version: 6.00 Build 0)  -->
<!DOCTYPE svg PUBLIC "-//W3C//DTD SVG 1.1//EN" "http://www.w3.org/Graphics/SVG/1.1/DTD/svg11.dtd">
<svg version="1.1" id="Layer_1" xmlns="http://www.w3.org/2000/svg" xmlns:xlink="http://www.w3.org/1999/xlink" x="0px" y="0px"
	 viewBox="0 0 16 16" enable-background="new 0 0 16 16" xml:space="preserve">
<polygon opacity="0.8" fill="#FFFFFF" enable-background="new    " points="15,15.6 2.8,15.6 2.8,0.4 10.3,0.4 15,4.4 "/>
<path opacity="0.3" enable-background="new    " d="M10.4,0h-8v16h13V4.2L10.4,0z M10.5,1.1l3.7,3.1h-3.7V1.1z M3.2,15.2V0.8h6.5
	v4.1h5v10.3C14.7,15.2,3.2,15.2,3.2,15.2z"/>
<rect x="0.5" y="6.4" fill="#1572B6" width="15" height="7"/>
<g>
	<path fill="#FFFFFF" d="M3,11.5h2.5v0.9H2v-5h3.4v0.9H3V11.5z"/>
	<path fill="#FFFFFF" d="M6.1,10.3V7.4h3.4v0.9H7.1v1.2h2.4v2.9H6.1v-0.9h2.5v-1.2H6.1z"/>
	<path fill="#FFFFFF" d="M10.2,10.3V7.4h3.4v0.9h-2.5v1.2h2.5v2.9h-3.4v-0.9h2.5v-1.2H10.2z"/>
</g>
</svg>
