<?xml version="1.0" encoding="utf-8"?>
<!-- Generator: Adobe Illustrator 18.0.0, SVG Export Plug-In . SVG Version: 6.00 Build 0)  -->
<!DOCTYPE svg PUBLIC "-//W3C//DTD SVG 1.1//EN" "http://www.w3.org/Graphics/SVG/1.1/DTD/svg11.dtd">
<svg version="1.1" id="Layer_1" xmlns="http://www.w3.org/2000/svg" xmlns:xlink="http://www.w3.org/1999/xlink" x="0px" y="0px"
	 viewBox="0 0 16 16" enable-background="new 0 0 16 16" xml:space="preserve">
<g id="Arrow_10">
</g>
<polygon fill="#B58900" points="13.8,15.8 6.2,15.8 6.2,6.4 10.9,6.4 13.8,8.9 "/>
<path opacity="0.3" enable-background="new    " d="M10.9,6.2H6V16h8V8.8L10.9,6.2z M11,6.9l2.3,1.9H11V6.9z M6.5,15.6V6.7h4v2.5
	h3.1v6.3C13.6,15.6,6.5,15.6,6.5,15.6z"/>
<g opacity="0.3">
	<rect x="7.5" y="10.2" width="5" height="0.6"/>
</g>
<g opacity="0.3">
	<rect x="8.2" y="11.7" width="3.2" height="0.6"/>
</g>
<g opacity="0.3">
	<rect x="7.7" y="13.2" width="5.1" height="0.6"/>
</g>
<g id="Page-1" opacity="0.8">
	<g id="Core" transform="translate(-127.000000, -128.000000)">
		<g id="content-cut" transform="translate(127.500000, 128.000000)">
			<path id="Shape" fill="#DC322F" d="M2.2,6.2C2.4,6,2.6,5.9,2.6,5.7l7.6,0.2L9,4.6l-3.8,0l0-1.4C5.4,3.1,5.6,3,5.8,2.8
				c0.6-0.6,0.6-1.6,0.1-2.3C5.2-0.2,4.2-0.2,3.6,0.4C3,1,3,2,3.5,2.7C3.6,2.9,3.7,3,4,3.1l0,1.4l-1.4,0C2.5,4.3,2.5,4.1,2.3,3.9
				C1.6,3.3,0.6,3.2,0,3.8s-0.6,1.6-0.1,2.3C0.6,6.7,1.6,6.7,2.2,6.2L2.2,6.2z M1.7,4.5C2,4.8,2,5.3,1.7,5.7C1.3,6,0.8,6,0.6,5.7
				c-0.4-0.4-0.4-0.8,0-1.1C0.9,4.2,1.4,4.1,1.7,4.5L1.7,4.5z M5.2,1.3C5.5,1.6,5.4,2,5.1,2.4C4.8,2.7,4.3,2.7,4,2.4
				C3.7,2,3.7,1.5,4,1.3C4.4,0.8,4.8,0.9,5.2,1.3L5.2,1.3z M4.4,5.2c-0.1-0.1-0.1-0.1,0-0.3c0.1,0,0.3,0,0.3,0c0,0.1,0,0.3,0,0.3
				C4.6,5.3,4.5,5.3,4.4,5.2L4.4,5.2z M4.9,10.8L5,6.3l-1.1,0L3.8,9.6L4.9,10.8L4.9,10.8z"/>
		</g>
	</g>
</g>
<g id="Page-1_1_">
	<g id="Core_1_" transform="translate(-127.000000, -128.000000)">
		<g id="content-cut_1_" transform="translate(127.500000, 128.000000)">
			<path id="Shape_1_" fill="none" stroke="#DC322F" stroke-width="0.5" stroke-miterlimit="10" d="M2.2,6.2C2.4,6,2.6,5.9,2.6,5.7
				l7.6,0.2L9,4.6l-3.8,0l0-1.4C5.4,3.1,5.6,3,5.8,2.8c0.6-0.6,0.6-1.6,0.1-2.3C5.2-0.2,4.2-0.2,3.6,0.4C3,1,3,2,3.5,2.7
				C3.6,2.9,3.7,3,4,3.1l0,1.4l-1.4,0C2.5,4.3,2.5,4.1,2.3,3.9C1.6,3.3,0.6,3.2,0,3.8s-0.6,1.6-0.1,2.3C0.6,6.7,1.6,6.7,2.2,6.2
				L2.2,6.2z M1.7,4.5C2,4.8,2,5.3,1.7,5.7C1.3,6,0.8,6,0.6,5.7c-0.4-0.4-0.4-0.8,0-1.1C0.9,4.2,1.4,4.1,1.7,4.5L1.7,4.5z M5.2,1.3
				C5.5,1.6,5.4,2,5.1,2.4C4.8,2.7,4.3,2.7,4,2.4C3.7,2,3.7,1.5,4,1.3C4.4,0.8,4.8,0.9,5.2,1.3L5.2,1.3z M4.4,5.2
				c-0.1-0.1-0.1-0.1,0-0.3c0.1,0,0.3,0,0.3,0c0,0.1,0,0.3,0,0.3C4.6,5.3,4.5,5.3,4.4,5.2L4.4,5.2z M4.9,10.8L5,6.3l-1.1,0L3.8,9.6
				L4.9,10.8L4.9,10.8z"/>
		</g>
	</g>
</g>
</svg>
