<?xml version="1.0" encoding="utf-8"?>
<!-- Generator: Adobe Illustrator 18.0.0, SVG Export Plug-In . SVG Version: 6.00 Build 0)  -->
<!DOCTYPE svg PUBLIC "-//W3C//DTD SVG 1.1//EN" "http://www.w3.org/Graphics/SVG/1.1/DTD/svg11.dtd">
<svg version="1.1" id="Layer_1" xmlns="http://www.w3.org/2000/svg" xmlns:xlink="http://www.w3.org/1999/xlink" x="0px" y="0px"
	 viewBox="0 0 16 16" enable-background="new 0 0 16 16" xml:space="preserve">
<g id="Arrow_10">
</g>
<path opacity="0.8" fill="#FFFFFF" stroke="#DC322F" stroke-width="0.5" stroke-miterlimit="10" d="M13.1,6.3H7.7V4.6
	C8.5,4.3,9,3.5,9,2.6c0-1.2-0.9-2.1-2.1-2.1S4.8,1.5,4.8,2.6c0,0.9,0.5,1.6,1.3,2v1.7H4.3C4,5.6,3.3,5,2.4,5C1.2,5,0.3,6,0.3,7.1
	s0.9,2.1,2.1,2.1c0.9,0,1.6-0.5,2-1.3h10.9L13.1,6.3z"/>
<polygon opacity="0.8" fill="#FFFFFF" stroke="#DC322F" stroke-width="0.5" stroke-miterlimit="10" points="7.8,15.2 6.2,13 
	6.3,9.1 7.8,9.1 "/>
<path opacity="0.8" fill="none" stroke="#DC322F" stroke-width="0.5" stroke-miterlimit="10" d="M6.8,3.7c-0.4,0-0.7-0.8-0.7-1.2
	s0.3-0.7,0.7-0.7c0.4,0,0.7,0.3,0.7,0.7S7.2,3.7,6.8,3.7z"/>
<path opacity="0.8" fill="none" stroke="#DC322F" stroke-width="0.5" stroke-miterlimit="10" d="M3.5,7.1c0,0.4-0.8,0.7-1.2,0.7
	S1.6,7.5,1.6,7.1c0-0.4,0.3-0.7,0.7-0.7S3.5,6.7,3.5,7.1z"/>
<circle opacity="0.8" fill="#DC322F" cx="6.8" cy="7.1" r="0.4"/>
</svg>
