<?xml version="1.0" encoding="utf-8"?>
<!-- Generator: Adobe Illustrator 18.0.0, SVG Export Plug-In . SVG Version: 6.00 Build 0)  -->
<!DOCTYPE svg PUBLIC "-//W3C//DTD SVG 1.1//EN" "http://www.w3.org/Graphics/SVG/1.1/DTD/svg11.dtd">
<svg version="1.1" id="Layer_1" xmlns="http://www.w3.org/2000/svg" xmlns:xlink="http://www.w3.org/1999/xlink" x="0px" y="0px"
	 viewBox="0 0 16 16" enable-background="new 0 0 16 16" xml:space="preserve">
<g opacity="0.3" enable-background="new    ">
	<path d="M0,13.5V2.6c0-1.3,1.1-2.4,2.4-2.4h10.9c1.3,0,2.4,1.1,2.4,2.4v10.8c0,1.3-1.1,2.4-2.4,2.4H2.5C1.2,15.8,0.1,14.7,0,13.5z
		 M2.5,1C1.6,1,0.9,1.7,0.9,2.6v10.9c0,0.9,0.7,1.6,1.6,1.6h10.9c0.9,0,1.5-0.7,1.5-1.6V2.6c0-0.9-0.6-1.6-1.5-1.6
		C13.4,1,2.5,1,2.5,1z"/>
</g>
<path opacity="0.8" fill="#FFFFFF" enable-background="new    " d="M0.4,13.5V2.6c0-1.1,0.9-2,2-2h10.9c1.1,0,2,0.9,2,2v10.8
	c0,1.1-0.9,2-2,2H2.5C1.4,15.4,0.5,14.5,0.4,13.5z"/>
<path fill="#1AAA00" enable-background="new    " d="M5.8,4.1C5.4,4.1,5,4.7,5,5.2v8.4c0,0.6,0.4,1,0.8,1h7.1c0.5,0,0.8-0.5,0.8-1
	V5.2c0-0.6-0.4-1-0.9-1h-1.7V3.5c0-0.2-0.1-0.3-0.5-0.3H8.2c-0.4,0-0.5,0.1-0.5,0.3v0.7H5.8z"/>
<path opacity="0.8" fill="#050505" enable-background="new    " d="M4.1,13V4.6c0-0.5,0.4-1,0.8-1h1.9V2.9c0-0.2,0.1-0.3,0.5-0.3
	h0.8V2c0-0.2-0.1-0.3-0.5-0.3H5C4.7,1.7,4.6,1.8,4.6,2l0,0.7l-1.8,0c-0.5,0-0.8,0.5-0.8,1v8.4c0,0.6,0.4,1,0.8,1h1.3
	C4.1,13.1,4.1,13.1,4.1,13z"/>
<g id="Arrow_10">
</g>
<path opacity="0.8" fill="#050505" enable-background="new    " d="M12.4,7L6.6,7C6.3,7,6.1,6.8,6.1,6.5v0C6.1,6.2,6.3,6,6.6,6h5.9
	C12.7,6,13,6.2,13,6.5v0C13,6.8,12.7,7,12.4,7z"/>
<path opacity="0.8" fill="#050505" enable-background="new    " d="M12.4,9.8H6.5C6.2,9.8,6,9.6,6,9.3v0C6,9,6.2,8.8,6.5,8.8h5.9
	c0.3,0,0.5,0.2,0.5,0.5v0C12.9,9.6,12.7,9.8,12.4,9.8z"/>
<path opacity="0.8" fill="#050505" enable-background="new    " d="M12.2,12.8H6.4c-0.3,0-0.5-0.2-0.5-0.5v0c0-0.3,0.2-0.5,0.5-0.5
	h5.9c0.3,0,0.5,0.2,0.5,0.5v0C12.7,12.5,12.5,12.8,12.2,12.8z"/>
</svg>
