<?xml version="1.0" encoding="utf-8"?>
<!-- Generator: Adobe Illustrator 18.0.0, SVG Export Plug-In . SVG Version: 6.00 Build 0)  -->
<!DOCTYPE svg PUBLIC "-//W3C//DTD SVG 1.1//EN" "http://www.w3.org/Graphics/SVG/1.1/DTD/svg11.dtd">
<svg version="1.1" id="Layer_1" xmlns="http://www.w3.org/2000/svg" xmlns:xlink="http://www.w3.org/1999/xlink" x="0px" y="0px"
	 viewBox="0 0 16 16" enable-background="new 0 0 16 16" xml:space="preserve">
<g opacity="0.5" enable-background="new    ">
	<path d="M14,15.4l-5.8-1c-1.4-0.3-2-0.9-2-2V3.6c0-1.1,0.9-2,2-2l5.8-1c1.1,0,2,0.9,2,2v10.9C16,14.4,15.1,15.3,14,15.4z M8.1,2.3
		c-0.7,0-1.2,0.6-1.2,1.3v8.9c0,0.7,0.4,1,1.2,1.3l5.9,1c0.7,0,1.3-0.6,1.3-1.3V2.6c0-0.7-0.6-1.3-1.3-1.3L8.1,2.3z"/>
</g>
<path opacity="0.8" fill="#FFFFFF" enable-background="new    " d="M13.7,14.8l-5.4-1c-1.2-0.3-1.4-0.7-1.4-1.6V3.4
	c0-0.6,0.6-1.1,1.4-1.1l5.5-1c0.7-0.1,1.5,0.4,1.5,1.5v10.6C15.3,14.5,14.6,14.8,13.7,14.8z"/>
<path fill="#229928" d="M3,11.2c0.3,0.3,0.6,0.3,1-0.1c0.3-0.3,0.3-0.6-0.1-1L2.4,8.7H8c0.4,0,0.7-0.4,0.7-0.7S8.5,7.3,8.1,7.3
	L2.4,7.4L4,5.8c0.3-0.3,0.3-0.6-0.1-1C3.7,4.5,3.3,4.5,3,4.9L0,8l0,0L3,11.2z"/>
</svg>
