<?xml version="1.0" encoding="utf-8"?>
<!-- Generator: Adobe Illustrator 18.0.0, SVG Export Plug-In . SVG Version: 6.00 Build 0)  -->
<!DOCTYPE svg PUBLIC "-//W3C//DTD SVG 1.1//EN" "http://www.w3.org/Graphics/SVG/1.1/DTD/svg11.dtd">
<svg version="1.1" id="Layer_1" xmlns="http://www.w3.org/2000/svg" xmlns:xlink="http://www.w3.org/1999/xlink" x="0px" y="0px"
	 viewBox="0 0 16 16" enable-background="new 0 0 16 16" xml:space="preserve">
<g opacity="0.8">
	<path d="M5,9.1C2.7,9,1,7.1,1,4.9c0.1-2.3,2-4,4.2-4s4,2,4,4.2C9.2,7.4,7.3,9.2,5,9.1z M5.2,1.8C3.5,1.8,2,3.2,1.9,4.9
		c0,1.8,1.4,3.3,3.2,3.3c1.8,0.1,3.3-1.3,3.3-3.1S7,1.9,5.2,1.8z"/>
</g>
<path opacity="0.8" enable-background="new    " d="M11.4,9.9L9.3,8.5c-0.1-0.1-0.1-0.2,0-0.3l0.6-1C10,7.1,10.1,7,10.2,7.1l2.2,1.4
	c0.1,0.1,0.1,0.2,0,0.3l-0.6,1C11.6,9.9,11.5,10,11.4,9.9z"/>
<g id="Arrow_26" opacity="0.8">
	<rect x="2.2" y="9.7" fill="none" width="11.5" height="9.9"/>
	<path fill="#FFFFFF" d="M0.8,11.3h14.3c0.4,0,0.8,0.4,0.8,0.8v3.1c0,0.4-0.4,0.8-0.8,0.8H0.8C0.4,16,0,15.6,0,15.2v-3.1
		C0,11.7,0.4,11.3,0.8,11.3z"/>
	<g>
		<polygon fill="#231F20" points="1.9,14.8 10.8,14.8 10.8,15.7 14.1,13.8 10.8,12 10.8,12.9 1.9,12.9 		"/>
	</g>
</g>
</svg>
