<?xml version="1.0" encoding="utf-8"?>
<!-- Generator: Adobe Illustrator 18.0.0, SVG Export Plug-In . SVG Version: 6.00 Build 0)  -->
<!DOCTYPE svg PUBLIC "-//W3C//DTD SVG 1.1//EN" "http://www.w3.org/Graphics/SVG/1.1/DTD/svg11.dtd">
<svg version="1.1" id="Layer_1" xmlns="http://www.w3.org/2000/svg" xmlns:xlink="http://www.w3.org/1999/xlink" x="0px" y="0px"
	 viewBox="0 0 16 16" enable-background="new 0 0 16 16" xml:space="preserve">
<g opacity="0.8">
	<path d="M5.4,10.5c-2.7-0.1-4.9-2.4-4.8-5.1c0.1-2.8,2.4-5,5.1-4.9s4.9,2.4,4.8,5.1C10.5,8.4,8.2,10.6,5.4,10.5z M5.7,1.6
		c-2.2-0.1-4,1.6-4,3.8c-0.1,2.2,1.6,4,3.8,4c2.2,0.1,4-1.6,4-3.8C9.6,3.5,7.9,1.7,5.7,1.6z"/>
</g>
<path opacity="0.8" fill="#FFFFFF" d="M5.7,1.6c-2.2-0.1-4,1.6-4,3.8c-0.1,2.2,1.6,4,3.8,4c2.2,0.1,4-1.6,4-3.8
	C9.6,3.5,7.9,1.7,5.7,1.6z"/>
<path opacity="0.8" d="M13.3,14.7l-3.8-3.4c-0.1-0.1-0.2-0.3,0-0.5l0.9-1.1c0.1-0.1,0.3-0.2,0.5,0l3.8,3.4c0.1,0.1,0.2,0.3,0,0.5
	l-0.9,1.1C13.6,14.8,13.4,14.8,13.3,14.7z"/>
</svg>
