<?xml version="1.0" encoding="utf-8"?>
<!-- Generator: Adobe Illustrator 18.0.0, SVG Export Plug-In . SVG Version: 6.00 Build 0)  -->
<!DOCTYPE svg PUBLIC "-//W3C//DTD SVG 1.1//EN" "http://www.w3.org/Graphics/SVG/1.1/DTD/svg11.dtd">
<svg version="1.1" id="Layer_1" xmlns="http://www.w3.org/2000/svg" xmlns:xlink="http://www.w3.org/1999/xlink" x="0px" y="0px"
	 viewBox="0 0 16 16" enable-background="new 0 0 16 16" xml:space="preserve">
<g opacity="0.8">
	<path d="M5.7,10.9C3,10.8,0.8,8.5,0.9,5.8C1,3,3.3,0.8,6,0.9s4.9,2.4,4.8,5.1C10.8,8.8,8.5,11,5.7,10.9z M6,2C3.8,1.9,2,3.6,2,5.8
		c-0.1,2.2,1.6,4,3.8,4c2.2,0.1,4-1.6,4-3.8C9.9,3.9,8.2,2.1,6,2z"/>
</g>
<path opacity="0.8" d="M13.6,15.1l-3.8-3.4c-0.1-0.1-0.2-0.3,0-0.5l0.9-1.1c0.1-0.1,0.3-0.2,0.5,0l3.8,3.4c0.1,0.1,0.2,0.3,0,0.5
	l-0.9,1.1C13.9,15.2,13.7,15.2,13.6,15.1z"/>
</svg>
