<?xml version="1.0" encoding="utf-8"?>
<!-- Generator: Adobe Illustrator 18.0.0, SVG Export Plug-In . SVG Version: 6.00 Build 0)  -->
<!DOCTYPE svg PUBLIC "-//W3C//DTD SVG 1.1//EN" "http://www.w3.org/Graphics/SVG/1.1/DTD/svg11.dtd">
<svg version="1.1" id="Layer_1" xmlns="http://www.w3.org/2000/svg" xmlns:xlink="http://www.w3.org/1999/xlink" x="0px" y="0px"
	 viewBox="0 0 16 16" enable-background="new 0 0 16 16" xml:space="preserve">
<path opacity="0.8" fill="#FFFFFF" enable-background="new    " d="M13.5,2.9l-6.2,0c0-1-0.3-1.8-1.3-1.8L2.7,1
	c-1,0-1.6,0.6-1.6,1.5v10.9c0,1,0.6,1.5,1.5,1.5l10.7,0c1,0,1.4-0.5,1.4-1.5V4.2C14.8,3.3,14.2,3,13.5,2.9z"/>
<path opacity="0.5" fill="none" stroke="#000000" stroke-miterlimit="10" enable-background="new    " d="M13.5,2.3H7.8
	c0-1-0.8-1.8-1.8-1.8H2.5c-1,0-1.8,0.8-1.8,1.8v11.3c0,1,0.8,1.8,1.8,1.8h2.4H6h7.5c1,0,1.8-0.8,1.8-1.8V4.1
	C15.3,3.1,14.4,2.3,13.5,2.3z"/>
<path opacity="0.6" enable-background="new    " d="M13.5,4.1H6.1c-1.1,0-2,0.6-2.2,1.6v0.2v7.8c0,0.7-0.4,1.2-1.1,1.2l1.7,0
	c0.1-0.2,0.2-0.5,0.2-1.2V6.4C4.7,5.3,5.4,5,6.1,5h7.4c0.7,0,1.3,0.6,1.3,1.3V4.5C14.8,4.3,13.9,4.1,13.5,4.1z"/>
</svg>
