<?xml version="1.0" encoding="utf-8"?>
<!-- Generator: Adobe Illustrator 18.0.0, SVG Export Plug-In . SVG Version: 6.00 Build 0)  -->
<!DOCTYPE svg PUBLIC "-//W3C//DTD SVG 1.1//EN" "http://www.w3.org/Graphics/SVG/1.1/DTD/svg11.dtd">
<svg version="1.1" id="Layer_1" xmlns="http://www.w3.org/2000/svg" xmlns:xlink="http://www.w3.org/1999/xlink" x="0px" y="0px"
	 viewBox="0 0 16 16" enable-background="new 0 0 16 16" xml:space="preserve">
<path opacity="0.8" fill="#FFFFFF" enable-background="new    " d="M10.5,4.2L6,4.2c0-0.9-0.5-1.4-0.9-1.4H2.3
	c-0.9,0-1.6,0.7-1.6,1.6l-0.1,8.3c-0.1,0.9,0,1.5,1.2,1.5h7.4c0.8,0,2.5,0.2,2.8-0.5l3.5-5.7c0.2-0.4,0-0.9-0.5-1l-3.4,0
	C11.8,6.8,12.2,4.2,10.5,4.2z"/>
<g opacity="0.3" enable-background="new    ">
	<path d="M1.1,10.9l-0.9,1.5l0.1-8.2c0-0.9,0.8-1.8,1.8-1.8h2.7c0.9,0,1.6,0.6,1.7,1.4h3.9c2.1-0.1,1.9,1.8,1.9,2.7h-0.9
		c0-0.4,0-1.9-1-1.9H5.6V4.2c0-0.5-0.4-0.9-0.9-0.9H2.1c-0.5,0-0.9,0.4-0.9,0.9L1.1,10.9z"/>
</g>
<g opacity="0.43">
	<path d="M11,14.5H1.4c-0.5,0-1-0.3-1.2-0.7c-0.3-0.5-0.3-1,0-1.4L3.4,7C3.6,6.7,4,6.4,4.4,6.4h10.6c0.4,0,0.8,0.2,1,0.6
		c0.2,0.3,0.2,0.8,0,1.1l-3.3,5.6C12.2,14.2,11.7,14.5,11,14.5z M4.4,7.3c-0.1,0-0.2,0-0.2,0.1l-3.2,5.4c-0.1,0.2-0.1,0.4,0,0.6
		c0.1,0.2,0.3,0.3,0.5,0.3H11c0.3,0,0.6-0.2,0.8-0.4l3.3-5.6c0.1-0.1,0-0.2,0-0.2c0,0-0.1-0.1-0.2-0.1H4.4z"/>
</g>
</svg>
