<?xml version="1.0" encoding="utf-8"?>
<!-- Generator: Adobe Illustrator 18.0.0, SVG Export Plug-In . SVG Version: 6.00 Build 0)  -->
<!DOCTYPE svg PUBLIC "-//W3C//DTD SVG 1.1//EN" "http://www.w3.org/Graphics/SVG/1.1/DTD/svg11.dtd">
<svg version="1.1" id="Layer_1" xmlns="http://www.w3.org/2000/svg" xmlns:xlink="http://www.w3.org/1999/xlink" x="0px" y="0px"
	 viewBox="0 0 16 16" enable-background="new 0 0 16 16" xml:space="preserve">
<g opacity="0.3" enable-background="new    ">
	<path d="M0.2,13.6V2.7c0-1.3,1.1-2.4,2.4-2.4h10.9c1.3,0,2.4,1.1,2.4,2.4v10.8c0,1.3-1.1,2.4-2.4,2.4H2.7
		C1.4,15.9,0.3,14.8,0.2,13.6z M2.7,1.1c-0.9,0-1.6,0.7-1.6,1.6v10.9c0,0.9,0.7,1.6,1.6,1.6h10.9c0.9,0,1.5-0.7,1.5-1.6V2.7
		c0-0.9-0.6-1.6-1.5-1.6H2.7z"/>
</g>
<path opacity="0.8" fill="#FFFFFF" enable-background="new    " d="M0.6,13.6V2.7c0-1.1,0.9-2,2-2h10.9c1.1,0,2,0.9,2,2v10.8
	c0,1.1-0.9,2-2,2H2.7C1.6,15.5,0.7,14.6,0.6,13.6z"/>
<path fill="#52BF52" d="M11.7,13.7H4.4c-1.1,0-2-0.9-2-2V4.3c0-1.1,0.9-2,2-2h7.3c1.1,0,2,0.9,2,2v7.3
	C13.7,12.8,12.8,13.7,11.7,13.7z"/>
</svg>
