<?xml version="1.0" encoding="utf-8"?>
<!-- Generator: Adobe Illustrator 18.0.0, SVG Export Plug-In . SVG Version: 6.00 Build 0)  -->
<!DOCTYPE svg PUBLIC "-//W3C//DTD SVG 1.1//EN" "http://www.w3.org/Graphics/SVG/1.1/DTD/svg11.dtd">
<svg version="1.1" id="Layer_1" xmlns="http://www.w3.org/2000/svg" xmlns:xlink="http://www.w3.org/1999/xlink" x="0px" y="0px"
	 viewBox="0 0 16 16" enable-background="new 0 0 16 16" xml:space="preserve">
<g opacity="0.3" enable-background="new    ">
	<path d="M15.8,2.5v10.8c0,1.3-1.1,2.4-2.4,2.4H2.6c-1.3,0-2.4-1.1-2.4-2.4V2.7c0-1.3,0.9-2.4,2.4-2.4h10.7
		C14.7,0.4,15.8,1.5,15.8,2.5z M13.4,14.9c0.9,0,1.6-0.7,1.6-1.6V2.5c0-0.9-0.7-1.6-1.6-1.6H2.5C1.7,1,1.1,1.7,1.1,2.5v10.8
		c0,0.9,0.6,1.6,1.5,1.6C2.5,14.9,13.4,14.9,13.4,14.9z"/>
</g>
<path opacity="0.8" fill="#FFFFFF" enable-background="new    " d="M15.4,2.5v10.8c0,1.1-0.9,1.9-1.9,1.9H2.6
	c-1.1,0-1.9-0.9-1.9-1.9V2.7c0-1.1,0.9-1.9,1.9-1.9h10.7C14.4,0.7,15.3,1.6,15.4,2.5z"/>
<g>
	<path fill="#229928" d="M7.3,10.1l0-0.4C7.2,8.9,7.4,8,8.2,7.2c0.7-0.8,1-1.4,1-2c0-0.7-0.5-1.2-1.4-1.3c-0.5,0-1.1,0.2-1.5,0.5
		L6,3.4c0.5-0.4,1.3-0.6,2.1-0.6c1.7,0,2.5,1,2.5,2.2c0,1-0.6,1.7-1.3,2.6C8.6,8.3,8.4,9,8.4,9.7l0,0.4H7.3z M7,12.1
		c0-0.5,0.4-0.9,0.9-0.9s0.9,0.4,0.9,0.9c0,0.5-0.3,0.9-0.9,0.9C7.3,13,7,12.7,7,12.1z"/>
</g>
</svg>
