<?xml version="1.0" encoding="utf-8"?>
<!-- Generator: Adobe Illustrator 18.0.0, SVG Export Plug-In . SVG Version: 6.00 Build 0)  -->
<!DOCTYPE svg PUBLIC "-//W3C//DTD SVG 1.1//EN" "http://www.w3.org/Graphics/SVG/1.1/DTD/svg11.dtd">
<svg version="1.1" id="Layer_1" xmlns="http://www.w3.org/2000/svg" xmlns:xlink="http://www.w3.org/1999/xlink" x="0px" y="0px"
	 viewBox="0 0 16 16" enable-background="new 0 0 16 16" xml:space="preserve">
<polygon opacity="0.8" fill="#FFFFFF" enable-background="new    " points="14.4,15 3.2,15 3.2,1 10,1 14.4,4.7 "/>
<path opacity="0.5" enable-background="new    " d="M10.2,0.2H2.4v15.6h12.7V4.3L10.2,0.2z M10.3,1.3l3.6,3 M14.4,4.7V15
	c0,0-11.2,0-11.2,0V1L10,1"/>
<polygon opacity="0.8" points="10,4.7 10,1 9.2,1 9.2,5.5 9.7,5.5 9.7,5.5 14.4,5.5 14.4,4.7 "/>
<rect x="0.1" y="6.4" fill="#E44D26" width="15" height="7"/>
<g>
	<path fill="#FFFFFF" d="M1.6,12H0.8V7.8h0.8v1.8h1.3V7.8h0.8V12H2.9v-1.8H1.6V12z"/>
	<path fill="#FFFFFF" d="M5.3,8.5H4.2V7.8h2.9v0.7h-1V12H5.3V8.5z"/>
	<path fill="#FFFFFF" d="M8.5,12H7.7V7.8h0.8l0.8,2.3l0.9-2.3H11V12h-0.8v-1.8L9.6,12H9.1l-0.6-1.8V12z"/>
	<path fill="#FFFFFF" d="M12.3,11.2h2.1v0.7h-2.9V7.8h0.8V11.2z"/>
</g>
</svg>
