<?xml version="1.0" encoding="utf-8"?>
<!-- Generator: Adobe Illustrator 18.0.0, SVG Export Plug-In . SVG Version: 6.00 Build 0)  -->
<!DOCTYPE svg PUBLIC "-//W3C//DTD SVG 1.1//EN" "http://www.w3.org/Graphics/SVG/1.1/DTD/svg11.dtd">
<svg version="1.1" id="Layer_1" xmlns="http://www.w3.org/2000/svg" xmlns:xlink="http://www.w3.org/1999/xlink" x="0px" y="0px"
	 viewBox="0 0 16 16" enable-background="new 0 0 16 16" xml:space="preserve">
<polygon opacity="0.8" fill="#FFFFFF" enable-background="new    " points="13.1,15 1.9,15 1.9,1 8.7,1 13.1,4.7 "/>
<path opacity="0.5" enable-background="new    " d="M9,0.2H1.2v15.6h12.7V4.3L9,0.2z M9.1,1.3l3.6,3 M13.1,4.7V15c0,0-11.2,0-11.2,0
	V1l6.8,0"/>
<polygon opacity="0.8" points="8.7,4.7 8.7,1 8,1 8,5.5 8.5,5.5 8.5,5.5 13.1,5.5 13.1,4.7 "/>
<g>
	<polygon fill="#EF4343" points="10.9,9.9 10.3,11 8.6,7.7 6.9,11.2 5.2,7.7 2.7,12.8 6.1,12.8 7.7,12.8 9.4,12.8 11.1,12.8 
		12.3,12.8 	"/>
	<circle fill="#EF4343" cx="10.7" cy="8.1" r="0.9"/>
</g>
</svg>
