<?xml version="1.0" encoding="utf-8"?>
<!-- Generator: Adobe Illustrator 18.0.0, SVG Export Plug-In . SVG Version: 6.00 Build 0)  -->
<!DOCTYPE svg PUBLIC "-//W3C//DTD SVG 1.1//EN" "http://www.w3.org/Graphics/SVG/1.1/DTD/svg11.dtd">
<svg version="1.1" id="Layer_1" xmlns="http://www.w3.org/2000/svg" xmlns:xlink="http://www.w3.org/1999/xlink" x="0px" y="0px"
	 viewBox="0 0 16 16" enable-background="new 0 0 16 16" xml:space="preserve">
<polygon opacity="0.8" fill="#FFFFFF" enable-background="new    " points="14.4,15 3.2,15 3.2,1 10,1 14.4,4.7 "/>
<path opacity="0.5" enable-background="new    " d="M10.2,0.2H2.4v15.6h12.7V4.3L10.2,0.2z M10.3,1.3l3.6,3 M14.4,4.7V15
	c0,0-11.2,0-11.2,0V1L10,1"/>
<polygon opacity="0.8" points="10,4.7 10,1 9.2,1 9.2,5.5 9.7,5.5 9.7,5.5 14.4,5.5 14.4,4.7 "/>
<rect x="0.1" y="6.4" fill="#D4B936" width="15" height="7"/>
<g>
	<path fill="#FFFFFF" d="M4.3,10.2v1.3h1.6V7.4h0.9v5H3.3v-2.2H4.3z"/>
	<path fill="#FFFFFF" d="M7.5,10.3V7.4H11v0.9H8.4v1.2h2.5v2.9H7.5v-0.9H10v-1.2H7.5z"/>
</g>
</svg>
