<?xml version="1.0" encoding="utf-8"?>
<!-- Generator: Adobe Illustrator 18.0.0, SVG Export Plug-In . SVG Version: 6.00 Build 0)  -->
<!DOCTYPE svg PUBLIC "-//W3C//DTD SVG 1.1//EN" "http://www.w3.org/Graphics/SVG/1.1/DTD/svg11.dtd">
<svg version="1.1" id="Layer_1" xmlns="http://www.w3.org/2000/svg" xmlns:xlink="http://www.w3.org/1999/xlink" x="0px" y="0px"
	 viewBox="0 0 16 16" enable-background="new 0 0 16 16" xml:space="preserve">
<polygon opacity="0.8" fill="#FFFFFF" points="14.6,15.6 2.4,15.6 2.4,0.4 9.9,0.4 14.6,4.4 "/>
<path opacity="0.3" d="M10,0H2v16h13V4.2L10,0z M10.1,1.1l3.7,3.1h-3.7V1.1z M2.8,15.2V0.8h6.5v4.1h5v10.3H2.8z"/>
<rect x="0.1" y="6.4" fill="#D4B936" width="15" height="7"/>
<g>
	<path fill="#FFFFFF" d="M4.3,10.2v1.3h1.6V7.4h0.9v5H3.3v-2.2H4.3z"/>
	<path fill="#FFFFFF" d="M7.5,10.3V7.4H11v0.9H8.4v1.2h2.5v2.9H7.5v-0.9H10v-1.2H7.5z"/>
</g>
</svg>
