<?xml version="1.0" encoding="utf-8"?>
<!-- Generator: Adobe Illustrator 18.0.0, SVG Export Plug-In . SVG Version: 6.00 Build 0)  -->
<!DOCTYPE svg PUBLIC "-//W3C//DTD SVG 1.1//EN" "http://www.w3.org/Graphics/SVG/1.1/DTD/svg11.dtd">
<svg version="1.1" id="Layer_1" xmlns="http://www.w3.org/2000/svg" xmlns:xlink="http://www.w3.org/1999/xlink" x="0px" y="0px"
	 viewBox="0 0 16 16" enable-background="new 0 0 16 16" xml:space="preserve">
<polygon opacity="0.8" fill="#FFFFFF" enable-background="new    " points="14.4,15 3.2,15 3.2,1 9.9,1 14.4,4.7 "/>
<path opacity="0.5" enable-background="new    " d="M10.2,0.2H2.4v15.6H15V4.3L10.2,0.2z M10.3,1.3l3.6,3 M14.4,4.7V15
	c0,0-11.2,0-11.2,0V1l6.8,0"/>
<polygon opacity="0.8" points="10,4.7 10,1 9.2,1 9.2,5.5 9.7,5.5 9.7,5.5 14.4,5.5 14.4,4.7 "/>
<rect x="0.1" y="6.4" fill="#0D469D" width="14.9" height="7"/>
<g>
	<path fill="#FFFFFF" d="M2.1,10.2v1h1.3V7.9h0.7v4H1.3v-1.7H2.1z"/>
	<path fill="#FFFFFF" d="M4.6,10.2V7.9h2.7v0.7h-2v1h2v2.3H4.6v-0.7h2v-1C6.6,10.2,4.6,10.2,4.6,10.2z"/>
	<path fill="#FFFFFF" d="M10.6,7.9v4H7.9v-4C7.9,7.9,10.6,7.9,10.6,7.9z M9.9,8.6H8.7v2.6H10V8.6H9.9z"/>
	<path fill="#FFFFFF" d="M11.9,11.9h-0.7v-4H12l1.2,2.2V7.9h0.7v4h-0.7l-1.3-2.3V11.9z"/>
</g>
</svg>
