<?xml version="1.0" encoding="utf-8"?>
<!-- Generator: Adobe Illustrator 18.0.0, SVG Export Plug-In . SVG Version: 6.00 Build 0)  -->
<!DOCTYPE svg PUBLIC "-//W3C//DTD SVG 1.1//EN" "http://www.w3.org/Graphics/SVG/1.1/DTD/svg11.dtd">
<svg version="1.1" id="Layer_1" xmlns="http://www.w3.org/2000/svg" xmlns:xlink="http://www.w3.org/1999/xlink" x="0px" y="0px"
	 viewBox="0 0 16 16" enable-background="new 0 0 16 16" xml:space="preserve">
<polygon opacity="0.8" fill="#FFFFFF" points="14.6,15.6 2.4,15.6 2.4,0.4 9.9,0.4 14.6,4.4 "/>
<path opacity="0.3" d="M10,0H2v16h13V4.2L10,0z M10.1,1.1l3.7,3.1h-3.7V1.1z M2.8,15.2V0.8h6.5v4.1h5v10.3H2.8z"/>
<rect x="0.1" y="6.4" fill="#0D469D" width="15" height="7"/>
<g>
	<path fill="#FFFFFF" d="M2.1,10.2v1h1.3V7.9h0.7v4H1.3v-1.7H2.1z"/>
	<path fill="#FFFFFF" d="M4.6,10.2V7.9h2.7v0.7h-2v1h2v2.3H4.6v-0.7h2v-1C6.6,10.2,4.6,10.2,4.6,10.2z"/>
	<path fill="#FFFFFF" d="M10.6,7.9v4H7.9v-4C7.9,7.9,10.6,7.9,10.6,7.9z M9.9,8.6H8.7v2.6H10V8.6H9.9z"/>
	<path fill="#FFFFFF" d="M11.9,11.9h-0.7v-4H12l1.2,2.2V7.9h0.7v4h-0.7l-1.3-2.3V11.9z"/>
</g>
</svg>
