<?xml version="1.0" encoding="utf-8"?>
<!-- Generator: Adobe Illustrator 18.0.0, SVG Export Plug-In . SVG Version: 6.00 Build 0)  -->
<!DOCTYPE svg PUBLIC "-//W3C//DTD SVG 1.1//EN" "http://www.w3.org/Graphics/SVG/1.1/DTD/svg11.dtd">
<svg version="1.1" id="Layer_1" xmlns="http://www.w3.org/2000/svg" xmlns:xlink="http://www.w3.org/1999/xlink" x="0px" y="0px"
	 viewBox="0 0 16 16" enable-background="new 0 0 16 16" xml:space="preserve">
<g opacity="0.3" enable-background="new    ">
	<path d="M0.2,13.5V2.6c0-1.3,1.1-2.4,2.4-2.4h10.9c1.3,0,2.4,1.1,2.4,2.4v10.8c0,1.3-1.1,2.4-2.4,2.4H2.7
		C1.4,15.8,0.3,14.7,0.2,13.5z M2.7,1C1.8,1,1.1,1.7,1.1,2.6v10.9c0,0.9,0.7,1.6,1.6,1.6h10.9c0.9,0,1.5-0.7,1.5-1.6V2.6
		C15,1.7,14.4,1,13.5,1H2.7z"/>
</g>
<path opacity="0.8" fill="#FFFFFF" enable-background="new    " d="M0.6,13.5V2.6c0-1.1,0.9-2,2-2h10.9c1.1,0,2,0.9,2,2v10.8
	c0,1.1-0.9,2-2,2H2.7C1.6,15.4,0.7,14.5,0.6,13.5z"/>
<rect x="17.2" y="17.6" fill="none" width="8.5" height="5.9"/>
<path fill="#2AA198" d="M5.2,15.4H2.7c-1.2,0-2.2-1-2.2-2.2V2.5c0-1.1,0.9-1.9,1.9-1.9h2.7V15.4z"/>
<path fill="#CB4B16" d="M15.1,6.9H10c-0.3,0-0.4-0.4-0.2-0.6L11.2,5c0.2-0.2,0.1-0.6-0.2-0.6H8.9c-0.1,0-0.2,0-0.2,0.1L5.5,7.8
	c-0.1,0.1-0.1,0.3,0,0.5l3.2,3.2c0.1,0.1,0.1,0.1,0.2,0.1h2.1c0.3,0,0.4-0.4,0.2-0.6L9.8,9.7c-0.2-0.2-0.1-0.6,0.2-0.6h5.1
	c0.2,0,0.3-0.1,0.3-0.3V7.3C15.4,7.1,15.3,6.9,15.1,6.9z"/>
</svg>
