<?xml version="1.0" encoding="utf-8"?>
<!-- Generator: Adobe Illustrator 18.0.0, SVG Export Plug-In . SVG Version: 6.00 Build 0)  -->
<!DOCTYPE svg PUBLIC "-//W3C//DTD SVG 1.1//EN" "http://www.w3.org/Graphics/SVG/1.1/DTD/svg11.dtd">
<svg version="1.1" id="Layer_1" xmlns="http://www.w3.org/2000/svg" xmlns:xlink="http://www.w3.org/1999/xlink" x="0px" y="0px"
	 viewBox="0 0 16 16" enable-background="new 0 0 16 16" xml:space="preserve">
<g opacity="0.3" enable-background="new    ">
	<path d="M0.2,13.6V2.7c0-1.3,1.1-2.4,2.4-2.4h10.9c1.3,0,2.4,1.1,2.4,2.4v10.8c0,1.3-1.1,2.4-2.4,2.4H2.7
		C1.4,15.9,0.3,14.8,0.2,13.6z M2.7,1.1c-0.9,0-1.6,0.7-1.6,1.6v10.9c0,0.9,0.7,1.6,1.6,1.6h10.9c0.9,0,1.5-0.7,1.5-1.6V2.7
		c0-0.9-0.6-1.6-1.5-1.6H2.7z"/>
</g>
<path opacity="0.8" fill="#FFFFFF" enable-background="new    " d="M0.6,13.6V2.7c0-1.1,0.9-2,2-2h10.9c1.1,0,2,0.9,2,2l0,10.8
	c0,1.1-0.9,2-2,2H2.7C1.6,15.5,0.7,14.6,0.6,13.6z"/>
<g>
	<path fill="#3080C1" d="M2,13.2V3c0-0.8,0.6-1.4,1.4-1.4h2.2c0.8,0,1.4,0.6,1.4,1.4v10.1c0,0.8-0.6,1.4-1.4,1.4H3.3
		C2.6,14.5,2,13.9,2,13.2z M3.3,2.4C3,2.4,2.7,2.7,2.7,3v10.1c0,0.3,0.3,0.6,0.6,0.6h2.2c0.3,0,0.6-0.3,0.6-0.6V3
		c0-0.3-0.3-0.6-0.6-0.6H3.3z"/>
</g>
<path fill="#D84427" d="M6.4,8c-0.2,0.2-0.2,0.5,0,0.6l2.3,2.1c0.2,0.2,0.6,0.3,0.8,0c0.2-0.2,0.2-0.5,0-0.7L8,8.8h6.2
	c0.3,0,0.5-0.3,0.5-0.5c0-0.3-0.3-0.5-0.5-0.5h-6l1.1-1.1c0.2-0.2,0.2-0.5,0-0.7c-0.2-0.2-0.5-0.2-0.7,0L6.4,8z"/>
</svg>
