<?xml version="1.0" encoding="utf-8"?>
<!-- Generator: Adobe Illustrator 18.0.0, SVG Export Plug-In . SVG Version: 6.00 Build 0)  -->
<!DOCTYPE svg PUBLIC "-//W3C//DTD SVG 1.1//EN" "http://www.w3.org/Graphics/SVG/1.1/DTD/svg11.dtd">
<svg version="1.1" id="Layer_1" xmlns="http://www.w3.org/2000/svg" xmlns:xlink="http://www.w3.org/1999/xlink" x="0px" y="0px"
	 viewBox="0 0 16 16" enable-background="new 0 0 16 16" xml:space="preserve">
<g opacity="0.3" enable-background="new    ">
	<path d="M0.2,13.5V2.6c0-1.3,1.1-2.4,2.4-2.4h10.9c1.3,0,2.4,1.1,2.4,2.4v10.8c0,1.3-1.1,2.4-2.4,2.4H2.7
		C1.4,15.8,0.3,14.7,0.2,13.5z M2.7,1C1.8,1,1.1,1.7,1.1,2.6v10.9c0,0.9,0.7,1.6,1.6,1.6h10.9c0.9,0,1.5-0.7,1.5-1.6V2.6
		C15,1.7,14.4,1,13.5,1H2.7z"/>
</g>
<path opacity="0.8" fill="#FFFFFF" enable-background="new    " d="M0.6,13.5V2.6c0-1.1,0.9-2,2-2h10.9c1.1,0,2,0.9,2,2v10.8
	c0,1.1-0.9,2-2,2H2.7C1.6,15.4,0.7,14.5,0.6,13.5z"/>
<path fill="#2AA198" d="M5.2,15.4H2.7c-1.2,0-2.2-1-2.2-2.2V2.5c0-1.1,0.9-1.9,1.9-1.9l3.2,0v14.8H5.2z"/>
<path opacity="0.8" fill="#DC322F" d="M14.9,7.1l-5.5,0c-0.2,0-0.3-0.3-0.2-0.5l1.1-1c0.2-0.2,0.1-0.5-0.2-0.5H8.5
	c-0.1,0-0.2,0-0.2,0.1L5.8,7.8c-0.1,0.1-0.1,0.2,0,0.4l2.6,2.6c0.1,0.1,0.1,0.1,0.2,0.1h1.7c0.2,0,0.3-0.3,0.2-0.5l-1.1-1
	C9.1,9.2,9.2,8.9,9.4,8.9l5.5,0c0.2,0,0.2-0.1,0.2-0.2V7.4C15.1,7.3,15.1,7.1,14.9,7.1z"/>
<path fill="none" stroke="#CB4B16" stroke-width="0.5" stroke-miterlimit="10" d="M14.9,7.1l-5.5,0c-0.2,0-0.3-0.3-0.2-0.5l1.1-1
	c0.2-0.2,0.1-0.5-0.2-0.5H8.5c-0.1,0-0.2,0-0.2,0.1L5.8,7.8c-0.1,0.1-0.1,0.2,0,0.4l2.6,2.6c0.1,0.1,0.1,0.1,0.2,0.1h1.7
	c0.2,0,0.3-0.3,0.2-0.5l-1.1-1C9.1,9.2,9.2,8.9,9.4,8.9l5.5,0c0.2,0,0.2-0.1,0.2-0.2V7.4C15.1,7.3,15.1,7.1,14.9,7.1z"/>
</svg>
