<?xml version="1.0" encoding="utf-8"?>
<!-- Generator: Adobe Illustrator 18.0.0, SVG Export Plug-In . SVG Version: 6.00 Build 0)  -->
<!DOCTYPE svg PUBLIC "-//W3C//DTD SVG 1.1//EN" "http://www.w3.org/Graphics/SVG/1.1/DTD/svg11.dtd">
<svg version="1.1" id="Layer_1" xmlns="http://www.w3.org/2000/svg" xmlns:xlink="http://www.w3.org/1999/xlink" x="0px" y="0px"
	 viewBox="0 0 16 16" enable-background="new 0 0 16 16" xml:space="preserve">
<g opacity="0.3" enable-background="new    ">
	<path d="M0.2,13.6V2.7c0-1.3,1.1-2.4,2.4-2.4h10.9c1.3,0,2.4,1.1,2.4,2.4v10.8c0,1.3-1.1,2.4-2.4,2.4H2.7
		C1.4,15.9,0.3,14.8,0.2,13.6z M2.7,1.1c-0.9,0-1.6,0.7-1.6,1.6v10.9c0,0.9,0.7,1.6,1.6,1.6h10.9c0.9,0,1.5-0.7,1.5-1.6V2.7
		c0-0.9-0.6-1.6-1.5-1.6H2.7z"/>
</g>
<path opacity="0.8" fill="#FFFFFF" enable-background="new    " d="M0.6,13.6V2.7c0-1.1,0.9-2,2-2h10.9c1.1,0,2,0.9,2,2v10.8
	c0,1.1-0.9,2-2,2H2.7C1.6,15.5,0.7,14.6,0.6,13.6z"/>
<path fill="#52BF52" d="M1.6,13.1V3c0-0.8,0.4-1.4,1-1.4h1.6c0.6,0,1,0.6,1,1.4v10.1c0,0.8-0.4,1.4-1,1.4H2.6
	C2.1,14.4,1.6,13.8,1.6,13.1z"/>
<g id="Arrow_3">
	<g id="Arrow_28">
		<rect x="7.9" y="4.1" fill="none" width="8.5" height="5.9"/>
		<polygon fill="#D33737" points="15.1,6.6 8.9,6.6 11.4,4.1 8.4,4.1 4.9,7.7 8.4,11.2 11.4,11.2 8.9,8.8 15.1,8.8 		"/>
	</g>
</g>
</svg>
