<?xml version="1.0" encoding="utf-8"?>
<!-- Generator: Adobe Illustrator 18.0.0, SVG Export Plug-In . SVG Version: 6.00 Build 0)  -->
<!DOCTYPE svg PUBLIC "-//W3C//DTD SVG 1.1//EN" "http://www.w3.org/Graphics/SVG/1.1/DTD/svg11.dtd">
<svg version="1.1" id="Layer_1" xmlns="http://www.w3.org/2000/svg" xmlns:xlink="http://www.w3.org/1999/xlink" x="0px" y="0px"
	 viewBox="0 0 16 16" enable-background="new 0 0 16 16" xml:space="preserve">
<polygon opacity="0.8" fill="#FFFFFF" enable-background="new    " points="14.4,15 3.2,15 3.2,1 10,1 14.4,4.7 "/>
<path opacity="0.5" enable-background="new    " d="M10.2,0.2H2.4v15.6h12.7V4.3L10.2,0.2z M10.3,1.3l3.6,3 M14.4,4.7V15
	c0,0-11.2,0-11.2,0V1L10,1"/>
<polygon opacity="0.8" points="10,4.7 10,1 9.2,1 9.2,5.5 9.7,5.5 9.7,5.5 14.4,5.5 14.4,4.7 "/>
<rect x="0.1" y="6.4" fill="#1C3B59" width="15" height="7"/>
<g>
	<path fill="#FFFFFF" d="M1.7,11.3h2.1V12H0.9V7.8h0.8V11.3z"/>
	<path fill="#FFFFFF" d="M5.2,8.6v1h2.1v0.7H5.2v1h2.1V12H4.4V7.8h2.9v0.7L5.2,8.6L5.2,8.6z"/>
	<path fill="#FFFFFF" d="M7.8,10.3V7.8h2.9v0.7H8.6v1h2.1v2.4H7.8v-0.7h2.1v-1L7.8,10.3L7.8,10.3z"/>
	<path fill="#FFFFFF" d="M11.2,10.3V7.8h2.9v0.7H12v1h2.1v2.4h-2.9v-0.7h2.1v-1L11.2,10.3L11.2,10.3z"/>
</g>
</svg>
