<?xml version="1.0" encoding="utf-8"?>
<!-- Generator: Adobe Illustrator 18.0.0, SVG Export Plug-In . SVG Version: 6.00 Build 0)  -->
<!DOCTYPE svg PUBLIC "-//W3C//DTD SVG 1.1//EN" "http://www.w3.org/Graphics/SVG/1.1/DTD/svg11.dtd">
<svg version="1.1" id="Layer_1" xmlns="http://www.w3.org/2000/svg" xmlns:xlink="http://www.w3.org/1999/xlink" x="0px" y="0px"
	 viewBox="0 0 16 16" enable-background="new 0 0 16 16" xml:space="preserve">
<polygon opacity="0.8" fill="#FFFFFF" points="14.6,15.6 2.4,15.6 2.4,0.4 9.9,0.4 14.6,4.4 "/>
<path opacity="0.3" d="M10,0H2v16h13V4.2L10,0z M10.1,1.1l3.7,3.1h-3.7V1.1z M2.8,15.2V0.8h6.5v4.1h5v10.3H2.8z"/>
<rect x="0.1" y="6.4" fill="#1C3B59" width="15" height="7"/>
<g>
	<path fill="#FFFFFF" d="M1.7,11.3h2.1V12H0.9V7.8h0.8V11.3z"/>
	<path fill="#FFFFFF" d="M5.2,8.6v1h2.1v0.7H5.2v1h2.1V12H4.4V7.8h2.9v0.7L5.2,8.6L5.2,8.6z"/>
	<path fill="#FFFFFF" d="M7.8,10.3V7.8h2.9v0.7H8.6v1h2.1v2.4H7.8v-0.7h2.1v-1L7.8,10.3L7.8,10.3z"/>
	<path fill="#FFFFFF" d="M11.2,10.3V7.8h2.9v0.7H12v1h2.1v2.4h-2.9v-0.7h2.1v-1L11.2,10.3L11.2,10.3z"/>
</g>
</svg>
