<?xml version="1.0" encoding="iso-8859-1"?>
<!-- Generator: Adobe Illustrator 18.0.0, SVG Export Plug-In . SVG Version: 6.00 Build 0)  -->
<!DOCTYPE svg PUBLIC "-//W3C//DTD SVG 1.1//EN" "http://www.w3.org/Graphics/SVG/1.1/DTD/svg11.dtd">
<svg version="1.1" id="Capa_1" xmlns="http://www.w3.org/2000/svg" xmlns:xlink="http://www.w3.org/1999/xlink" x="0px" y="0px"
	 viewBox="0 0 297 297" style="enable-background:new 0 0 297 297;" xml:space="preserve">
<g>
	<path d="M228.125,200.615c-4.939,6.18-12.308,9.725-20.219,9.725h-26.93l-6.084,7.83c-4.938,6.357-12.39,10.006-20.443,10.006
		c-5.725,0-11.366-1.938-15.875-5.449c-5.458-4.242-8.938-10.355-9.798-17.213c-0.86-6.861,1.002-13.646,5.244-19.1L249.525,37.76
		V10.086C249.525,4.518,245.011,0,239.442,0H18.158C12.587,0,8.073,4.518,8.073,10.086v276.83c0,5.568,4.514,10.084,10.085,10.084
		h221.284c5.568,0,10.083-4.516,10.083-10.084v-113.08L228.125,200.615z M55.038,57.381h55.32c4.456,0,8.067,3.611,8.067,8.068
		c0,4.455-3.611,8.066-8.067,8.066h-55.32c-4.456,0-8.068-3.611-8.068-8.066C46.97,60.992,50.582,57.381,55.038,57.381z
		 M55.038,94.295h116.98c4.454,0,8.067,3.613,8.067,8.068c0,4.455-3.613,8.068-8.067,8.068H55.038c-4.456,0-8.068-3.613-8.068-8.068
		C46.97,97.908,50.582,94.295,55.038,94.295z M110.358,165.797h-55.32c-4.456,0-8.068-3.613-8.068-8.068
		c0-4.457,3.612-8.068,8.068-8.068h55.32c4.456,0,8.067,3.611,8.067,8.068C118.426,162.184,114.814,165.797,110.358,165.797z"/>
	<path d="M148.476,209.988c1.777,1.383,3.884,2.051,5.974,2.051c2.905,0,5.778-1.293,7.699-3.766l10.933-14.068h34.825
		c2.961,0,5.762-1.346,7.609-3.66l71.278-89.178c1.382-1.729,2.133-3.875,2.133-6.086v-53.51c0-4.164-2.645-7.869-6.585-9.221
		c-1.035-0.355-2.101-0.527-3.153-0.527c-2.954,0-5.817,1.344-7.699,3.766L146.762,196.314
		C143.458,200.563,144.227,206.686,148.476,209.988z"/>
</g>
<g>
</g>
<g>
</g>
<g>
</g>
<g>
</g>
<g>
</g>
<g>
</g>
<g>
</g>
<g>
</g>
<g>
</g>
<g>
</g>
<g>
</g>
<g>
</g>
<g>
</g>
<g>
</g>
<g>
</g>
</svg>
