<?xml version="1.0" encoding="utf-8"?>
<!-- Generator: Adobe Illustrator 18.0.0, SVG Export Plug-In . SVG Version: 6.00 Build 0)  -->
<!DOCTYPE svg PUBLIC "-//W3C//DTD SVG 1.1//EN" "http://www.w3.org/Graphics/SVG/1.1/DTD/svg11.dtd">
<svg version="1.1" id="Layer_1" xmlns="http://www.w3.org/2000/svg" xmlns:xlink="http://www.w3.org/1999/xlink" x="0px" y="0px"
	 viewBox="0 0 16 16" enable-background="new 0 0 16 16" xml:space="preserve">
<path opacity="0.8" fill="none" stroke="#000000" stroke-miterlimit="10" enable-background="new    " d="M15.3,15.6H0.7
	c-0.1,0-0.2-0.1-0.2-0.2V1.6c0-0.6,0.4-1,1-1h13c0.6,0,1,0.4,1,1v13.8C15.5,15.5,15.4,15.6,15.3,15.6z"/>
<path opacity="0.8" fill="#FFFFFF" enable-background="new    " d="M15.4,15.6H0.6c-0.1,0-0.1-0.1-0.1-0.1V1.6c0-0.6,0.4-1,1-1h13
	c0.6,0,1,0.4,1,1v13.8C15.5,15.5,15.4,15.6,15.4,15.6z"/>
<g>
	<path fill="#268BD2" d="M15.5,4.1h-15V1.4c0-0.4,0.2-0.7,0.6-0.7h13.9c0.3,0,0.6,0.3,0.6,0.7V4.1z"/>
</g>
<g>
	<path fill="#B58900" d="M4.3,4.1H2.2V1.4c0-0.4,0.1-0.7,0.2-0.7h1.7c0.1,0,0.2,0.3,0.2,0.7V4.1z"/>
</g>
<g>
	<path fill="#B58900" d="M9.1,4.1H6.9V1.4C6.9,1,7,0.7,7.2,0.7h1.7C9,0.7,9.1,1,9.1,1.4V4.1z"/>
</g>
<g>
	<path fill="#B58900" d="M14.3,4.1h-2.2V1.4c0-0.4,0.1-0.7,0.2-0.7h1.7c0.1,0,0.2,0.3,0.2,0.7V4.1z"/>
</g>
<line opacity="0.8" fill="none" stroke="#000000" stroke-miterlimit="10" enable-background="new    " x1="0.5" y1="4.5" x2="15.5" y2="4.5"/>
</svg>
