<?xml version="1.0" encoding="utf-8"?>
<!-- Generator: Adobe Illustrator 18.0.0, SVG Export Plug-In . SVG Version: 6.00 Build 0)  -->
<!DOCTYPE svg PUBLIC "-//W3C//DTD SVG 1.1//EN" "http://www.w3.org/Graphics/SVG/1.1/DTD/svg11.dtd">
<svg version="1.1" id="Layer_1" xmlns="http://www.w3.org/2000/svg" xmlns:xlink="http://www.w3.org/1999/xlink" x="0px" y="0px"
	 viewBox="0 0 16 16" enable-background="new 0 0 16 16" xml:space="preserve">
<g opacity="0.3" enable-background="new    ">
	<path d="M13.5,15.8H2.7c-1.3,0-2.4-1.1-2.4-2.4V2.6c0-1.3,1.1-2.4,2.4-2.4h10.9c1.3,0,2.4,1.1,2.4,2.4v10.9
		C15.9,14.7,14.8,15.8,13.5,15.8z M2.7,0.9C1.8,0.9,1,1.7,1,2.6v10.9c0,0.9,0.7,1.6,1.6,1.6h10.9c0.9,0,1.6-0.7,1.6-1.6V2.6
		c0-0.9-0.7-1.6-1.6-1.6L2.7,0.9L2.7,0.9z"/>
</g>
<path opacity="0.8" fill="#FFFFFF" enable-background="new    " d="M13.5,15.4H2.7c-1.1,0-2-0.9-2-2V2.6c0-1.1,0.9-2,2-2h10.9
	c1.1,0,2,0.9,2,2v10.9C15.5,14.5,14.6,15.4,13.5,15.4z"/>
<path fill="#D33737" d="M7.7,4c0-0.3-0.2-0.5-0.6-0.6C6.8,3.5,6.6,3.7,6.6,4v1.6L3.5,2.6C3.3,2.4,3,2.4,2.8,2.6
	C2.6,2.8,2.5,3.1,2.7,3.3l3.1,3.1L4.1,6.4c-0.3,0-0.5,0.2-0.6,0.6C3.5,7.3,3.8,7.4,4.1,7.5l3.4-0.1l0,0l0,0L7.7,4z"/>
<path fill="#D33737" d="M8.2,8.7L8.2,8.7L8.2,8.7L8.1,12c0.1,0.4,0.2,0.6,0.6,0.6c0.4-0.1,0.6-0.3,0.6-0.6l-0.1-1.8l3.1,3.1
	c0.2,0.2,0.6,0.2,0.8-0.1c0.2-0.2,0.2-0.5,0-0.7L10,9.6h1.6C12,9.5,12.2,9.3,12.2,9c-0.1-0.4-0.3-0.6-0.6-0.6L8.2,8.7z"/>
</svg>
