<?xml version="1.0" encoding="utf-8"?>
<!-- Generator: Adobe Illustrator 18.0.0, SVG Export Plug-In . SVG Version: 6.00 Build 0)  -->
<!DOCTYPE svg PUBLIC "-//W3C//DTD SVG 1.1//EN" "http://www.w3.org/Graphics/SVG/1.1/DTD/svg11.dtd">
<svg version="1.1" id="Layer_1" xmlns="http://www.w3.org/2000/svg" xmlns:xlink="http://www.w3.org/1999/xlink" x="0px" y="0px"
	 viewBox="0 0 16 16" enable-background="new 0 0 16 16" xml:space="preserve">
<polygon opacity="0.8" fill="#FFFFFF" enable-background="new    " points="14.1,15 2.9,15 2.9,1 9.7,1 14.1,4.7 "/>
<path opacity="0.5" enable-background="new    " d="M9.9,0.2H2.1v15.6h12.7V4.3L9.9,0.2z M10,1.3l3.6,3 M14.1,4.7V15H2.9V1h6.8"/>
<polygon opacity="0.5" enable-background="new    " points="9.7,4.7 9.7,1 8.9,1 8.9,5.5 9.4,5.5 9.4,5.5 14.1,5.5 14.1,4.7 "/>
<polygon opacity="0.8" points="8.5,6 9.8,8.6 12.6,9 10.6,11.1 11,14 8.5,12.6 5.9,14 6.4,11.1 4.3,9 7.1,8.6 "/>
</svg>
