<?xml version="1.0" encoding="utf-8"?>
<!-- Generator: Adobe Illustrator 18.0.0, SVG Export Plug-In . SVG Version: 6.00 Build 0)  -->
<!DOCTYPE svg PUBLIC "-//W3C//DTD SVG 1.1//EN" "http://www.w3.org/Graphics/SVG/1.1/DTD/svg11.dtd">
<svg version="1.1" id="Layer_1" xmlns="http://www.w3.org/2000/svg" xmlns:xlink="http://www.w3.org/1999/xlink" x="0px" y="0px"
	 viewBox="0 0 16 16" enable-background="new 0 0 16 16" xml:space="preserve">
<g opacity="0.8" enable-background="new    ">
	<path d="M10.9,15.4l-8.8-1c-1.3,0-2-0.9-2-2V3.6c0-1.1,0.9-2,2-2l8.8-1c1.1,0,2,0.9,2,2v10.9C12.9,14.4,12,15.3,10.9,15.4z M2,2.3
		c-0.7,0-1.2,0.6-1.2,1.3v8.9c0,0.7,0.5,1.3,1.2,1.3l8.9,1c0.7,0,1.3-0.6,1.3-1.3V2.6c0-0.7-0.6-1.3-1.3-1.3L2,2.3z"/>
</g>
<path opacity="0.8" fill="#FFFFFF" enable-background="new    " d="M10.8,14.8l-8.5-1c-0.9-0.1-1.5-0.4-1.5-1.5V3.8
	c0-0.9,0.5-1.5,1.4-1.5l8.6-1c0.9,0,1.4,0.6,1.4,1.4v10.6C12.1,14.4,11.6,14.8,10.8,14.8z"/>
<path opacity="0.8" enable-background="new    " d="M12.6,14.4h1c1.1,0,2-0.9,2-2V3.6c0-1.1-0.9-2-1.9-2h-1.1l0.3,0.7h0.9
	c0.7,0,1.2,0.6,1.2,1.3v8.9c0,0.7-0.5,1.3-1.2,1.3h-0.9"/>
<path opacity="0.3" enable-background="new    " d="M13.6,13.8h-0.7V2.2h0.8c0.8,0,1.3,0.5,1.3,1.5v8.6C15,13.5,14.3,13.8,13.6,13.8
	z"/>
<polygon opacity="0.8" points="6.5,3.3 7.9,6.1 11.1,6.6 8.8,8.8 9.3,12 6.5,10.5 3.7,12 4.2,8.8 1.9,6.6 5.1,6.1 "/>
</svg>
