<?xml version="1.0" encoding="utf-8"?>
<!-- Generator: Adobe Illustrator 18.0.0, SVG Export Plug-In . SVG Version: 6.00 Build 0)  -->
<!DOCTYPE svg PUBLIC "-//W3C//DTD SVG 1.1//EN" "http://www.w3.org/Graphics/SVG/1.1/DTD/svg11.dtd">
<svg version="1.1" id="Layer_1" xmlns="http://www.w3.org/2000/svg" xmlns:xlink="http://www.w3.org/1999/xlink" x="0px" y="0px"
	 viewBox="0 0 16 16" enable-background="new 0 0 16 16" xml:space="preserve">
<path opacity="0.8" fill="#FFFFFF" enable-background="new    " d="M13.4,15.2H2.8c-1.1,0-1.8-0.8-1.8-1.9V2.6
	c0-1.1,0.7-1.8,1.8-1.8h10.8c1.1,0,1.7,0.7,1.7,1.8l0.1,10.6C15.4,14.5,14.7,15.2,13.4,15.2z"/>
<g opacity="0.5" enable-background="new    ">
	<path d="M13.4,15.8h-11c-1.3,0-2.3-1-2.3-2.3v-11c0-1.3,1-2.3,2.3-2.3h11.1c1.3,0,2.3,1,2.3,2.3v11.1
		C15.9,14.8,14.9,15.8,13.4,15.8z M2.5,0.9C1.7,0.9,1,1.6,1,2.5v11.1c0,0.9,0.7,1.6,1.6,1.6h11.1c0.9,0,1.6-0.7,1.6-1.6V2.5
		c0-0.9-0.7-1.6-1.6-1.6H2.5z"/>
</g>
<path opacity="0.8" enable-background="new    " d="M5.1,3.6V1.8c0-0.1,0.2-0.2,0.4-0.2h5.2c0.2,0,0.4,0.1,0.4,0.2v1.9L5.1,3.6z"/>
<path opacity="0.8" enable-background="new    " d="M10.9,14.8L8,12.9l-2.9,1.9V8.7l5.9,0L10.9,14.8z"/>
<path opacity="0.8" fill="#249112" enable-background="new    " d="M11.1,5.8L8.3,4.2c-0.1-0.1-0.3,0-0.3,0.2v0.9l-3.1,0v1.4l3.1,0
	v0.9c0,0.1,0.2,0.2,0.3,0.2l2.8-1.6C11.2,6.2,11.2,6,11.1,5.8z"/>
</svg>
