<?xml version="1.0" encoding="utf-8"?>
<!-- Generator: Adobe Illustrator 18.0.0, SVG Export Plug-In . SVG Version: 6.00 Build 0)  -->
<!DOCTYPE svg PUBLIC "-//W3C//DTD SVG 1.1//EN" "http://www.w3.org/Graphics/SVG/1.1/DTD/svg11.dtd">
<svg version="1.1" id="Layer_1" xmlns="http://www.w3.org/2000/svg" xmlns:xlink="http://www.w3.org/1999/xlink" x="0px" y="0px"
	 viewBox="0 0 16 16" enable-background="new 0 0 16 16" xml:space="preserve">
<path opacity="0.8" fill="#FFFFFF" enable-background="new    " d="M13.3,15.2H2.6c-1.1,0-1.7-0.8-1.7-1.8V2.6
	c0-1.1,0.6-1.8,1.7-1.8h10.8c1.1,0,1.9,0.6,1.9,1.7v10.8C15.3,14.6,14.5,15.2,13.3,15.2z"/>
<g opacity="0.5" enable-background="new    ">
	<path d="M13.4,15.8h-11c-1.3,0-2.3-1-2.3-2.3v-11c0-1.3,1-2.3,2.3-2.3h11.1c1.3,0,2.3,1,2.3,2.3v11.1
		C15.9,14.8,14.9,15.8,13.4,15.8z M2.5,0.9C1.7,0.9,1,1.6,1,2.5v11.1c0,0.9,0.7,1.6,1.6,1.6h11.1c0.9,0,1.6-0.7,1.6-1.6V2.5
		c0-0.9-0.7-1.6-1.6-1.6H2.5z"/>
</g>
<path opacity="0.8" d="M3.3,7.1C3,7.1,2.9,6.9,3.1,6.7l4.6-4.1c0.2-0.2,0.6-0.2,0.8,0l4.8,4.1c0.2,0.2,0.2,0.3-0.1,0.3H3.3z"/>
<path opacity="0.8" d="M12.5,7.8H3.7C3.5,7.8,3.2,8,3.2,8.3L4.4,13c0,0.3,0.2,0.5,0.5,0.5h2.3v-3h2.1v3h2.1c0.3,0,0.5-0.2,0.5-0.5
	L13,8.3C13,8,12.8,7.8,12.5,7.8z"/>
</svg>
