<?xml version="1.0" encoding="utf-8"?>
<!-- Generator: Adobe Illustrator 18.0.0, SVG Export Plug-In . SVG Version: 6.00 Build 0)  -->
<!DOCTYPE svg PUBLIC "-//W3C//DTD SVG 1.1//EN" "http://www.w3.org/Graphics/SVG/1.1/DTD/svg11.dtd">
<svg version="1.1" id="Layer_1" xmlns="http://www.w3.org/2000/svg" xmlns:xlink="http://www.w3.org/1999/xlink" x="0px" y="0px"
	 viewBox="0 0 16 16" enable-background="new 0 0 16 16" xml:space="preserve">
<g opacity="0.3" enable-background="new    ">
	<path d="M0.2,13.6V2.7c0-1.3,1.1-2.4,2.4-2.4h10.9c1.3,0,2.4,1.1,2.4,2.4v10.8c0,1.3-1.1,2.4-2.4,2.4H2.7
		C1.4,15.9,0.3,14.8,0.2,13.6z M2.7,1.1c-0.9,0-1.6,0.7-1.6,1.6v10.9c0,0.9,0.7,1.6,1.6,1.6h10.9c0.9,0,1.5-0.7,1.5-1.6V2.7
		c0-0.9-0.6-1.6-1.5-1.6H2.7z"/>
</g>
<path opacity="0.8" fill="#FFFFFF" enable-background="new    " d="M0.6,13.6V2.7c0-1.1,0.9-2,2-2h10.9c1.1,0,2,0.9,2,2v10.8
	c0,1.1-0.9,2-2,2H2.7C1.6,15.5,0.7,14.6,0.6,13.6z"/>
<g>
	<path fill="#3080C1" d="M2.9,12.5V4.1C2.9,3.5,3.5,3,4.3,3h2.2c0.8,0,1.4,0.5,1.4,1.1v8.4c0,0.6-0.6,1.1-1.4,1.1H4.3
		C3.5,13.7,2.9,13.2,2.9,12.5z M4.3,3.6C4,3.6,3.7,3.8,3.7,4.1v8.4C3.7,12.8,4,13,4.3,13h2.2c0.3,0,0.6-0.2,0.6-0.5V4.1
		c0-0.3-0.3-0.5-0.6-0.5C6.5,3.6,4.3,3.6,4.3,3.6z"/>
</g>
<g>
	<path fill="#D84427" d="M8.2,12.5V4.1C8.2,3.5,8.9,3,9.6,3h2.2c0.8,0,1.4,0.5,1.4,1.1v8.4c0,0.6-0.6,1.1-1.4,1.1H9.6
		C8.9,13.7,8.2,13.2,8.2,12.5z M9.6,3.6C9.3,3.6,9,3.8,9,4.1v8.4C9,12.8,9.3,13,9.6,13h2.2c0.3,0,0.6-0.2,0.6-0.5V4.1
		c0-0.3-0.3-0.5-0.6-0.5H9.6z"/>
</g>
<path opacity="0.3" fill="#3080C1" d="M4.2,3.6c-0.3,0-0.6,0.2-0.6,0.5V13c0,0.3,0.3,0.5,0.6,0.5h2.3c0.3,0,0.6-0.2,0.6-0.5V4.1
	c0-0.3-0.3-0.5-0.6-0.5C6.6,3.6,4.2,3.6,4.2,3.6z"/>
<path opacity="0.3" fill="#D84427" d="M9.5,3.6c-0.3,0-0.6,0.2-0.6,0.5V13c0,0.3,0.3,0.5,0.6,0.5h2.3c0.3,0,0.6-0.2,0.6-0.5V4.1
	c0-0.3-0.3-0.5-0.6-0.5H9.5z"/>
</svg>
