<?xml version="1.0" encoding="utf-8"?>
<!-- Generator: Adobe Illustrator 18.0.0, SVG Export Plug-In . SVG Version: 6.00 Build 0)  -->
<!DOCTYPE svg PUBLIC "-//W3C//DTD SVG 1.1//EN" "http://www.w3.org/Graphics/SVG/1.1/DTD/svg11.dtd">
<svg version="1.1" id="Layer_1" xmlns="http://www.w3.org/2000/svg" xmlns:xlink="http://www.w3.org/1999/xlink" x="0px" y="0px"
	 viewBox="0 0 16 16" enable-background="new 0 0 16 16" xml:space="preserve">
<g>
	<path fill="#3080C1" d="M0.8,13.9V2.2c0-0.8,0.8-1.5,2-1.5h3.1c1.1,0,2,0.7,2,1.5v11.8c0,0.8-0.8,1.5-2,1.5H2.8
		C1.7,15.6,0.8,14.9,0.8,13.9z M2.8,1.5C2.4,1.5,2,1.7,2,2.2v11.8c0,0.4,0.4,0.7,0.8,0.7h3.1c0.4,0,0.8-0.3,0.8-0.7V2.2
		c0-0.4-0.4-0.7-0.8-0.7C5.9,1.5,2.8,1.5,2.8,1.5z"/>
</g>
<g>
	<path fill="#D84427" d="M8.3,13.9V2.2c0-0.8,1-1.5,2-1.5h3.1c1.1,0,2,0.7,2,1.5v11.8c0,0.8-0.8,1.5-2,1.5h-3.1
		C9.2,15.6,8.3,14.9,8.3,13.9z M10.2,1.5c-0.4,0-0.8,0.3-0.8,0.7v11.8c0,0.4,0.4,0.7,0.8,0.7h3.1c0.4,0,0.8-0.3,0.8-0.7V2.2
		c0-0.4-0.4-0.7-0.8-0.7H10.2z"/>
</g>
<path opacity="0.3" fill="#3080C1" d="M2.7,1.5c-0.4,0-0.8,0.3-0.8,0.7v11.8c0,0.4,0.4,0.7,0.8,0.7h3.1c0.4,0,0.8-0.3,0.8-0.7V2.2
	c0-0.4-0.4-0.7-0.8-0.7C5.8,1.5,2.7,1.5,2.7,1.5z"/>
<path opacity="0.3" fill="#D84427" d="M10.2,1.5c-0.4,0-0.8,0.3-0.8,0.7v11.8c0,0.4,0.4,0.7,0.8,0.7h3.1c0.4,0,0.8-0.3,0.8-0.7V2.2
	c0-0.4-0.4-0.7-0.8-0.7H10.2z"/>
</svg>
