<?xml version="1.0" encoding="utf-8"?>
<!-- Generator: Adobe Illustrator 18.0.0, SVG Export Plug-In . SVG Version: 6.00 Build 0)  -->
<!DOCTYPE svg PUBLIC "-//W3C//DTD SVG 1.1//EN" "http://www.w3.org/Graphics/SVG/1.1/DTD/svg11.dtd">
<svg version="1.1" id="Layer_1" xmlns="http://www.w3.org/2000/svg" xmlns:xlink="http://www.w3.org/1999/xlink" x="0px" y="0px"
	 viewBox="0 0 16 16" enable-background="new 0 0 16 16" xml:space="preserve">
<path opacity="0.8" fill="#FFFFFF" enable-background="new    " d="M1.6,1.5c-0.6,0-1,0.7-1,1.2v10.4c0,0.7,0.5,1.2,1,1.2h8.8
	c0.6,0,1-0.6,1-1.2V2.8c0-0.7-0.5-1.2-1.1-1.2H8.2V0.6c0-0.2-0.1-0.3-0.6-0.3H4.5C4,0.3,3.9,0.4,3.9,0.6v0.8H1.6z"/>
<path opacity="0.8" fill="none" stroke="#000000" stroke-width="0.75" stroke-miterlimit="10" enable-background="new    " d="
	M1.6,1.5c-0.6,0-1,0.7-1,1.2v10.4c0,0.7,0.5,1.2,1,1.2h8.9c0.6,0,1-0.6,1-1.2V2.8c0-0.7-0.5-1.2-1.1-1.2H8.3V0.6
	c0-0.2-0.1-0.3-0.6-0.3H4.6C4.1,0.3,4,0.4,4,0.6v0.8H1.6z"/>
<g id="Arrow_10">
</g>
<path opacity="0.8" fill="#050505" enable-background="new    " d="M9.7,5.2H2.2C1.9,5.2,1.7,5,1.7,4.7V4.5c0-0.3,0.2-0.5,0.5-0.5
	h7.5c0.3,0,0.5,0.2,0.5,0.5v0.2C10.3,5,9.9,5.2,9.7,5.2z"/>
<path opacity="0.8" fill="#050505" enable-background="new    " d="M9.7,8.6H2.3C2,8.6,1.8,8.4,1.8,8.1V7.8c0-0.3,0.2-0.5,0.5-0.5
	h7.5c0.3,0,0.5,0.2,0.5,0.5V8C10.4,8.3,10,8.6,9.7,8.6z"/>
<path opacity="0.8" fill="#050505" enable-background="new    " d="M9.6,12.2H2.1c-0.3,0-0.5-0.2-0.5-0.5v-0.2
	c0-0.3,0.2-0.5,0.5-0.5h7.5c0.3,0,0.5,0.2,0.5,0.5v0.2C10.2,12,9.9,12.2,9.6,12.2z"/>
<g opacity="0.8">
	<path fill="#050202" d="M6.9,2c0,0.2-0.1,0.4-0.2,0.4H5.5C5.4,2.4,5.3,2.2,5.3,2l0,0c0-0.2,0.1-0.4,0.1-0.4h1.4
		C6.9,1.6,6.9,1.8,6.9,2L6.9,2z"/>
</g>
<path opacity="0.8" fill="#D33737" d="M9.4,7.3C9,7.3,8.7,7.9,8.7,8.2v7c0,0.4,0.3,0.9,0.8,0.9h5.8c0.4,0,0.8-0.4,0.8-0.9v-7
	c0-0.4-0.3-0.9-0.8-0.9H9.4z"/>
<path opacity="0.8" fill="none" stroke="#000000" stroke-width="0.75" stroke-miterlimit="10" enable-background="new    " d="
	M9.4,7.3C9,7.3,8.7,7.9,8.7,8.2v7c0,0.4,0.3,0.9,0.8,0.9h5.8c0.4,0,0.8-0.4,0.8-0.9v-7c0-0.4-0.3-0.9-0.8-0.9H9.4z"/>
</svg>
