<?xml version="1.0" encoding="utf-8"?>
<!-- Generator: Adobe Illustrator 18.0.0, SVG Export Plug-In . SVG Version: 6.00 Build 0)  -->
<!DOCTYPE svg PUBLIC "-//W3C//DTD SVG 1.1//EN" "http://www.w3.org/Graphics/SVG/1.1/DTD/svg11.dtd">
<svg version="1.1" id="Layer_1" xmlns="http://www.w3.org/2000/svg" xmlns:xlink="http://www.w3.org/1999/xlink" x="0px" y="0px"
	 viewBox="0 0 16 16" enable-background="new 0 0 16 16" xml:space="preserve">
<g opacity="0.3" enable-background="new    ">
	<path d="M0.2,13.8V2.9c0-1.3,1.1-2.4,2.4-2.4h10.9c1.3,0,2.4,1.1,2.4,2.4v10.8c0,1.3-1.1,2.4-2.4,2.4H2.7C1.4,16.1,0.3,15,0.2,13.8
		z M2.7,1.3C1.8,1.3,1.1,2,1.1,2.9v10.9c0,0.9,0.7,1.6,1.6,1.6h10.9c0.9,0,1.5-0.7,1.5-1.6V2.9c0-0.9-0.6-1.6-1.5-1.6
		C13.6,1.3,2.7,1.3,2.7,1.3z"/>
</g>
<path opacity="0.8" fill="#FFFFFF" enable-background="new    " d="M0.6,13.8V2.9c0-1.1,0.9-2,2-2h10.9c1.1,0,2,0.9,2,2v10.8
	c0,1.1-0.9,2-2,2H2.7C1.6,15.7,0.7,14.8,0.6,13.8z"/>
<path opacity="0.8" fill="#FFFFFF" enable-background="new    " d="M2.4,2.5c-0.6,0-1,0.7-1,1.2v10.1c0,0.7,0.5,1.2,1,1.2h8.5
	c0.6,0,1-0.6,1-1.2V3.8c0-0.7-0.5-1.2-1.1-1.2h-2V1.7c0-0.2-0.1-0.3-0.6-0.3h-3c-0.5,0-0.6,0.1-0.6,0.3v0.8H2.4z"/>
<path opacity="0.8" fill="none" stroke="#000000" stroke-width="0.75" stroke-miterlimit="10" enable-background="new    " d="
	M2.4,2.5c-0.6,0-1,0.7-1,1.2v10.1c0,0.7,0.5,1.2,1,1.2H11c0.6,0,1-0.6,1-1.2V3.8c0-0.7-0.5-1.2-1.1-1.2h-2V1.7
	c0-0.2-0.1-0.3-0.6-0.3h-3c-0.5,0-0.6,0.1-0.6,0.3v0.8H2.4z"/>
<g id="Arrow_10">
</g>
<path opacity="0.8" fill="#050505" enable-background="new    " d="M10.3,6.1H3c-0.3,0-0.5-0.2-0.5-0.5V5.4c0-0.3,0.2-0.5,0.5-0.5
	h7.3c0.3,0,0.5,0.2,0.5,0.5v0.2C10.8,5.9,10.5,6.1,10.3,6.1z"/>
<path opacity="0.8" fill="#050505" enable-background="new    " d="M10.3,9.4H3.1c-0.3,0-0.5-0.2-0.5-0.5V8.6c0-0.3,0.2-0.5,0.5-0.5
	h7.3c0.3,0,0.5,0.2,0.5,0.5v0.2C10.9,9.1,10.6,9.4,10.3,9.4z"/>
<path opacity="0.8" fill="#050505" enable-background="new    " d="M10.2,12.9H2.9c-0.3,0-0.5-0.2-0.5-0.5v-0.2
	c0-0.3,0.2-0.5,0.5-0.5h7.3c0.3,0,0.5,0.2,0.5,0.5v0.2C10.7,12.7,10.5,12.9,10.2,12.9z"/>
<g opacity="0.8">
	<path fill="#050202" d="M7.5,2.8c0,0.2-0.1,0.4-0.2,0.4H6.1c-0.1,0-0.2-0.2-0.2-0.4l0,0c0-0.2,0.1-0.4,0.1-0.4h1.4
		C7.5,2.4,7.5,2.6,7.5,2.8L7.5,2.8z"/>
</g>
<path fill="#D33737" d="M8.7,6.2C8.3,6.2,8,6.7,8,7v6.5c0,0.4,0.3,0.8,0.7,0.8h5.4c0.4,0,0.7-0.4,0.7-0.8V7c0-0.4-0.3-0.8-0.7-0.8
	h-1.3V5.7c0-0.1-0.1-0.2-0.4-0.2h-1.9c-0.3,0-0.4,0.1-0.4,0.2v0.5H8.7z"/>
<path opacity="0.8" fill="none" stroke="#000000" stroke-width="0.75" stroke-miterlimit="10" enable-background="new    " d="
	M8.9,6.2C8.6,6.2,8.3,6.7,8.3,7v6.5c0,0.4,0.3,0.8,0.7,0.8h5.4c0.4,0,0.7-0.4,0.7-0.8V7c0-0.4-0.3-0.8-0.7-0.8H13V5.7
	c0-0.1-0.1-0.2-0.4-0.2h-1.9c-0.3,0-0.4,0.1-0.4,0.2v0.5H8.9z"/>
</svg>
