<?xml version="1.0" encoding="utf-8"?>
<!-- Generator: Adobe Illustrator 18.0.0, SVG Export Plug-In . SVG Version: 6.00 Build 0)  -->
<!DOCTYPE svg PUBLIC "-//W3C//DTD SVG 1.1//EN" "http://www.w3.org/Graphics/SVG/1.1/DTD/svg11.dtd">
<svg version="1.1" id="Layer_1" xmlns="http://www.w3.org/2000/svg" xmlns:xlink="http://www.w3.org/1999/xlink" x="0px" y="0px"
	 viewBox="0 0 16 16" enable-background="new 0 0 16 16" xml:space="preserve">
<path opacity="0.8" fill="#FFFFFF" enable-background="new    " d="M1.4,1.4c-0.6,0-1,0.8-1,1.3v10.2c0,0.7,0.5,1.2,1,1.2H10
	c0.6,0,1-0.6,1-1.2V2.8c0-0.7-0.5-1.2-1.1-1.2H7.9v-1c0-0.2-0.1-0.3-0.6-0.3h-3c-0.5,0-0.6,0.1-0.6,0.3v0.8H1.4z"/>
<path opacity="0.8" fill="none" stroke="#000000" stroke-width="0.75" stroke-miterlimit="10" enable-background="new    " d="
	M1.4,1.4c-0.6,0-1,0.8-1,1.3v10.2c0,0.7,0.5,1.2,1,1.2h8.7c0.6,0,1-0.6,1-1.2V2.8c0-0.7-0.5-1.2-1.1-1.2H8v-1c0-0.2-0.1-0.3-0.6-0.3
	h-3c-0.5,0-0.6,0.1-0.6,0.3v0.8H1.4z"/>
<g id="Arrow_10">
</g>
<path opacity="0.8" fill="#050505" enable-background="new    " d="M9.3,5.1H2c-0.3,0-0.5-0.2-0.5-0.5V4.4c0-0.3,0.2-0.5,0.5-0.5
	h7.4c0.3,0,0.5,0.2,0.5,0.5v0.2C9.9,4.9,9.5,5.1,9.3,5.1z"/>
<path opacity="0.8" fill="#050505" enable-background="new    " d="M9.3,8.5H2.1C1.8,8.5,1.6,8.3,1.6,8V7.7c0-0.3,0.2-0.5,0.5-0.5
	h7.4c0.3,0,0.5,0.2,0.5,0.5v0.2C10,8.2,9.6,8.5,9.3,8.5z"/>
<path opacity="0.8" fill="#050505" enable-background="new    " d="M9.7,12.2H2.2c-0.3,0-0.5-0.2-0.5-0.5v-0.2
	c0-0.3,0.2-0.5,0.5-0.5h7.5c0.3,0,0.5,0.2,0.5,0.5v0.2C10.3,12,10,12.2,9.7,12.2z"/>
<g opacity="0.8">
	<path fill="#050202" d="M6.6,2c0,0.2-0.1,0.4-0.2,0.4H5.2C5.1,2.4,5,2.2,5,2l0,0c0-0.2,0.1-0.4,0.1-0.4h1.4C6.6,1.6,6.6,1.8,6.6,2
		L6.6,2z"/>
</g>
<path opacity="0.8" fill="#D33737" enable-background="new    " d="M9,7.2c-0.4,0-0.7,0.6-0.7,0.9V15c0,0.4,0.3,0.9,0.8,0.9h5.7
	c0.4,0,0.8-0.4,0.8-0.9V8.1c0-0.4-0.3-0.9-0.8-0.9C14.8,7.2,9,7.2,9,7.2z"/>
<path opacity="0.8" fill="none" stroke="#000000" stroke-width="0.75" stroke-miterlimit="10" enable-background="new    " d="
	M9,7.2c-0.4,0-0.7,0.6-0.7,0.9V15c0,0.4,0.3,0.9,0.8,0.9h5.7c0.4,0,0.8-0.4,0.8-0.9V8.1c0-0.4-0.3-0.9-0.8-0.9C14.8,7.2,9,7.2,9,7.2
	z"/>
</svg>
