<?xml version="1.0" encoding="utf-8"?>
<!-- Generator: Adobe Illustrator 18.0.0, SVG Export Plug-In . SVG Version: 6.00 Build 0)  -->
<!DOCTYPE svg PUBLIC "-//W3C//DTD SVG 1.1//EN" "http://www.w3.org/Graphics/SVG/1.1/DTD/svg11.dtd">
<svg version="1.1" id="Layer_1" xmlns="http://www.w3.org/2000/svg" xmlns:xlink="http://www.w3.org/1999/xlink" x="0px" y="0px"
	 viewBox="0 0 16 16" enable-background="new 0 0 16 16" xml:space="preserve">
<polygon opacity="0.8" fill="#FFFFFF" enable-background="new    " points="14.4,15 3.2,15 3.2,1 10,1 14.4,4.7 "/>
<path opacity="0.5" enable-background="new    " d="M10.2,0.2H2.4v15.6h12.7V4.3L10.2,0.2z M10.3,1.3l3.6,3 M14.4,4.7V15
	c0,0-11.2,0-11.2,0V1L10,1"/>
<polygon opacity="0.8" points="10,4.7 10,1 9.2,1 9.2,5.5 9.7,5.5 9.7,5.5 14.4,5.5 14.4,4.7 "/>
<rect x="0.1" y="6.4" fill="#51539A" width="15" height="7"/>
<g>
	<path fill="#FFFFFF" d="M2.6,12.4h-1v-5h3.5v2.9H2.6V12.4z M2.6,8.3v1.2h1.6V8.3H2.6z"/>
	<path fill="#FFFFFF" d="M6.7,12.4h-1v-5h1v2.1h1.6V7.4h0.9v5H8.3v-2.1H6.7V12.4z"/>
	<path fill="#FFFFFF" d="M10.8,12.4h-1v-5h3.4v2.9h-2.5L10.8,12.4L10.8,12.4z M10.8,8.3v1.2h1.6V8.3H10.8z"/>
</g>
</svg>
