<?xml version="1.0" encoding="utf-8"?>
<!-- Generator: Adobe Illustrator 18.0.0, SVG Export Plug-In . SVG Version: 6.00 Build 0)  -->
<!DOCTYPE svg PUBLIC "-//W3C//DTD SVG 1.1//EN" "http://www.w3.org/Graphics/SVG/1.1/DTD/svg11.dtd">
<svg version="1.1" id="Layer_1" xmlns="http://www.w3.org/2000/svg" xmlns:xlink="http://www.w3.org/1999/xlink" x="0px" y="0px"
	 viewBox="0 0 16 16" enable-background="new 0 0 16 16" xml:space="preserve">
<path opacity="0.8" fill="#FFFFFF" enable-background="new    " d="M13.4,15.2H2.7c-1.1,0-1.8-0.8-1.8-1.9V2.6
	c0-1.1,0.7-1.8,1.8-1.8h10.8c1.1,0,1.7,0.7,1.7,1.8l0.1,10.6C15.3,14.5,14.6,15.2,13.4,15.2z"/>
<g opacity="0.5" enable-background="new    ">
	<path d="M13.4,15.8h-11c-1.3,0-2.3-1-2.3-2.3v-11c0-1.3,1-2.3,2.3-2.3h11.1c1.3,0,2.3,1,2.3,2.3v11.1
		C15.8,14.8,14.8,15.8,13.4,15.8z M2.5,0.9c-0.9,0-1.6,0.7-1.6,1.6v11.1c0,0.9,0.7,1.6,1.6,1.6h11.1c0.9,0,1.6-0.7,1.6-1.6V2.5
		c0-0.9-0.7-1.6-1.6-1.6H2.5z"/>
</g>
<g opacity="0.8">
	<circle cx="8.1" cy="8.1" r="1.8"/>
	<path d="M13.8,7.1c-0.2,0-0.5,0.1-0.7,0.1c-0.1-0.7-0.4-1.4-0.8-2c0.2-0.1,0.4-0.3,0.6-0.4c-0.4-0.5-0.9-1-1.4-1.4
		C11.3,3.6,11.1,3.8,11,4c-0.6-0.4-1.3-0.7-2-0.8c0-0.2,0.1-0.5,0.1-0.7c-0.7-0.1-1.3-0.1-2,0c0,0.2,0.1,0.5,0.1,0.7
		C6.5,3.3,5.8,3.6,5.2,4C5.1,3.8,4.9,3.6,4.8,3.4c-0.5,0.4-1,0.9-1.4,1.4C3.6,5,3.7,5.1,3.9,5.3c-0.4,0.6-0.7,1.3-0.8,2
		c-0.2,0-0.5-0.1-0.7-0.1c-0.1,0.7-0.1,1.3,0,2c0.2,0,0.5-0.1,0.7-0.1c0.1,0.7,0.4,1.4,0.8,2c-0.2,0.1-0.4,0.3-0.6,0.4
		c0.4,0.5,0.9,1,1.4,1.4c0.1-0.2,0.3-0.4,0.4-0.6c0.6,0.4,1.3,0.7,2,0.8c0,0.2-0.1,0.5-0.1,0.7c0.7,0.1,1.3,0.1,2,0
		c0-0.2-0.1-0.5-0.1-0.7c0.7-0.1,1.4-0.4,2-0.8c0.1,0.2,0.3,0.4,0.4,0.6c0.5-0.4,1-0.9,1.4-1.4c-0.2-0.1-0.4-0.3-0.6-0.4
		c0.4-0.6,0.7-1.3,0.8-2c0.2,0,0.5,0.1,0.7,0.1C13.9,8.5,13.9,7.8,13.8,7.1z M8.1,10.9c-1.5,0-2.8-1.2-2.8-2.8
		c0-1.5,1.2-2.8,2.8-2.8c1.5,0,2.8,1.2,2.8,2.8C10.9,9.7,9.6,10.9,8.1,10.9z"/>
</g>
</svg>
