<?xml version="1.0" encoding="iso-8859-1"?>
<!-- Generator: Adobe Illustrator 16.0.0, SVG Export Plug-In . SVG Version: 6.00 Build 0)  -->
<!DOCTYPE svg PUBLIC "-//W3C//DTD SVG 1.1//EN" "http://www.w3.org/Graphics/SVG/1.1/DTD/svg11.dtd">
<svg xmlns="http://www.w3.org/2000/svg" xmlns:xlink="http://www.w3.org/1999/xlink" version="1.1" id="Capa_1" x="0px" y="0px" width="512px" height="512px" viewBox="0 0 359.982 359.982" style="enable-background:new 0 0 359.982 359.982;" xml:space="preserve">
<g>
	<g>
		<path d="M339.982,0.75H20c-11.046,0-20,8.954-20,20v318.482c0,11.046,8.954,20,20,20h319.982c11.046,0,20-8.954,20-20V20.75    C359.982,9.704,351.028,0.75,339.982,0.75z M312.823,294.401H151.255c-1.412,9.663-9.709,17.09-19.764,17.09h-23    c-10.055,0-18.352-7.427-19.765-17.09H47.159c-7.946,0-14.41-6.464-14.41-14.41c0-7.944,6.464-14.41,14.41-14.41h41.567    c1.412-9.663,9.71-17.09,19.765-17.09h23c10.055,0,18.353,7.427,19.764,17.09h161.568c7.945,0,14.41,6.464,14.41,14.41    S320.77,294.401,312.823,294.401z M312.823,194.401h-31.568c-1.412,9.663-9.709,17.09-19.764,17.09h-23    c-10.057,0-18.354-7.427-19.766-17.09H47.159c-7.946,0-14.41-6.464-14.41-14.41c0-7.945,6.464-14.41,14.41-14.41h171.566    c1.412-9.663,9.709-17.09,19.766-17.09h23c10.055,0,18.353,7.427,19.764,17.09h31.568c7.946,0,14.41,6.464,14.41,14.41    S320.77,194.401,312.823,194.401z M312.823,94.401H211.256c-1.412,9.663-9.709,17.09-19.765,17.09h-23    c-10.055,0-18.352-7.427-19.765-17.09H47.159c-7.946,0-14.41-6.464-14.41-14.41c0-7.945,6.464-14.41,14.41-14.41h101.567    c1.412-9.663,9.71-17.09,19.765-17.09h23c10.056,0,18.353,7.427,19.765,17.09h101.567c7.946,0,14.41,6.464,14.41,14.41    C327.233,87.937,320.77,94.401,312.823,94.401z" fill="#666666"/>
	</g>
</g>
<g>
</g>
<g>
</g>
<g>
</g>
<g>
</g>
<g>
</g>
<g>
</g>
<g>
</g>
<g>
</g>
<g>
</g>
<g>
</g>
<g>
</g>
<g>
</g>
<g>
</g>
<g>
</g>
<g>
</g>
</svg>
