<?xml version="1.0" encoding="utf-8"?>
<!-- Generator: Adobe Illustrator 18.0.0, SVG Export Plug-In . SVG Version: 6.00 Build 0)  -->
<!DOCTYPE svg PUBLIC "-//W3C//DTD SVG 1.1//EN" "http://www.w3.org/Graphics/SVG/1.1/DTD/svg11.dtd">
<svg version="1.1" id="Layer_1" xmlns="http://www.w3.org/2000/svg" xmlns:xlink="http://www.w3.org/1999/xlink" x="0px" y="0px"
	 viewBox="0 0 16 16" enable-background="new 0 0 16 16" xml:space="preserve">
<polygon opacity="0.8" fill="#FFFFFF" enable-background="new    " points="15.2,15.6 3,15.6 3,0.4 10.5,0.4 15.2,4.4 "/>
<path opacity="0.3" enable-background="new    " d="M10.6,0h-8v16h13V4.2L10.6,0z M10.7,1.1l3.7,3.1h-3.7V1.1z M3.4,15.2V0.8h6.5
	v4.1h5v10.3C14.9,15.2,3.4,15.2,3.4,15.2z"/>
<rect x="0.7" y="6.4" fill="#EFBE35" width="15" height="7"/>
<g>
	<path fill="#FFFFFF" d="M2,11.4H1.5v-3h1.9v1.7H2V11.4z M2,8.9v0.7h0.9V8.9H2z"/>
	<path fill="#FFFFFF" d="M5,9.9v1.5H4.4V9.9L3.8,8.4h0.5l0.4,1l0.4-0.9h0.6L5,9.9z"/>
	<path fill="#FFFFFF" d="M6.8,8.9H6.1V8.4H8v0.5H7.3v2.5H6.8V8.9z"/>
	<path fill="#FFFFFF" d="M8.9,11.4H8.4v-3h0.5v1.2h0.9V8.4h0.5v3H9.8v-1.2H8.9V11.4z"/>
	<path fill="#FFFFFF" d="M12.6,8.4v3h-1.9v-3C10.7,8.4,12.6,8.4,12.6,8.4z M12.1,8.9h-0.9v2h0.9V8.9z"/>
	<path fill="#FFFFFF" d="M13.5,11.4H13v-3h0.5l0.9,1.7V8.4h0.5v3h-0.5l-0.9-1.7V11.4z"/>
</g>
</svg>
