<?xml version="1.0" encoding="utf-8"?>
<!-- Generator: Adobe Illustrator 18.0.0, SVG Export Plug-In . SVG Version: 6.00 Build 0)  -->
<!DOCTYPE svg PUBLIC "-//W3C//DTD SVG 1.1//EN" "http://www.w3.org/Graphics/SVG/1.1/DTD/svg11.dtd">
<svg version="1.1" id="Layer_1" xmlns="http://www.w3.org/2000/svg" xmlns:xlink="http://www.w3.org/1999/xlink" x="0px" y="0px"
	 viewBox="0 0 16 16" enable-background="new 0 0 16 16" xml:space="preserve">
<polygon opacity="0.8" fill="#FFFFFF" enable-background="new    " points="15.1,15 3.9,15 3.9,1 10.7,1 15.1,4.7 "/>
<path opacity="0.5" enable-background="new    " d="M10.9,0.2H3.1v15.6h12.7V4.3L10.9,0.2z M11,1.3l3.6,3 M15.1,4.7V15
	c0,0-11.2,0-11.2,0V1l6.8,0"/>
<polygon opacity="0.8" points="10.7,4.7 10.7,1 9.9,1 9.9,5.5 10.4,5.5 10.4,5.5 15.1,5.5 15.1,4.7 "/>
<rect x="0.7" y="6.4" fill="#EFBE35" width="15" height="7"/>
<g>
	<path fill="#FFFFFF" d="M2,11.4H1.5v-3h1.9v1.7H2V11.4z M2,8.9v0.7h0.9V8.9H2z"/>
	<path fill="#FFFFFF" d="M5,9.9v1.5H4.4V9.9L3.8,8.4h0.5l0.4,1l0.4-0.9h0.6L5,9.9z"/>
	<path fill="#FFFFFF" d="M6.8,8.9H6.1V8.4H8v0.5H7.3v2.5H6.8V8.9z"/>
	<path fill="#FFFFFF" d="M8.9,11.4H8.4v-3h0.5v1.2h0.9V8.4h0.5v3H9.8v-1.2H8.9V11.4z"/>
	<path fill="#FFFFFF" d="M12.6,8.4v3h-1.9v-3C10.7,8.4,12.6,8.4,12.6,8.4z M12.1,8.9h-0.9v2h0.9V8.9z"/>
	<path fill="#FFFFFF" d="M13.5,11.4H13v-3h0.5l0.9,1.7V8.4h0.5v3h-0.5l-0.9-1.7V11.4z"/>
</g>
</svg>
