<?xml version="1.0" encoding="utf-8"?>
<!-- Generator: Adobe Illustrator 18.0.0, SVG Export Plug-In . SVG Version: 6.00 Build 0)  -->
<!DOCTYPE svg PUBLIC "-//W3C//DTD SVG 1.1//EN" "http://www.w3.org/Graphics/SVG/1.1/DTD/svg11.dtd">
<svg version="1.1" id="Layer_1" xmlns="http://www.w3.org/2000/svg" xmlns:xlink="http://www.w3.org/1999/xlink" x="0px" y="0px"
	 viewBox="0 0 16 16" enable-background="new 0 0 16 16" xml:space="preserve">
<polygon opacity="0.7" fill="#FFFFFF" enable-background="new    " points="14,15.5 2,15.5 2,0.5 9.3,0.5 14,4.4 "/>
<path opacity="0.8" enable-background="new    " d="M9.4,0.2H1.6v15.6h12.7V4.3L9.4,0.2z M9.6,1.3l3.6,3H9.6V1.3z M2.3,15.1V0.9h6.4
	v4h4.9V15C13.7,15.1,2.3,15.1,2.3,15.1z"/>
<g opacity="0.8">
	<g>
		<polygon points="7.3,12.2 10.9,8.6 9.9,7.5 6.2,11.1 		"/>
		<polygon points="5.8,10.6 6,10.8 9.5,7.3 9.4,7.1 		"/>
		<path d="M11.4,8L10,6.6c0,0-0.1-0.1-0.2,0L9.6,6.8l1.6,1.6l0.2-0.2C11.4,8.1,11.4,8,11.4,8z"/>
		<path d="M5.5,10.9l-0.2,0.2c0,0,0,0.1,0,0.2l1.4,1.4c0,0,0.1,0.1,0.2,0l0.2-0.2L5.5,10.9z"/>
	</g>
	<g>
		<path d="M6.4,12.6c0.2,0.2,0.1,0.4-0.1,0.5L5,13.4c-0.3,0.1-0.5-0.1-0.4-0.4l0.3-1.4c0-0.3,0.3-0.3,0.5-0.1L6.4,12.6z"/>
	</g>
</g>
</svg>
