<?xml version="1.0" encoding="utf-8"?>
<!-- Generator: Adobe Illustrator 18.0.0, SVG Export Plug-In . SVG Version: 6.00 Build 0)  -->
<!DOCTYPE svg PUBLIC "-//W3C//DTD SVG 1.1//EN" "http://www.w3.org/Graphics/SVG/1.1/DTD/svg11.dtd">
<svg version="1.1" id="Layer_1" xmlns="http://www.w3.org/2000/svg" xmlns:xlink="http://www.w3.org/1999/xlink" x="0px" y="0px"
	 viewBox="0 0 16 16" enable-background="new 0 0 16 16" xml:space="preserve">
<path opacity="0.8" fill="#FFFFFF" enable-background="new    " d="M13.4,15.2H2.7c-1.1,0-1.8-0.8-1.8-1.9V2.6
	c0-1.1,0.7-1.8,1.8-1.8h10.8c1.1,0,1.7,0.7,1.7,1.8l0.1,10.6C15.3,14.5,14.6,15.2,13.4,15.2z"/>
<g opacity="0.5" enable-background="new    ">
	<path d="M13.4,15.8h-11c-1.3,0-2.3-1-2.3-2.3v-11c0-1.3,1-2.3,2.3-2.3h11.1c1.3,0,2.3,1,2.3,2.3v11.1
		C15.8,14.8,14.8,15.8,13.4,15.8z M2.5,0.9c-0.9,0-1.6,0.7-1.6,1.6v11.1c0,0.9,0.7,1.6,1.6,1.6h11.1c0.9,0,1.6-0.7,1.6-1.6V2.5
		c0-0.9-0.7-1.6-1.6-1.6H2.5z"/>
</g>
<polygon opacity="0.8" points="4,12.8 12.8,12.8 11.3,13.9 2.7,13.9 "/>
<g opacity="0.8">
	<polygon points="7.4,8.9 9.1,10 12.7,4.7 11.1,3.6 	"/>
	<polygon points="10.6,3.4 10.3,3.2 6.7,8.4 7.1,8.6 	"/>
	<path d="M13.1,3.8l-2-1.3c-0.1-0.1-0.1-0.1-0.2,0l-0.2,0.2l2.2,1.6L13.2,4C13.2,3.9,13.2,3.9,13.1,3.8z"/>
	<path d="M6.3,9.1c-0.1,0.1,0,0.1,0.1,0.2l2,1.3c0.1,0.1,0.1,0.1,0.2,0l0.2-0.2L6.5,8.8L6.3,9.1z"/>
	<path d="M6.4,9.5c-0.3-0.2-0.6,0-0.6,0.3l-0.1,1.7c0,0.4,0.2,0.6,0.6,0.4L8,11.4c0.4-0.1,0.4-0.5,0-0.7L6.4,9.5z"/>
</g>
</svg>
