<?xml version="1.0" encoding="utf-8"?>
<!-- Generator: Adobe Illustrator 18.0.0, SVG Export Plug-In . SVG Version: 6.00 Build 0)  -->
<!DOCTYPE svg PUBLIC "-//W3C//DTD SVG 1.1//EN" "http://www.w3.org/Graphics/SVG/1.1/DTD/svg11.dtd">
<svg version="1.1" id="Layer_1" xmlns="http://www.w3.org/2000/svg" xmlns:xlink="http://www.w3.org/1999/xlink" x="0px" y="0px"
	 viewBox="0 0 16 16" enable-background="new 0 0 16 16" xml:space="preserve">
<polygon opacity="0.8" fill="#FFFFFF" enable-background="new    " points="14.1,15.6 1.9,15.6 1.9,0.4 9.4,0.4 14.1,4.4 "/>
<path opacity="0.3" enable-background="new    " d="M9.5,0h-8v16h13V4.2L9.5,0z M9.6,1.1l3.7,3.1H9.6V1.1z M2.3,15.2V0.8h6.5v4.1h5
	v10.3C13.8,15.2,2.3,15.2,2.3,15.2z"/>
<g>
	<g>
		<polygon fill="#D42B00" points="7.3,12.3 10.9,8.7 9.9,7.6 6.2,11.2 		"/>
		<polygon fill="#D42B00" points="5.8,10.7 6,10.9 9.5,7.4 9.4,7.2 		"/>
		<path fill="#D42B00" d="M11.4,8.1L10,6.7c0,0-0.1-0.1-0.2,0L9.6,6.9l1.6,1.6l0.2-0.2C11.4,8.2,11.4,8.1,11.4,8.1z"/>
		<path fill="#D42B00" d="M5.5,11l-0.2,0.2c0,0,0,0.1,0,0.2l1.4,1.4c0,0,0.1,0.1,0.2,0l0.2-0.2L5.5,11z"/>
	</g>
	<g>
		<path fill="#D42B00" d="M6.4,12.7c0.2,0.2,0.1,0.4-0.1,0.5L5,13.5c-0.3,0.1-0.5-0.1-0.4-0.4l0.3-1.4c0-0.3,0.3-0.3,0.5-0.1
			L6.4,12.7z"/>
	</g>
</g>
</svg>
