<?xml version="1.0" encoding="utf-8"?>
<!-- Generator: Adobe Illustrator 18.0.0, SVG Export Plug-In . SVG Version: 6.00 Build 0)  -->
<!DOCTYPE svg PUBLIC "-//W3C//DTD SVG 1.1//EN" "http://www.w3.org/Graphics/SVG/1.1/DTD/svg11.dtd">
<svg version="1.1" id="Layer_1" xmlns="http://www.w3.org/2000/svg" xmlns:xlink="http://www.w3.org/1999/xlink" x="0px" y="0px"
	 viewBox="0 0 16 16" enable-background="new 0 0 16 16" xml:space="preserve">
<g opacity="0.3" enable-background="new    ">
	<path d="M13.9,15.9H3.1c-1.3,0-2.4-1.1-2.4-2.4V2.7c0-1.3,1.1-2.4,2.4-2.4H14c1.3,0,2.4,1.1,2.4,2.4v10.9
		C16.3,14.8,15.2,15.9,13.9,15.9z M3,1.1c-0.9,0-1.5,0.7-1.5,1.6v10.9c0,0.9,0.6,1.6,1.5,1.6h10.9c0.9,0,1.6-0.7,1.6-1.6V2.7
		c0-0.9-0.7-1.6-1.6-1.6H3z"/>
</g>
<path opacity="0.8" fill="#FFFFFF" enable-background="new    " d="M13.9,15.5H3.1c-1.1,0-2-0.9-2-2V2.7c0-1.1,0.9-2,2-2H14
	c1.1,0,2,0.9,2,2v10.9C15.9,14.6,15,15.5,13.9,15.5z"/>
<path fill="#52BF52" d="M14,14.4h-1.7c-0.6,0-1-0.6-1-1.4V3c0-0.8,0.4-1.4,1-1.4h1.6c0.6,0,1,0.6,1,1.4v10.2
	C15,13.8,14.5,14.4,14,14.4z"/>
<g id="Arrow_3">
	<g id="Arrow_28">
		<rect x="0.2" y="4.1" fill="none" width="8.5" height="5.9"/>
		<polygon fill="#D33737" points="1.5,6.6 7.7,6.6 5.2,4.1 8.2,4.1 11.7,7.7 8.2,11.2 5.2,11.2 7.7,8.8 1.5,8.8 		"/>
	</g>
</g>
</svg>
