<?xml version="1.0" encoding="utf-8"?>
<!-- Generator: Adobe Illustrator 18.0.0, SVG Export Plug-In . SVG Version: 6.00 Build 0)  -->
<!DOCTYPE svg PUBLIC "-//W3C//DTD SVG 1.1//EN" "http://www.w3.org/Graphics/SVG/1.1/DTD/svg11.dtd">
<svg version="1.1" id="Layer_1" xmlns="http://www.w3.org/2000/svg" xmlns:xlink="http://www.w3.org/1999/xlink" x="0px" y="0px"
	 viewBox="0 0 16 16" enable-background="new 0 0 16 16" xml:space="preserve">
<g opacity="0.3" enable-background="new    ">
	<path d="M13.4,15.9H2.6c-1.3,0-2.4-1.1-2.4-2.4V2.7c0-1.3,1.1-2.4,2.4-2.4h10.9c1.3,0,2.4,1.1,2.4,2.4v10.9
		C15.8,14.8,14.7,15.9,13.4,15.9z M2.5,1.1C1.6,1.1,1,1.8,1,2.7v10.9c0,0.9,0.6,1.6,1.5,1.6h10.9c0.9,0,1.6-0.7,1.6-1.6V2.7
		c0-0.9-0.7-1.6-1.6-1.6H2.5z"/>
</g>
<path opacity="0.8" fill="#FFFFFF" enable-background="new    " d="M13.4,15.5H2.6c-1.1,0-2-0.9-2-2V2.7c0-1.1,0.9-2,2-2h10.9
	c1.1,0,2,0.9,2,2v10.9C15.4,14.6,14.5,15.5,13.4,15.5z"/>
<g>
	<path fill="#3080C1" d="M12.8,14.5h-2.2c-0.8,0-1.4-0.6-1.4-1.4V3c0-0.8,0.6-1.4,1.4-1.4h2.2c0.8,0,1.4,0.6,1.4,1.4v10.1
		C14.1,13.9,13.5,14.5,12.8,14.5z M10.5,2.4c-0.3,0-0.6,0.3-0.6,0.6v10.1c0,0.3,0.3,0.6,0.6,0.6h2.2c0.3,0,0.6-0.3,0.6-0.6V3
		c0-0.3-0.3-0.6-0.6-0.6H10.5z"/>
</g>
<path fill="#D84427" d="M7.5,5.8C7.3,5.6,7,5.6,6.8,5.8C6.6,6,6.6,6.4,6.8,6.6l1.1,1.1h-6C1.7,7.7,1.4,8,1.4,8.2
	c0,0.3,0.3,0.5,0.5,0.5h6.2L6.7,10c-0.2,0.2-0.2,0.5,0,0.7c0.2,0.3,0.6,0.2,0.8,0l2.3-2.1c0.2-0.1,0.2-0.4,0-0.6L7.5,5.8z"/>
</svg>
