<?xml version="1.0" encoding="utf-8"?>
<!-- Generator: Adobe Illustrator 18.0.0, SVG Export Plug-In . SVG Version: 6.00 Build 0)  -->
<!DOCTYPE svg PUBLIC "-//W3C//DTD SVG 1.1//EN" "http://www.w3.org/Graphics/SVG/1.1/DTD/svg11.dtd">
<svg version="1.1" id="Layer_1" xmlns="http://www.w3.org/2000/svg" xmlns:xlink="http://www.w3.org/1999/xlink" x="0px" y="0px"
	 viewBox="0 0 16 16" enable-background="new 0 0 16 16" xml:space="preserve">
<g>
	<path opacity="0.8" fill="#FFFFFF" enable-background="new    " d="M13.1,15.1c0.1,0,0.3,0,0.4,0C13.4,15.1,13.2,15.1,13.1,15.1z"
		/>
	<path opacity="0.8" fill="#FFFFFF" enable-background="new    " d="M2.7,0.9h7.6v14.2H2.7c-1.1,0-1.9-0.9-1.9-1.9V2.8
		C0.8,1.8,1.7,0.9,2.7,0.9z"/>
</g>
<path opacity="0.8" enable-background="new    " d="M1.3,7.4v1.2c0,0.1,0,0.2,0.2,0.2h5.3c0.2,0,0.3,0.3,0,0.5l-1.1,1
	c-0.1,0.2,0,0.5,0.2,0.5h1.6c0.1,0,0.1,0,0.2-0.1l2.5-2.5c0.1-0.2,0.1-0.3,0-0.4L7.8,5.3c0-0.1-0.1-0.1-0.2-0.1H6.1
	c-0.3,0-0.4,0.3-0.2,0.5l1.1,1c0.1,0.2,0,0.5-0.2,0.5H1.5C1.3,7.1,1.3,7.3,1.3,7.4z"/>
<g opacity="0.8" enable-background="new    ">
	<path d="M0.2,13.5v-11c0-1.3,1-2.3,2.3-2.3h11.1c1.3,0,2.3,1,2.3,2.3v11.1c0,1.3-1,2.3-2.3,2.3H2.5C1.2,15.8,0.2,14.8,0.2,13.5z
		 M2.5,0.9c-0.9,0-1.6,0.7-1.6,1.6v11.1c0,0.9,0.7,1.6,1.6,1.6h11.1c0.9,0,1.6-0.7,1.6-1.6V2.5c0-0.9-0.7-1.6-1.6-1.6H2.5z"/>
</g>
<path opacity="0.15" enable-background="new    " d="M10.3,0.9h3c1.1,0,1.9,0.9,1.9,1.9v10.5c-0.1,1-1,1.8-2,1.8h-2.9
	C10.3,15.1,10.3,0.9,10.3,0.9z"/>
<g id="Arrow_10">
</g>
</svg>
