<?xml version="1.0" encoding="utf-8"?>
<!-- Generator: Adobe Illustrator 18.0.0, SVG Export Plug-In . SVG Version: 6.00 Build 0)  -->
<!DOCTYPE svg PUBLIC "-//W3C//DTD SVG 1.1//EN" "http://www.w3.org/Graphics/SVG/1.1/DTD/svg11.dtd">
<svg version="1.1" id="Layer_1" xmlns="http://www.w3.org/2000/svg" xmlns:xlink="http://www.w3.org/1999/xlink" x="0px" y="0px"
	 viewBox="0 0 16 16" enable-background="new 0 0 16 16" xml:space="preserve">
<path opacity="0.8" fill="#FFFFFF" enable-background="new    " d="M0.9,13.4V2.6C0.8,1.3,1.6,0.8,2.7,0.8h10.7
	c1.1,0,1.8,0.7,1.8,1.8v10.6c0,1.1-0.4,2-1.8,2H2.8C1.3,15.3,0.9,14.5,0.9,13.4z"/>
<g opacity="0.5" enable-background="new    ">
	<path d="M0.1,13.6V2.5c0-1.3,1-2.3,2.3-2.3h11.1c1.3,0,2.3,1,2.3,2.3v11c0,1.3-1,2.3-2.3,2.3h-11C1.3,15.8,0.3,14.8,0.1,13.6z
		 M2.5,0.9c-0.9,0-1.6,0.7-1.6,1.6v11.1c0,0.9,0.7,1.6,1.6,1.6h11.1c0.9,0,1.6-0.7,1.6-1.6V2.5c0-0.9-0.7-1.6-1.6-1.6H2.5z"/>
</g>
<path opacity="0.8" enable-background="new    " d="M1.3,7.4v1.3c0,0.1,0,0.2,0.2,0.2h5.3c0.2,0,0.3,0.3,0,0.4l-1.1,1
	c-0.1,0.2,0,0.5,0.2,0.5h1.6c0.1,0,0.1,0,0.2-0.1l2.5-2.5c0.1-0.2,0.1-0.3,0-0.4L7.8,5.3c0-0.1-0.1-0.1-0.2-0.1H6.1
	c-0.3,0-0.4,0.3-0.2,0.5l1.1,1c0.1,0.1,0,0.4-0.2,0.4H1.5C1.3,7.1,1.3,7.3,1.3,7.4z"/>
<path opacity="0.3" enable-background="new    " d="M10.3,15.2h2.9c1.8,0,1.9-0.8,2-1.8l0-10.8c0-1.2-0.5-1.7-1.9-1.7h-3
	C10.3,0.9,10.3,15.2,10.3,15.2z"/>
<g id="Arrow_10">
</g>
</svg>
