<?xml version="1.0" encoding="utf-8"?>
<!-- Generator: Adobe Illustrator 18.0.0, SVG Export Plug-In . SVG Version: 6.00 Build 0)  -->
<!DOCTYPE svg PUBLIC "-//W3C//DTD SVG 1.1//EN" "http://www.w3.org/Graphics/SVG/1.1/DTD/svg11.dtd">
<svg version="1.1" id="Layer_1" xmlns="http://www.w3.org/2000/svg" xmlns:xlink="http://www.w3.org/1999/xlink" x="0px" y="0px"
	 viewBox="0 0 16 16" enable-background="new 0 0 16 16" xml:space="preserve">
<g opacity="0.3" enable-background="new    ">
	<path d="M13.5,15.8H2.7c-1.3,0-2.4-1.1-2.4-2.4V2.6c0-1.3,1.1-2.4,2.4-2.4h10.9c1.3,0,2.4,1.1,2.4,2.4v10.9
		C15.9,14.7,14.8,15.8,13.5,15.8z M2.7,0.9C1.8,0.9,1,1.7,1,2.6v10.9c0,0.9,0.7,1.6,1.6,1.6h10.9c0.9,0,1.6-0.7,1.6-1.6V2.6
		c0-0.9-0.7-1.6-1.6-1.6H2.7z"/>
</g>
<path opacity="0.8" fill="#FFFFFF" enable-background="new    " d="M13.5,15.4H2.7c-1.1,0-2-0.9-2-2V2.6c0-1.1,0.9-2,2-2h10.9
	c1.1,0,2,0.9,2,2v10.9C15.5,14.5,14.6,15.4,13.5,15.4z"/>
<path fill="#229928" d="M11.6,9.6c0.3-0.3,0.3-0.7,0-1.1c-0.3-0.3-0.7-0.3-1.1,0l-1.6,1.6V4c0-0.4-0.3-0.7-0.7-0.7S7.4,3.6,7.4,4
	v6.2L5.7,8.4C5.4,8.1,5,8.1,4.6,8.4s-0.3,0.7,0,1.1L8,12.8l0,0l0,0L11.6,9.6z"/>
</svg>
