<?xml version="1.0" encoding="utf-8"?>
<!-- Generator: Adobe Illustrator 18.0.0, SVG Export Plug-In . SVG Version: 6.00 Build 0)  -->
<!DOCTYPE svg PUBLIC "-//W3C//DTD SVG 1.1//EN" "http://www.w3.org/Graphics/SVG/1.1/DTD/svg11.dtd">
<svg version="1.1" id="Layer_1" xmlns="http://www.w3.org/2000/svg" xmlns:xlink="http://www.w3.org/1999/xlink" x="0px" y="0px"
	 viewBox="0 0 16 16" enable-background="new 0 0 16 16" xml:space="preserve">
<g opacity="0.5" enable-background="new    ">
	<path d="M13.4,15.8H2.6c-1.3,0-2.4-1.1-2.4-2.4V2.6c0-1.3,1.1-2.4,2.4-2.4h10.9c1.3,0,2.4,1.1,2.4,2.4v10.9
		C15.8,14.7,14.7,15.8,13.4,15.8z M2.6,1C1.7,1,1,1.6,1,2.5v10.9C1,14.3,1.7,15,2.6,15h10.9c0.9,0,1.6-0.7,1.6-1.6V2.6
		c0-0.9-0.7-1.6-1.6-1.6L2.6,1z"/>
</g>
<path opacity="0.8" fill="#FFFFFF" enable-background="new    " d="M13.4,15H2.6c-1.1,0-1.5-0.8-1.6-1.6V2.6C1,1.5,1.6,1,2.6,1h10.9
	c0.9,0,1.6,0.5,1.6,1.6v10.9C15,14.5,14.5,15,13.4,15z"/>
<g>
	<path d="M2.6,9c0.3,0,0.8-0.1,1.3-0.1c0.7,0,1.2,0.1,1.5,0.5c0.3,0.3,0.5,0.7,0.5,1.1s-0.1,0.9-0.4,1.1c-0.4,0.4-1,0.6-1.7,0.6
		c-0.2,0-0.4,0-0.5-0.1v2.1H2.6V9z M3.3,11.6c0.1,0.1,0.3,0.1,0.6,0.1c0.9,0,1.3-0.4,1.3-1.1S4.7,9.5,3.9,9.5c-0.3,0-0.5,0-0.7,0.1
		L3.3,11.6L3.3,11.6z"/>
	<path d="M6.2,9c0.4,0,0.9-0.1,1.5-0.1c1,0,1.7,0.2,2.2,0.7s0.7,1.1,0.7,1.9c0,0.9-0.3,1.6-0.8,2.1c-0.5,0.5-1.3,0.8-2.4,0.8
		c-0.5,0-0.8,0-1.2-0.1L6.2,9L6.2,9z M6.9,13.7c0.2,0,0.5,0,0.8,0c1.5,0,2.1-0.7,2.1-2.2c0-1.3-0.7-2.1-2.2-2.1
		c-0.3,0-0.6,0-0.8,0.1C6.9,9.6,6.9,13.7,6.9,13.7z"/>
	<path d="M11.1,9H14v0.6h-2.2v1.8h2.1V12h-2.1v2.5h-0.7C11.1,14.5,11.1,9,11.1,9z"/>
</g>
<path d="M10.2,5.6c0.2-0.2,0.2-0.5,0-0.8c-0.2-0.2-0.5-0.2-0.8,0L8.3,5.9V1.5C8.3,1.2,8.1,1,7.8,1S7.3,1.2,7.3,1.5v4.4L6.1,4.6
	c-0.2-0.2-0.5-0.2-0.8,0c-0.2,0.2-0.2,0.5,0,0.8l2.3,2c0.1,0.1,0.3,0.1,0.4,0L10.2,5.6z"/>
</svg>
