<?xml version="1.0" encoding="utf-8"?>
<!-- Generator: Adobe Illustrator 18.0.0, SVG Export Plug-In . SVG Version: 6.00 Build 0)  -->
<!DOCTYPE svg PUBLIC "-//W3C//DTD SVG 1.1//EN" "http://www.w3.org/Graphics/SVG/1.1/DTD/svg11.dtd">
<svg version="1.1" id="Layer_1" xmlns="http://www.w3.org/2000/svg" xmlns:xlink="http://www.w3.org/1999/xlink" x="0px" y="0px"
	 viewBox="0 0 16 16" enable-background="new 0 0 16 16" xml:space="preserve">
<g opacity="0.3" enable-background="new    ">
	<path d="M13.5,16H2.6c-1.3,0-2.4-1.1-2.4-2.4V2.8c0-1.3,1.1-2.4,2.4-2.4h10.9c1.3,0,2.4,1.1,2.4,2.4v10.9
		C15.9,14.9,14.8,16,13.5,16z M2.6,1.1C1.8,1.1,1,1.9,1,2.8v10.9c0,0.9,0.7,1.6,1.6,1.6h10.9c0.9,0,1.6-0.7,1.6-1.6V2.8
		c0-0.9-0.7-1.6-1.6-1.6L2.6,1.1L2.6,1.1z"/>
</g>
<path opacity="0.8" fill="#FFFFFF" enable-background="new    " d="M13.5,15.6H2.6c-1.1,0-2-0.9-2-2V2.8c0-1.1,0.9-2,2-2h10.9
	c1.1,0,2,0.9,2,2v10.9C15.5,14.7,14.6,15.6,13.5,15.6z"/>
<path fill="none" stroke="#7F0F0F" stroke-width="0.75" stroke-linejoin="round" stroke-miterlimit="10" d="M7.7,4.2
	C7.9,4.3,8.3,4.4,8.2,5C8.1,5.6,7.9,6.6,7.6,7.6c-0.4,1-1,2-1.5,2.7s-0.9,1.2-1.3,1.5c-0.3,0.3-0.6,0.4-0.7,0.4s-0.2,0-0.3-0.1
	c0-0.1-0.1-0.2,0-0.3c0-0.1,0.1-0.3,0.3-0.5c0.2-0.2,0.6-0.5,1.1-0.7c0.5-0.3,1.2-0.5,1.7-0.6c0.5-0.2,1-0.2,1.3-0.3
	c0.4-0.1,0.7-0.1,1-0.1s0.6,0,0.9,0c0.3,0,0.6,0.1,0.8,0.1c0.3,0.1,0.5,0.1,0.7,0.3c0.2,0.1,0.3,0.3,0.4,0.5c0.1,0.2,0.1,0.4,0,0.5
	s-0.2,0.2-0.4,0.3c-0.2,0-0.3,0.1-0.5,0s-0.4-0.2-0.7-0.4c-0.3-0.2-0.5-0.4-0.8-0.6c-0.1-0.1-0.2-0.1-0.2-0.2C9,9.4,9,9.1,8.7,8.7
	C8.4,8.3,8,7.8,7.8,7.4C7.6,7,7.5,6.7,7.4,6.4c0-0.3-0.1-0.6-0.1-0.9s0-0.5,0-0.7s0.1-0.3,0.1-0.4c0.1-0.1,0.5-0.1,0.5-0.2
	S7.7,4.2,7.7,4.2l0.4,0"/>
</svg>
