<?xml version="1.0" encoding="utf-8"?>
<!-- Generator: Adobe Illustrator 18.0.0, SVG Export Plug-In . SVG Version: 6.00 Build 0)  -->
<!DOCTYPE svg PUBLIC "-//W3C//DTD SVG 1.1//EN" "http://www.w3.org/Graphics/SVG/1.1/DTD/svg11.dtd">
<svg version="1.1" id="Layer_1" xmlns="http://www.w3.org/2000/svg" xmlns:xlink="http://www.w3.org/1999/xlink" x="0px" y="0px"
	 viewBox="0 0 16 16" enable-background="new 0 0 16 16" xml:space="preserve">
<g opacity="0.5" enable-background="new    ">
	<path d="M13.4,15.8H2.6c-1.3,0-2.4-1.1-2.4-2.4V2.6c0-1.3,1.1-2.4,2.4-2.4h10.9c1.3,0,2.4,1.1,2.4,2.4v10.9
		C15.8,14.7,14.6,15.8,13.4,15.8z M2.6,1C1.7,1,1,1.6,1,2.5v10.9C1,14.3,1.7,15,2.6,15h10.9c0.9,0,1.6-0.7,1.6-1.6V2.6
		c0-0.9-0.7-1.6-1.6-1.6L2.6,1z"/>
</g>
<path opacity="0.8" fill="#FFFFFF" enable-background="new    " d="M13.4,15H2.6c-1.1,0-1.5-0.8-1.6-1.6V2.6C0.9,1.5,1.6,1,2.6,1
	h10.9c0.9,0,1.6,0.5,1.6,1.6v10.9C15,14.5,14.5,15,13.4,15z"/>
<path fill="none" stroke="#7F0F0F" stroke-width="0.75" stroke-linejoin="round" stroke-miterlimit="10" d="M7.8,4
	C8,4.1,8.4,4.2,8.3,4.8C8.2,5.4,8,6.4,7.7,7.4c-0.4,1-1,2-1.5,2.7c-0.5,0.7-0.9,1.2-1.3,1.5C4.6,11.9,4.3,12,4.2,12S4,12,3.9,11.9
	c0-0.1-0.1-0.2,0-0.3c0-0.1,0.1-0.3,0.3-0.5c0.2-0.2,0.6-0.5,1.1-0.7C5.8,10.1,6.5,9.9,7,9.8c0.5-0.2,1-0.2,1.3-0.3
	c0.4-0.1,0.7-0.1,1-0.1c0.3,0,0.6,0,0.9,0s0.6,0.1,0.8,0.1c0.3,0.1,0.5,0.1,0.7,0.3c0.2,0.1,0.3,0.3,0.4,0.5c0.1,0.2,0.1,0.4,0,0.5
	s-0.2,0.2-0.4,0.3c-0.2,0-0.3,0.1-0.5,0c-0.2-0.1-0.4-0.2-0.7-0.4c-0.3-0.2-0.5-0.4-0.8-0.6C9.6,10,9.5,10,9.5,9.9
	c-0.4-0.7-0.4-1-0.7-1.4C8.5,8.1,8.1,7.6,7.9,7.2s-0.3-0.7-0.4-1c0-0.3-0.1-0.6-0.1-0.9s0-0.5,0-0.7s0.1-0.3,0.1-0.4
	C7.6,4.1,8,4.1,8,4S7.8,4,7.8,4h0.4"/>
</svg>
