<?xml version="1.0" encoding="utf-8"?>
<!-- Generator: Adobe Illustrator 18.0.0, SVG Export Plug-In . SVG Version: 6.00 Build 0)  -->
<!DOCTYPE svg PUBLIC "-//W3C//DTD SVG 1.1//EN" "http://www.w3.org/Graphics/SVG/1.1/DTD/svg11.dtd">
<svg version="1.1" id="Layer_1" xmlns="http://www.w3.org/2000/svg" xmlns:xlink="http://www.w3.org/1999/xlink" x="0px" y="0px"
	 viewBox="0 0 16 16" enable-background="new 0 0 16 16" xml:space="preserve">
<path opacity="0.8" enable-background="new    " d="M13.7,0.1H2.3C1,0.1,0.1,0.7,0.2,2.2v11.6c0,1.3,0.7,2,2.2,2h11.3
	c1.6,0,2.1-1,2.1-2.1V2.2C15.8,0.9,15.4,0,13.7,0.1z M15,13.2c0,1.1-0.4,1.9-1.9,1.9H3c-1.4,0-2-0.6-2-1.8V2.8
	C0.9,1.5,1.8,0.9,2.9,0.9h10.2C14.6,0.8,15,1.6,15,2.8V13.2z"/>
<path opacity="0.8" fill="#FFFFFF" enable-background="new    " d="M1,13.3V2.8C0.9,1.5,1.8,0.9,2.9,0.9h10.2
	C14.6,0.8,15,1.6,15,2.8v10.3c0,1.1-0.4,1.9-1.9,1.9H3C1.6,15.1,1,14.4,1,13.3z"/>
<g opacity="0.8">
	<path d="M4.3,13c0,0.4-0.3,0.6-0.6,0.4l-1.4-0.9c-0.3-0.2-0.3-0.5,0-0.8l1.4-0.9C4,10.5,4.3,10.6,4.3,11L4.3,13z"/>
</g>
<path opacity="0.8" enable-background="new    " d="M9.5,4.4c0-0.4-0.3-0.7-0.8-0.8C8.3,3.6,8,3.9,7.9,4.4v2.3L3.5,2.3
	C3.2,2,2.8,2,2.5,2.3s-0.3,0.7,0,1l4.4,4.4H4.4C4,7.6,3.7,7.9,3.7,8.3C3.7,8.7,4,9,4.5,9.1L9.2,9l0,0l0,0L9.5,4.4z"/>
<path opacity="0.8" d="M13.5,13.3H5.9c-0.3,0-0.6-0.3-0.6-0.6v-1.4c0-0.3,0.3-0.6,0.6-0.6h7.5c0.3,0,0.6,0.3,0.6,0.6v1.4
	C14.1,13,13.8,13.3,13.5,13.3z"/>
</svg>
