<?xml version="1.0" encoding="utf-8"?>
<!-- Generator: Adobe Illustrator 18.0.0, SVG Export Plug-In . SVG Version: 6.00 Build 0)  -->
<!DOCTYPE svg PUBLIC "-//W3C//DTD SVG 1.1//EN" "http://www.w3.org/Graphics/SVG/1.1/DTD/svg11.dtd">
<svg version="1.1" id="Layer_1" xmlns="http://www.w3.org/2000/svg" xmlns:xlink="http://www.w3.org/1999/xlink" x="0px" y="0px"
	 viewBox="0 0 16 16" enable-background="new 0 0 16 16" xml:space="preserve">
<g opacity="0.3" enable-background="new    ">
	<path d="M13.2,15.8H2.4c-1.3,0-2.4-1.1-2.4-2.4V2.6c0-1.3,1.1-2.4,2.4-2.4h10.9c1.3,0,2.4,1.1,2.4,2.4v10.9
		C15.6,14.7,14.6,15.8,13.2,15.8z M2.4,0.9c-0.9,0-1.6,0.7-1.6,1.6v10.9c0,0.9,0.7,1.6,1.6,1.6h10.9c0.9,0,1.6-0.7,1.6-1.6V2.6
		c0-0.9-0.7-1.6-1.6-1.6H2.4z"/>
</g>
<path opacity="0.8" fill="#FFFFFF" enable-background="new    " d="M13.2,15.4H2.4c-1.1,0-2-0.9-2-2V2.6c0-1.1,0.9-2,2-2h10.9
	c1.1,0,2,0.9,2,2v10.9C15.2,14.5,14.3,15.4,13.2,15.4z"/>
<path fill="#229928" d="M11.3,8.6c0.3-0.3,0.3-0.7,0-1.1c-0.3-0.3-0.7-0.3-1.1,0L8.6,9.1V2.9c0-0.4-0.3-0.7-0.7-0.7S7.2,2.5,7.2,2.9
	v6.2L5.4,7.3C5.2,7,4.7,7,4.4,7.3S4.1,8,4.4,8.4l3.4,3.3l0,0l0,0L11.3,8.6z"/>
<path fill="#229928" d="M11.2,9.8l-3.4,3L4.5,9.6c0,0-0.1,0-0.1,0.1c-0.3,0.3-0.3,0.7,0,1.1l3.4,3.3l3.5-3.1c0.3-0.3,0.3-0.7,0-1.1
	C11.2,9.9,11.2,9.8,11.2,9.8z"/>
</svg>
