<?xml version="1.0" encoding="utf-8"?>
<!-- Generator: Adobe Illustrator 18.0.0, SVG Export Plug-In . SVG Version: 6.00 Build 0)  -->
<!DOCTYPE svg PUBLIC "-//W3C//DTD SVG 1.1//EN" "http://www.w3.org/Graphics/SVG/1.1/DTD/svg11.dtd">
<svg version="1.1" id="Layer_1" xmlns="http://www.w3.org/2000/svg" xmlns:xlink="http://www.w3.org/1999/xlink" x="0px" y="0px"
	 viewBox="0 0 16 16" enable-background="new 0 0 16 16" xml:space="preserve">
<g opacity="0.3" enable-background="new    ">
	<path d="M13.4,15.8H2.6c-1.3,0-2.4-1.1-2.4-2.4V2.5c0-1.3,1.1-2.4,2.4-2.4h10.9c1.3,0,2.4,1.1,2.4,2.4v10.9
		C15.8,14.7,14.7,15.8,13.4,15.8z M2.6,0.9c-0.9,0-1.6,0.7-1.6,1.6v10.9c0,0.9,0.7,1.6,1.6,1.6h10.9c0.9,0,1.6-0.7,1.6-1.6V2.5
		c0-0.9-0.7-1.6-1.6-1.6H2.6z"/>
</g>
<path opacity="0.8" fill="#FFFFFF" enable-background="new    " d="M13.4,15.4H2.6c-1.1,0-2-0.9-2-2V2.5c0-1.1,0.9-2,2-2h10.9
	c1.1,0,2,0.9,2,2v10.9C15.4,14.5,14.5,15.4,13.4,15.4z"/>
<g>
	<g>
		<polygon fill="#D42B00" points="5.7,9.3 9.7,4.3 8.2,3.1 4.1,8 		"/>
		<polygon fill="#D42B00" points="3.5,7.5 3.8,7.7 7.8,2.8 7.5,2.6 		"/>
		<path fill="#D42B00" d="M10.2,3.4L8.3,1.9c-0.1-0.1-0.1-0.1-0.2,0L7.9,2.1L10,3.9l0.2-0.3C10.3,3.6,10.3,3.5,10.2,3.4z"/>
		<path fill="#D42B00" d="M3.2,7.9L3,8.1C2.9,8.2,3,8.2,3.1,8.3L5,9.8c0.1,0.1,0.1,0.1,0.2,0l0.2-0.2L3.2,7.9z"/>
	</g>
	<g>
		<path fill="#D42B00" d="M4.6,9.9c0.3,0.2,0.3,0.6-0.1,0.7l-1.6,0.5c-0.4,0.1-0.6-0.1-0.6-0.5l0.2-1.7c0-0.4,0.3-0.5,0.6-0.3
			L4.6,9.9z"/>
	</g>
</g>
<path fill="#229928" d="M13.6,10.4c0-0.3-0.2-0.5-0.6-0.5c-0.3,0-0.5,0.2-0.5,0.6l0,1.6L9.4,9C9.2,8.8,8.8,8.8,8.6,9
	c-0.2,0.2-0.2,0.5,0,0.7l3.2,3.1l-1.8,0c-0.3,0-0.5,0.2-0.5,0.6c0,0.3,0.2,0.5,0.6,0.5l3.4-0.1l0,0L13.6,10.4z"/>
</svg>
