<?xml version="1.0" encoding="utf-8"?>
<!-- Generator: Adobe Illustrator 18.0.0, SVG Export Plug-In . SVG Version: 6.00 Build 0)  -->
<!DOCTYPE svg PUBLIC "-//W3C//DTD SVG 1.1//EN" "http://www.w3.org/Graphics/SVG/1.1/DTD/svg11.dtd">
<svg version="1.1" id="Layer_1" xmlns="http://www.w3.org/2000/svg" xmlns:xlink="http://www.w3.org/1999/xlink" x="0px" y="0px"
	 viewBox="0 0 16 16" enable-background="new 0 0 16 16" xml:space="preserve">
<g opacity="0.3" enable-background="new    ">
	<path d="M0,13.5V2.6c0-1.3,1.1-2.4,2.4-2.4h10.9c1.3,0,2.4,1.1,2.4,2.4v10.8c0,1.3-1.1,2.4-2.4,2.4H2.5C1.2,15.8,0.1,14.7,0,13.5z
		 M2.5,1C1.6,1,0.9,1.7,0.9,2.6v10.9c0,0.9,0.7,1.6,1.6,1.6h10.9c0.9,0,1.5-0.7,1.5-1.6V2.6c0-0.9-0.6-1.6-1.5-1.6
		C13.4,1,2.5,1,2.5,1z"/>
</g>
<path opacity="0.8" fill="#FFFFFF" enable-background="new    " d="M0.4,13.5V2.6c0-1.1,0.9-2,2-2h10.9c1.1,0,2,0.9,2,2v10.8
	c0,1.1-0.9,2-2,2H2.5C1.4,15.4,0.5,14.5,0.4,13.5z"/>
<path opacity="0.8" fill="none" stroke="#000000" stroke-miterlimit="10" d="M12.8,4.8c0-0.6-0.4-1-0.9-1h-1.7V3.1
	c0-0.2-0.1-0.3-0.5-0.3H7.3c-0.4,0-0.5,0.1-0.5,0.3v0.7H4.9l0,0c-0.4,0-0.8,0.5-0.8,1v8.4c0,0.6,0.4,1,0.8,1"/>
<path opacity="0.8" fill="#050505" enable-background="new    " d="M3.2,12.6V4.2c0-0.5,0.4-1,0.8-1h1.9V2.5c0-0.2,0.1-0.3,0.5-0.3
	h0.8V1.6c0-0.2-0.1-0.3-0.5-0.3H4.1c-0.3,0-0.4,0.1-0.4,0.3v0.7H1.9c-0.5,0-0.8,0.5-0.8,1v8.4c0,0.6,0.4,1,0.8,1L3.2,12.6
	C3.2,12.7,3.2,12.7,3.2,12.6z"/>
<g id="Arrow_10">
</g>
<g>
	<g>
		<g>
			<path fill="#229928" d="M15,16.1c-0.1,0.1-0.3,0.1-0.4,0l-1.9-2.3c-0.1-0.1-0.1-0.3,0-0.4l0.9-0.7c0.1-0.1,0.3-0.1,0.4,0L16,15
				c0.1,0.1,0.1,0.3,0,0.4L15,16.1z"/>
		</g>
	</g>
</g>
<g>
	<path fill="#229928" stroke="#229928" stroke-width="0.5" stroke-miterlimit="10" d="M5.2,8.9c0-0.5,0.1-1,0.3-1.4
		c0.9-2.3,3.6-3.3,5.8-2.4c1.8,0.8,2.9,2.6,2.7,4.4c0,0.5-0.1,1-0.3,1.4c-0.9,2.3-3.6,3.3-5.8,2.4C6.1,12.6,5.1,10.8,5.2,8.9 M6.4,9
		c-0.1,1.4,0.7,2.7,2,3.2c0.8,0.3,1.7,0.3,2.5,0c0.8-0.3,1.4-1,1.8-1.8c0.1-0.3,0.2-0.7,0.2-1.1c0.1-1.4-0.7-2.7-2-3.2
		c-0.8-0.3-1.7-0.3-2.5,0C7.6,6.5,7,7.2,6.7,8l0,0C6.5,8.3,6.4,8.7,6.4,9L6.4,9z"/>
</g>
</svg>
