<?xml version="1.0" encoding="utf-8"?>
<!-- Generator: Adobe Illustrator 18.0.0, SVG Export Plug-In . SVG Version: 6.00 Build 0)  -->
<!DOCTYPE svg PUBLIC "-//W3C//DTD SVG 1.1//EN" "http://www.w3.org/Graphics/SVG/1.1/DTD/svg11.dtd">
<svg version="1.1" id="Layer_1" xmlns="http://www.w3.org/2000/svg" xmlns:xlink="http://www.w3.org/1999/xlink" x="0px" y="0px"
	 viewBox="0 0 16 16" enable-background="new 0 0 16 16" xml:space="preserve">
<g id="Search">
	<g>
		<g>
			<g>
				<path fill="#229928" d="M13.5,15.5c-0.1,0.1-0.3,0.1-0.4-0.1l-2.1-3C11,12.3,11,12.1,11.2,12l1.2-0.8c0.1-0.1,0.3-0.1,0.4,0.1
					l2,3.1c0.1,0.1,0.1,0.3-0.1,0.4L13.5,15.5z"/>
			</g>
		</g>
	</g>
	<g>
		<path fill="#229928" d="M6,7.8C6,7.4,6.1,7,6.4,6.7C7.3,5,9.5,4.4,11.2,5.3c1.4,0.7,2,2.3,1.8,3.6c0,0.4-0.2,0.8-0.4,1.1
			c-0.9,1.7-3.1,2.4-4.8,1.4C6.5,10.7,5.8,9.2,6,7.8 M7,7.9C6.8,9,7.3,10.1,8.3,10.6c0.6,0.3,1.3,0.4,2,0.2c0.6-0.2,1.1-0.6,1.5-1.3
			C11.9,9.1,12,9,12,8.7c0.2-1.1-0.3-2.1-1.3-2.7c-0.6-0.3-1.3-0.4-2-0.2C8.1,6,7.6,6.4,7.2,7.1l0,0C7.1,7.4,7,7.7,7,7.9L7,7.9z"/>
	</g>
</g>
<path fill="#1AAA00" d="M10,2.7L10,2.7L7.7,0.4H0.6v14.9h4.2V7.9C4.7,2.6,7.6,2.7,10,2.7z"/>
<g opacity="0.3">
	<rect x="2.2" y="5" width="2.5" height="0.8"/>
</g>
<path opacity="0.3" enable-background="new    " d="M4.8,14.9c-1.9,0-3.9,0-3.9,0V0.8h6.3v2.1h0.7V1.1l1.7,1.8h1L7.8,0H0.2v15.7h4.5
	V14.9z"/>
</svg>
