<?xml version="1.0" encoding="utf-8"?>
<!-- Generator: Adobe Illustrator 18.0.0, SVG Export Plug-In . SVG Version: 6.00 Build 0)  -->
<!DOCTYPE svg PUBLIC "-//W3C//DTD SVG 1.1//EN" "http://www.w3.org/Graphics/SVG/1.1/DTD/svg11.dtd">
<svg version="1.1" id="Layer_1" xmlns="http://www.w3.org/2000/svg" xmlns:xlink="http://www.w3.org/1999/xlink" x="0px" y="0px"
	 viewBox="0 0 16 16" enable-background="new 0 0 16 16" xml:space="preserve">
<g opacity="0.8" enable-background="new    ">
	<path d="M10.9,15.4l-8.8-1c-1.3,0-2-0.9-2-2V3.6c0-1.1,0.9-2,2-2l8.8-1c1.1,0,2,0.9,2,2v10.9C12.9,14.4,12,15.3,10.9,15.4z M2,2.3
		c-0.7,0-1.2,0.6-1.2,1.3v8.9c0,0.7,0.5,1.3,1.2,1.3l8.9,1c0.7,0,1.3-0.6,1.3-1.3V2.6c0-0.7-0.6-1.3-1.3-1.3L2,2.3z"/>
</g>
<path opacity="0.8" fill="#FFFFFF" enable-background="new    " d="M10.8,14.8l-8.5-1c-0.9-0.1-1.5-0.4-1.5-1.5V3.8
	c0-0.9,0.5-1.5,1.4-1.5l8.6-1c0.9,0,1.4,0.6,1.4,1.4v10.6C12.1,14.4,11.6,14.8,10.8,14.8z"/>
<path opacity="0.8" enable-background="new    " d="M12.6,14.4h1c1.1,0,2-0.9,2-2V3.6c0-1.1-0.9-2-1.9-2h-1.1l0.3,0.7h0.9
	c0.7,0,1.2,0.6,1.2,1.3v8.9c0,0.7-0.5,1.3-1.2,1.3h-0.9"/>
<path opacity="0.3" enable-background="new    " d="M13.6,13.8h-0.7V2.2h0.8c0.8,0,1.3,0.5,1.3,1.5v8.6C15,13.5,14.3,13.8,13.6,13.8
	z"/>
<g>
	<g>
		<path fill="#229928" d="M4.9,10.8C3,10.5,1.7,8.8,2,6.9C2.2,5,4,3.7,5.8,4S9,6,8.7,7.9C8.5,9.7,6.8,11,4.9,10.8z M5.7,4.7
			C4.3,4.5,2.9,5.5,2.7,7C2.5,8.5,3.5,9.8,5,10c1.5,0.2,2.8-0.8,3-2.3C8.2,6.3,7.2,4.9,5.7,4.7z"/>
	</g>
	<path fill="#229928" d="M9.8,13.7l-2.1-2.3c-0.1-0.1-0.1-0.4,0-0.5l0.7-0.6c0.1-0.1,0.4-0.1,0.5,0l2.1,2.3c0.1,0.1,0.1,0.4,0,0.5
		l-0.7,0.6C10.1,13.8,9.9,13.8,9.8,13.7z"/>
</g>
</svg>
