<?xml version="1.0" encoding="utf-8"?>
<!-- Generator: Adobe Illustrator 18.0.0, SVG Export Plug-In . SVG Version: 6.00 Build 0)  -->
<!DOCTYPE svg PUBLIC "-//W3C//DTD SVG 1.1//EN" "http://www.w3.org/Graphics/SVG/1.1/DTD/svg11.dtd">
<svg version="1.1" id="Layer_1" xmlns="http://www.w3.org/2000/svg" xmlns:xlink="http://www.w3.org/1999/xlink" x="0px" y="0px"
	 viewBox="0 0 16 16" enable-background="new 0 0 16 16" xml:space="preserve">
<polygon opacity="0.8" fill="#FFFFFF" enable-background="new    " points="14.7,15 3.5,15 3.5,1 10.3,1 14.7,4.7 "/>
<path opacity="0.5" enable-background="new    " d="M10.5,0.2H2.7v15.6h12.7V4.3L10.5,0.2z M10.6,1.3l3.6,3 M14.7,4.7V15H3.5V1h6.8"
	/>
<polygon opacity="0.5" enable-background="new    " points="10.3,4.7 10.3,1 9.5,1 9.5,5.5 10,5.5 10,5.5 14.7,5.5 14.7,4.7 "/>
<g>
	<g>
		<path fill="#229928" d="M8.1,13c-1.9,0.1-3.5-1.4-3.6-3.2C4.4,7.8,5.9,6.2,7.8,6.1c1.9-0.1,3.5,1.4,3.6,3.2
			C11.5,11.3,10,12.9,8.1,13z M7.8,6.9C6.3,6.9,5.2,8.2,5.3,9.7c0.1,1.5,1.3,2.6,2.8,2.6c1.5-0.1,2.6-1.3,2.6-2.8
			C10.6,7.9,9.3,6.8,7.8,6.9z"/>
	</g>
	<path fill="#229928" d="M13.5,14.9L11,13c-0.2-0.1-0.2-0.3-0.1-0.5l0.5-0.7c0.1-0.2,0.3-0.2,0.5-0.1l2.5,1.9
		c0.2,0.1,0.2,0.3,0.1,0.5L14,14.9C13.8,15,13.6,15,13.5,14.9z"/>
</g>
<rect x="1.4" y="1" opacity="0.8" fill="#FFFFFF" enable-background="new    " width="1.4" height="14"/>
<polygon opacity="0.5" enable-background="new    " points="1.4,15 1.4,1 2.7,1 2.7,0.2 0.6,0.2 0.6,15.8 2.7,15.8 2.7,15 "/>
</svg>
