<?xml version="1.0" encoding="utf-8"?>
<!-- Generator: Adobe Illustrator 18.0.0, SVG Export Plug-In . SVG Version: 6.00 Build 0)  -->
<!DOCTYPE svg PUBLIC "-//W3C//DTD SVG 1.1//EN" "http://www.w3.org/Graphics/SVG/1.1/DTD/svg11.dtd">
<svg version="1.1" id="Layer_1" xmlns="http://www.w3.org/2000/svg" xmlns:xlink="http://www.w3.org/1999/xlink" x="0px" y="0px"
	 viewBox="0 0 16 16" enable-background="new 0 0 16 16" xml:space="preserve">
<g opacity="0.3" enable-background="new    ">
	<path d="M0,13.5V2.6c0-1.3,1.1-2.4,2.4-2.4h10.9c1.3,0,2.4,1.1,2.4,2.4v10.8c0,1.3-1.1,2.4-2.4,2.4H2.5C1.2,15.8,0.1,14.7,0,13.5z
		 M2.5,1C1.6,1,0.9,1.7,0.9,2.6v10.9c0,0.9,0.7,1.6,1.6,1.6h10.9c0.9,0,1.5-0.7,1.5-1.6V2.6c0-0.9-0.6-1.6-1.5-1.6
		C13.4,1,2.5,1,2.5,1z"/>
</g>
<path opacity="0.8" fill="#FFFFFF" enable-background="new    " d="M0.4,13.5V2.6c0-1.1,0.9-2,2-2h10.9c1.1,0,2,0.9,2,2v10.8
	c0,1.1-0.9,2-2,2H2.5C1.4,15.4,0.5,14.5,0.4,13.5z"/>
<path opacity="0.8" fill="none" stroke="#000000" stroke-miterlimit="10" d="M10.5,3.9c0-0.6-0.4-1-0.9-1H7.9V2.2
	c0-0.2-0.1-0.3-0.5-0.3H5C4.6,1.9,4.5,2,4.5,2.2v0.7H2.6l0,0c-0.4,0-0.8,0.5-0.8,1v8.4c0,0.6,0.4,1,0.8,1"/>
<g id="Arrow_10">
</g>
<g>
	<g>
		<g>
			<path fill="#229928" d="M14.1,15.1c-0.1,0.1-0.3,0.1-0.4,0l-2.1-2c-0.1-0.1-0.1-0.3,0-0.4l0.8-0.8c0.1-0.1,0.3-0.1,0.4,0l2.1,2
				c0.1,0.1,0.1,0.3,0,0.4L14.1,15.1z"/>
		</g>
	</g>
</g>
<g>
	<path fill="#229928" stroke="#229928" stroke-width="0.5" stroke-miterlimit="10" d="M3.4,9.1c0-0.5,0.1-1,0.2-1.5
		C4.4,5.3,6.9,4,9.3,4.8c1.9,0.6,3,2.3,3,4.2c0,0.5-0.1,1-0.2,1.5c-0.8,2.3-3.3,3.6-5.6,2.8C4.6,12.6,3.4,10.9,3.4,9.1 M4.6,9.1
		c0,1.4,0.9,2.6,2.2,3.1c0.8,0.3,1.7,0.2,2.5-0.2c0.8-0.4,1.4-1.1,1.6-1.9c0.1-0.3,0.2-0.7,0.2-1.1c0-1.4-0.9-2.6-2.2-3.1
		C8.1,5.7,7.2,5.7,6.4,6.1C5.6,6.5,5,7.2,4.8,8l0,0C4.7,8.4,4.6,8.7,4.6,9.1L4.6,9.1z"/>
</g>
</svg>
