<?xml version="1.0" encoding="utf-8"?>
<!-- Generator: Adobe Illustrator 18.0.0, SVG Export Plug-In . SVG Version: 6.00 Build 0)  -->
<!DOCTYPE svg PUBLIC "-//W3C//DTD SVG 1.1//EN" "http://www.w3.org/Graphics/SVG/1.1/DTD/svg11.dtd">
<svg version="1.1" id="Layer_1" xmlns="http://www.w3.org/2000/svg" xmlns:xlink="http://www.w3.org/1999/xlink" x="0px" y="0px"
	 viewBox="0 0 16 16" enable-background="new 0 0 16 16" xml:space="preserve">
<polygon opacity="0.8" fill="#FFFFFF" enable-background="new    " points="13.7,15 2.5,15 2.5,1 9.3,1 13.7,4.7 "/>
<path opacity="0.5" enable-background="new    " d="M9.5,0.2H1.7v15.6h12.7V4.3L9.5,0.2z M9.6,1.3l3.6,3 M13.7,4.7V15H2.5V1h6.8"/>
<polygon opacity="0.7" enable-background="new    " points="9.3,4.7 9.3,1 8.5,1 8.5,5.5 9,5.5 9,5.5 13.7,5.5 13.7,4.7 "/>
<g>
	<g>
		<path fill="#229928" d="M6.7,12.6c-1.9,0.1-3.5-1.4-3.6-3.2C3,7.5,4.5,5.9,6.3,5.8C8.2,5.7,9.8,7.2,9.9,9
			C10,10.9,8.6,12.5,6.7,12.6z M6.4,6.5C4.9,6.6,3.8,7.9,3.8,9.3c0.1,1.5,1.3,2.6,2.8,2.6c1.5-0.1,2.6-1.3,2.6-2.8
			C9.1,7.6,7.9,6.5,6.4,6.5z"/>
	</g>
	<path fill="#229928" d="M12,14.6l-2.5-1.9c-0.2-0.1-0.2-0.3-0.1-0.5l0.5-0.7c0.1-0.2,0.3-0.2,0.5-0.1l2.5,1.9
		c0.2,0.1,0.2,0.3,0.1,0.5l-0.5,0.7C12.4,14.7,12.2,14.7,12,14.6z"/>
</g>
</svg>
