<?xml version="1.0" encoding="utf-8"?>
<!-- Generator: Adobe Illustrator 18.0.0, SVG Export Plug-In . SVG Version: 6.00 Build 0)  -->
<!DOCTYPE svg PUBLIC "-//W3C//DTD SVG 1.1//EN" "http://www.w3.org/Graphics/SVG/1.1/DTD/svg11.dtd">
<svg version="1.1" id="Layer_1" xmlns="http://www.w3.org/2000/svg" xmlns:xlink="http://www.w3.org/1999/xlink" x="0px" y="0px"
	 viewBox="0 0 16 16" enable-background="new 0 0 16 16" xml:space="preserve">
<polygon opacity="0.8" fill="#FFFFFF" enable-background="new    " points="15.2,14.8 5.1,14.8 5.1,2.1 11.3,2.1 15.2,5.5 "/>
<path opacity="0.5" enable-background="new    " d="M11.4,1.4h-7v14.1h11.5V5.1L11.4,1.4z M11.5,2.4l3.3,2.7 M15.2,5.5v9.3H5.1V2.1
	h6.1"/>
<polygon opacity="0.5" enable-background="new    " points="11.3,5.5 11.3,2.1 10.5,2.1 10.5,6.2 11,6.2 11,6.2 15.2,6.2 15.2,5.5 
	"/>
<g>
	<g>
		<path fill="#229928" d="M9.2,12.9C7.5,13,6.1,11.7,6,10C5.9,8.3,7.2,6.8,8.9,6.8s3.1,1.2,3.2,2.9C12.3,11.4,10.9,12.8,9.2,12.9z
			 M9,7.4C7.6,7.5,6.6,8.6,6.7,10c0.1,1.3,1.2,2.4,2.5,2.3c1.3-0.1,2.4-1.2,2.3-2.5C11.4,8.4,10.3,7.3,9,7.4z"/>
	</g>
	<path fill="#229928" d="M14.1,14.7L11.9,13c-0.2-0.1-0.2-0.3-0.1-0.5l0.4-0.6c0.1-0.2,0.3-0.2,0.5-0.1l2.2,1.7
		c0.2,0.1,0.2,0.3,0.1,0.5l-0.4,0.6C14.4,14.8,14.2,14.8,14.1,14.7z"/>
</g>
<rect x="0.9" y="2.1" fill="#FFFFFF" width="2.8" height="12.6"/>
<polygon opacity="0.5" enable-background="new    " points="3.8,2.1 3.8,1.4 0.1,1.4 0.1,15.5 3.8,15.5 3.8,14.8 0.9,14.8 0.9,2.1 
	"/>
</svg>
