<?xml version="1.0" encoding="utf-8"?>
<!-- Generator: Adobe Illustrator 18.0.0, SVG Export Plug-In . SVG Version: 6.00 Build 0)  -->
<!DOCTYPE svg PUBLIC "-//W3C//DTD SVG 1.1//EN" "http://www.w3.org/Graphics/SVG/1.1/DTD/svg11.dtd">
<svg version="1.1" id="Layer_1" xmlns="http://www.w3.org/2000/svg" xmlns:xlink="http://www.w3.org/1999/xlink" x="0px" y="0px"
	 viewBox="0 0 16 16" enable-background="new 0 0 16 16" xml:space="preserve">
<polygon opacity="0.8" fill="#FFFFFF" enable-background="new    " points="12.8,15.6 0.6,15.6 0.6,0.4 8.1,0.4 12.8,4.4 "/>
<path opacity="0.3" enable-background="new    " d="M8.2,0h-8v16h13V4.2L8.2,0z M8.3,1.1L12,4.2H8.3V1.1z M1,15.2V0.8h6.5v4.1h5
	v10.3C12.5,15.2,1,15.2,1,15.2z"/>
<g id="Search">
	<g>
		<g>
			<g>
				<path fill="#229928" d="M1.6,13.7c-0.1-0.1-0.1-0.3,0.1-0.4L4.5,11c0.1-0.1,0.3-0.1,0.4,0.1l0.9,1.1c0.1,0.1,0.1,0.3-0.1,0.4
					l-2.9,2.2c-0.1,0.1-0.3,0.1-0.4-0.1L1.6,13.7z"/>
			</g>
		</g>
	</g>
	<g>
		<path fill="#229928" d="M8.7,5.6c0.4,0,0.8,0.1,1.1,0.3c1.8,0.8,2.6,2.9,1.8,4.7c-0.6,1.4-2.1,2.2-3.5,2.1c-0.4,0-0.8-0.1-1.1-0.3
			c-1.8-0.8-2.6-2.9-1.8-4.7C5.8,6.3,7.3,5.5,8.7,5.6 M8.7,6.6C7.6,6.5,6.5,7.1,6.1,8.1c-0.3,0.6-0.3,1.3,0,2
			c0.2,0.6,0.7,1.1,1.4,1.4c0.3,0.1,0.5,0.2,0.8,0.2c1.1,0.1,2.1-0.5,2.6-1.5c0.3-0.6,0.3-1.3,0-2c-0.2-0.6-0.7-1.1-1.4-1.4l0,0
			C9.2,6.7,8.9,6.6,8.7,6.6L8.7,6.6z"/>
	</g>
</g>
</svg>
