<?xml version="1.0" encoding="utf-8"?>
<!-- Generator: Adobe Illustrator 18.0.0, SVG Export Plug-In . SVG Version: 6.00 Build 0)  -->
<!DOCTYPE svg PUBLIC "-//W3C//DTD SVG 1.1//EN" "http://www.w3.org/Graphics/SVG/1.1/DTD/svg11.dtd">
<svg version="1.1" id="Layer_1" xmlns="http://www.w3.org/2000/svg" xmlns:xlink="http://www.w3.org/1999/xlink" x="0px" y="0px"
	 viewBox="0 0 16 16" enable-background="new 0 0 16 16" xml:space="preserve">
<g opacity="0.3" enable-background="new    ">
	<path d="M16,4.9v8.9c0,1.1-0.9,2-2,2H5.2c-1.1,0-2-0.9-2-2V5c0-1.1,0.7-2,2-2H14C15.1,3.1,16,4,16,4.9z M14,15.1
		c0.7,0,1.3-0.6,1.3-1.3V4.9c0-0.7-0.6-1.3-1.3-1.3H5.1c-0.7,0-1.2,0.6-1.2,1.3v8.9c0,0.7,0.5,1.3,1.2,1.3C5.1,15.1,14,15.1,14,15.1
		z"/>
</g>
<path opacity="0.8" fill="#FFFFFF" enable-background="new    " d="M15.7,4.9v8.9c0,0.9-0.7,1.6-1.6,1.6H5.2c-0.9,0-1.6-0.7-1.6-1.6
	V5c0-0.9,0.7-1.6,1.6-1.6H14C14.9,3.4,15.6,4.1,15.7,4.9z"/>
<path opacity="0.8" fill="#FFFFFF" enable-background="new    " d="M2.1,12.7h1.1v-8C3.5,3.3,4.3,3.3,5,3.1h7.5V2.5
	c0.1-1.3-0.6-1.9-1.5-1.9H2.3c-1.8,0-1.7,1.1-1.7,1.9v8.6C0.6,12,1.3,12.7,2.1,12.7z"/>
<path opacity="0.3" enable-background="new    " d="M2.1,13h1.1v-0.7H2c-0.7,0-1.2-0.6-1.2-1.3V2.1c0-0.7,0.5-1.3,1.2-1.3h9
	c0.7,0,1.3,0.6,1.3,1.3v1H13v-1c-0.1-1-1-1.9-2-1.9H2.2c-1.1,0-2,0.9-2,2V11C0.2,12.1,1.1,13,2.1,13z"/>
<g>
	<path fill="#229928" d="M5.8,10.6c-0.2-0.1-0.2-0.4,0-0.6L6,9.6c0.1-0.2,0.4-0.2,0.6,0l1.7,1.5c0.2,0.1,0.4,0.1,0.6,0l4.4-5
		c0.1-0.2,0.4-0.2,0.6,0l0.4,0.3c0.2,0.1,0.2,0.4,0,0.6l-5.2,6c-0.1,0.2-0.4,0.2-0.6,0L5.8,10.6z"/>
</g>
</svg>
