<?xml version="1.0" encoding="utf-8"?>
<!-- Generator: Adobe Illustrator 18.0.0, SVG Export Plug-In . SVG Version: 6.00 Build 0)  -->
<!DOCTYPE svg PUBLIC "-//W3C//DTD SVG 1.1//EN" "http://www.w3.org/Graphics/SVG/1.1/DTD/svg11.dtd">
<svg version="1.1" id="Layer_1" xmlns="http://www.w3.org/2000/svg" xmlns:xlink="http://www.w3.org/1999/xlink" x="0px" y="0px"
	 viewBox="0 0 16 16" enable-background="new 0 0 16 16" xml:space="preserve">
<g opacity="0.3" enable-background="new    ">
	<path d="M13.4,15.8H2.6c-1.3,0-2.4-1.1-2.4-2.4V2.6c0-1.3,1.1-2.4,2.4-2.4h10.9c1.3,0,2.4,1.1,2.4,2.4v10.9
		C15.8,14.7,14.7,15.8,13.4,15.8z M2.5,1C1.6,1,1,1.7,1,2.6v10.9c0,0.9,0.6,1.6,1.5,1.6h10.9c0.9,0,1.6-0.7,1.6-1.6V2.6
		C15,1.7,14.3,1,13.4,1H2.5z"/>
</g>
<path opacity="0.8" fill="#FFFFFF" enable-background="new    " d="M13.4,15.4H2.6c-1.1,0-2-0.9-2-2V2.6c0-1.1,0.9-2,2-2h10.9
	c1.1,0,2,0.9,2,2v10.9C15.4,14.5,14.5,15.4,13.4,15.4z"/>
<g id="Arrow_3">
	<g id="Arrow_28">
		<rect x="-0.4" y="4" fill="none" width="8.5" height="5.9"/>
	</g>
	<rect x="1.7" y="2.3" fill="#52BF52" width="12.6" height="11"/>
	<g>
		<rect x="4" y="4.8" width="8.1" height="1"/>
	</g>
	<g>
		<rect x="5.1" y="7.3" width="5.1" height="1"/>
	</g>
	<g>
		<rect x="3.9" y="10" width="8.3" height="1"/>
	</g>
</g>
</svg>
