<?xml version="1.0" encoding="utf-8"?>
<!-- Generator: Adobe Illustrator 18.0.0, SVG Export Plug-In . SVG Version: 6.00 Build 0)  -->
<!DOCTYPE svg PUBLIC "-//W3C//DTD SVG 1.1//EN" "http://www.w3.org/Graphics/SVG/1.1/DTD/svg11.dtd">
<svg version="1.1" id="Layer_1" xmlns="http://www.w3.org/2000/svg" xmlns:xlink="http://www.w3.org/1999/xlink" x="0px" y="0px"
	 viewBox="0 0 16 16" enable-background="new 0 0 16 16" xml:space="preserve">
<path opacity="0.8" fill="#FFFFFF" enable-background="new    " d="M13.4,0.9H7.9v14.3h5.3c1.1,0,1.8-0.7,1.9-1.7V2.7
	C15.2,1.6,14.5,0.9,13.4,0.9z"/>
<path opacity="0.8" fill="#FFFFFF" enable-background="new    " d="M0.9,13.4V2.7C0.8,1.4,1.6,0.9,2.7,0.9h10.7
	c1.1,0,1.8,0.7,1.8,1.8v10.6c0,1.1-0.4,2-1.8,2H2.8C1.3,15.4,0.9,14.5,0.9,13.4z"/>
<g opacity="0.8" enable-background="new    ">
	<path d="M0.1,13.7V2.5c0-1.3,1-2.3,2.3-2.3h11.1c1.3,0,2.3,1,2.3,2.3v11c0,1.3-1,2.3-2.3,2.3h-11C1.3,15.9,0.3,14.9,0.1,13.7z
		 M2.5,0.9c-0.9,0-1.6,0.7-1.6,1.6v11.1c0,0.9,0.7,1.6,1.6,1.6h11.1c0.9,0,1.6-0.7,1.6-1.6V2.5c0-0.9-0.7-1.6-1.6-1.6H2.5z"/>
</g>
<g id="Arrow_10">
</g>
<path opacity="0.8" enable-background="new    " d="M3.2,13.2l0.4,0.3c0.3,0.2,0.5,0.2,0.8-0.1l7.9-9.2c0.2-0.3,0.2-0.5-0.1-0.8
	L11.8,3c-0.3-0.2-0.5-0.2-0.8,0.1l-7.9,9.3C2.9,12.6,2.9,13,3.2,13.2z"/>
</svg>
