<?xml version="1.0" encoding="utf-8"?>
<!-- Generator: Adobe Illustrator 18.0.0, SVG Export Plug-In . SVG Version: 6.00 Build 0)  -->
<!DOCTYPE svg PUBLIC "-//W3C//DTD SVG 1.1//EN" "http://www.w3.org/Graphics/SVG/1.1/DTD/svg11.dtd">
<svg version="1.1" id="Layer_1" xmlns="http://www.w3.org/2000/svg" xmlns:xlink="http://www.w3.org/1999/xlink" x="0px" y="0px"
	 viewBox="0 0 16 16" enable-background="new 0 0 16 16" xml:space="preserve">
<path opacity="0.8" fill="#FFFFFF" enable-background="new    " d="M13.4,0.9H7.9v14.3h5.3c1.1,0,1.8-0.7,1.9-1.7V2.7
	C15.2,1.6,14.5,0.9,13.4,0.9z"/>
<path opacity="0.15" enable-background="new    " d="M2.6,0.9H8v14.3H2.7c-1.1,0-1.8-0.7-1.9-1.7V2.7C0.8,1.6,1.5,0.9,2.6,0.9z"/>
<g opacity="0.8" enable-background="new    ">
	<path d="M13.4,15.8h-11c-1.3,0-2.3-1-2.3-2.3v-11c0-1.3,1-2.3,2.3-2.3h11.1c1.3,0,2.3,1,2.3,2.3v11.1
		C15.8,14.8,14.8,15.8,13.4,15.8z M2.4,0.9c-0.9,0-1.6,0.7-1.6,1.6v11.1c0,0.9,0.7,1.6,1.6,1.6h11.1c0.9,0,1.6-0.7,1.6-1.6V2.5
		c0-0.9-0.7-1.6-1.6-1.6H2.4z"/>
</g>
<g id="Arrow_10">
</g>
<path opacity="0.8" d="M5.1,13.7H4.4c-0.3,0-0.6-0.3-0.6-0.6v-10c0-0.3,0.3-0.6,0.6-0.6h0.6c0.3,0,0.6,0.3,0.6,0.6v10
	C5.6,13.5,5.4,13.7,5.1,13.7z"/>
<path opacity="0.8" d="M11.5,13.7h-0.6c-0.3,0-0.6-0.3-0.6-0.6v-10c0-0.3,0.3-0.6,0.6-0.6h0.6c0.3,0,0.6,0.3,0.6,0.6v10
	C12,13.5,11.8,13.7,11.5,13.7z"/>
</svg>
