<?xml version="1.0" encoding="iso-8859-1"?>
<!-- Generator: Adobe Illustrator 18.0.0, SVG Export Plug-In . SVG Version: 6.00 Build 0)  -->
<!DOCTYPE svg PUBLIC "-//W3C//DTD SVG 1.1//EN" "http://www.w3.org/Graphics/SVG/1.1/DTD/svg11.dtd">
<svg xmlns="http://www.w3.org/2000/svg" xmlns:xlink="http://www.w3.org/1999/xlink" version="1.1" id="Capa_1" x="0px" y="0px" viewBox="0 0 293 293" style="enable-background:new 0 0 293 293;" xml:space="preserve" width="512px" height="512px">
<g>
	<path d="M254.5,108h-216C17.271,108,0,125.271,0,146.5S17.271,185,38.5,185h144.007c6.449-12.326,19.357-20.762,34.206-20.762   c3.249,0,6.469,0.408,9.598,1.215l5.585-2.604c0.322-1.499,0.738-2.962,1.23-4.388c-4.879-1.79-8.376-6.469-8.376-11.96   c0-7.03,5.72-12.75,12.75-12.75c4.29,0,8.085,2.137,10.396,5.395c6.235-4.265,13.743-6.746,21.725-6.746   c8.523,0,16.405,2.783,22.797,7.48C289.27,121.796,273.47,108,254.5,108z M81.5,156.5h-35c-5.514,0-10-4.486-10-10s4.486-10,10-10   h35c5.514,0,10,4.486,10,10S87.014,156.5,81.5,156.5z" fill="#666666"/>
	<path d="M235.421,249.065c-4.59-0.758-8.352-3.967-9.899-8.24l-0.616-0.295c-2.689,0.587-5.437,0.883-8.192,0.883   c-21.277,0-38.587-17.31-38.587-38.586c0-1.635,0.114-3.244,0.313-4.826H38.5C17.271,198,0,215.271,0,236.5S17.271,275,38.5,275   h216c4.967,0,9.713-0.956,14.077-2.677C254.044,271.448,241.152,262.233,235.421,249.065z M81.5,246.5h-35c-5.514,0-10-4.486-10-10   s4.486-10,10-10h35c5.514,0,10,4.486,10,10S87.014,246.5,81.5,246.5z" fill="#666666"/>
	<path d="M38.5,95h216c21.228,0,38.5-17.271,38.5-38.5S275.728,18,254.5,18h-216C17.271,18,0,35.271,0,56.5S17.271,95,38.5,95z    M237.5,43.75c7.03,0,12.75,5.72,12.75,12.75s-5.72,12.75-12.75,12.75s-12.75-5.72-12.75-12.75S230.47,43.75,237.5,43.75z    M46.5,46.5h35c5.514,0,10,4.486,10,10s-4.486,10-10,10h-35c-5.514,0-10-4.486-10-10S40.986,46.5,46.5,46.5z" fill="#666666"/>
	<path d="M270.585,215.227c-5.9,0-11.156,2.773-14.563,7.073l-23.025-11.039c1.298-2.535,2.046-5.398,2.046-8.436   c0-2.74-0.611-5.335-1.68-7.679l23.126-10.787c3.344,3.219,7.878,5.212,12.875,5.212c10.249,0,18.587-8.337,18.587-18.586   c0-10.249-8.338-18.587-18.587-18.587c-10.249,0-18.587,8.338-18.587,18.587c0,1.63,0.232,3.204,0.628,4.712l-24.809,11.571   c-2.92-1.91-6.4-3.031-10.142-3.031c-10.249,0-18.586,8.338-18.586,18.588c0,10.249,8.337,18.586,18.586,18.586   c3.395,0,6.57-0.93,9.311-2.526l26.386,12.65c-0.092,0.749-0.154,1.505-0.154,2.278c0,10.247,8.338,18.585,18.586,18.585   c10.249,0,18.587-8.337,18.587-18.585C289.172,223.565,280.834,215.227,270.585,215.227z" fill="#666666"/>
</g>
<g>
</g>
<g>
</g>
<g>
</g>
<g>
</g>
<g>
</g>
<g>
</g>
<g>
</g>
<g>
</g>
<g>
</g>
<g>
</g>
<g>
</g>
<g>
</g>
<g>
</g>
<g>
</g>
<g>
</g>
</svg>
