<?xml version="1.0" encoding="utf-8"?>
<!-- Generator: Adobe Illustrator 18.0.0, SVG Export Plug-In . SVG Version: 6.00 Build 0)  -->
<!DOCTYPE svg PUBLIC "-//W3C//DTD SVG 1.1//EN" "http://www.w3.org/Graphics/SVG/1.1/DTD/svg11.dtd">
<svg version="1.1" id="Layer_1" xmlns="http://www.w3.org/2000/svg" xmlns:xlink="http://www.w3.org/1999/xlink" x="0px" y="0px"
	 viewBox="0 0 16 16" enable-background="new 0 0 16 16" xml:space="preserve">
<path opacity="0.8" fill="#FFFFFF" enable-background="new    " d="M13.4,15.2H2.7c-1.1,0-1.8-0.8-1.8-1.9V2.6
	c0-1.1,0.7-1.8,1.8-1.8h10.8c1.1,0,1.7,0.7,1.7,1.8l0.1,10.6C15.3,14.5,14.6,15.2,13.4,15.2z"/>
<g opacity="0.5" enable-background="new    ">
	<path d="M13.4,15.8h-11c-1.3,0-2.3-1-2.3-2.3v-11c0-1.3,1-2.3,2.3-2.3h11.1c1.3,0,2.3,1,2.3,2.3v11.1
		C15.8,14.8,14.8,15.8,13.4,15.8z M2.5,0.9c-0.9,0-1.6,0.7-1.6,1.6v11.1c0,0.9,0.7,1.6,1.6,1.6h11.1c0.9,0,1.6-0.7,1.6-1.6V2.5
		c0-0.9-0.7-1.6-1.6-1.6H2.5z"/>
</g>
<g opacity="0.8">
	<polygon points="2.6,8 6.8,8 6.1,9.1 2.6,9.1 	"/>
	<polygon points="2.6,3.9 9,3.9 8.4,5.1 2.6,5.1 	"/>
	<polygon points="2.6,12.4 4.3,12.4 3.7,13.5 2.6,13.5 	"/>
	<g>
		<polygon points="8.3,10.5 10,11.7 13.6,6.3 12,5.3 		"/>
		<polygon points="11.6,5 11.3,4.8 7.7,10.1 8,10.2 		"/>
		<path d="M14,5.4l-2-1.3c-0.1-0.1-0.1-0.1-0.2,0l-0.2,0.2l2.2,1.6l0.3-0.3C14.2,5.5,14.1,5.5,14,5.4z"/>
		<path d="M7.2,10.7c-0.1,0.1,0,0.1,0.1,0.2l2,1.3c0.1,0.1,0.1,0.1,0.2,0L9.8,12l-2.3-1.5L7.2,10.7z"/>
		<path d="M7.4,11.2c-0.3-0.2-0.6,0-0.6,0.3l-0.1,1.7c0,0.4,0.2,0.6,0.6,0.4L9,13.1c0.4-0.1,0.4-0.5,0-0.7L7.4,11.2z"/>
	</g>
</g>
</svg>
