<?xml version="1.0" encoding="utf-8"?>
<!-- Generator: Adobe Illustrator 18.0.0, SVG Export Plug-In . SVG Version: 6.00 Build 0)  -->
<!DOCTYPE svg PUBLIC "-//W3C//DTD SVG 1.1//EN" "http://www.w3.org/Graphics/SVG/1.1/DTD/svg11.dtd">
<svg version="1.1" id="Layer_1" xmlns="http://www.w3.org/2000/svg" xmlns:xlink="http://www.w3.org/1999/xlink" x="0px" y="0px"
	 viewBox="0 0 16 16" enable-background="new 0 0 16 16" xml:space="preserve">
<path opacity="0.8" fill="#FFFFFF" enable-background="new    " d="M13.4,15.2H2.7c-1.1,0-1.8-0.8-1.8-1.9V2.6
	c0-1.1,0.7-1.8,1.8-1.8h10.8c1.1,0,1.7,0.7,1.7,1.8l0.1,10.6C15.3,14.5,14.6,15.2,13.4,15.2z"/>
<g opacity="0.5" enable-background="new    ">
	<path d="M13.4,15.8h-11c-1.3,0-2.3-1-2.3-2.3v-11c0-1.3,1-2.3,2.3-2.3h11.1c1.3,0,2.3,1,2.3,2.3v11.1
		C15.8,14.8,14.8,15.8,13.4,15.8z M2.5,0.9c-0.9,0-1.6,0.7-1.6,1.6v11.1c0,0.9,0.7,1.6,1.6,1.6h11.1c0.9,0,1.6-0.7,1.6-1.6V2.5
		c0-0.9-0.7-1.6-1.6-1.6H2.5z"/>
</g>
<rect x="2.5" y="3.9" width="6.6" height="0.7"/>
<rect x="2.5" y="12.5" width="3.3" height="0.7"/>
<rect x="2.5" y="7.7" width="3.9" height="0.7"/>
<g>
	<g>
		<polygon fill="#D33737" points="9.8,11.4 13.8,6.4 12.3,5.2 8.2,10.1 		"/>
		<polygon fill="#D33737" points="7.6,9.6 7.9,9.8 11.9,4.9 11.6,4.7 		"/>
		<path fill="#D33737" d="M14.3,5.5L12.4,4c-0.1-0.1-0.1-0.1-0.2,0L12,4.2L14.1,6l0.2-0.3C14.4,5.7,14.4,5.6,14.3,5.5z"/>
		<path fill="#D33737" d="M7.3,10l-0.2,0.2c-0.1,0.1,0,0.1,0.1,0.2l1.9,1.5c0.1,0.1,0.1,0.1,0.2,0l0.2-0.2L7.3,10z"/>
	</g>
	<g>
		<path fill="#D33737" d="M8.7,12C9,12.2,9,12.6,8.6,12.7L7,13.2c-0.4,0.1-0.6-0.1-0.6-0.5L6.6,11c0-0.4,0.3-0.5,0.6-0.3L8.7,12z"/>
	</g>
</g>
</svg>
