<?xml version="1.0" encoding="utf-8"?>
<!DOCTYPE svg PUBLIC "-//W3C//DTD SVG 1.1//EN" "http://www.w3.org/Graphics/SVG/1.1/DTD/svg11.dtd">
<svg xmlns="http://www.w3.org/2000/svg" xmlns:xlink="http://www.w3.org/1999/xlink" version="1.1" viewBox="0 0 512 512" enable-background="new 0 0 512 512" width="512px" height="512px">
  <g>
    <g>
      <polygon points="256,11 33.7,76.6 256,152.1 478.3,76.6   " fill="#666666"/>
      <path d="M13.1,350.3c0,8.7,5.5,16.4,13.7,19.2l208.9,71V188L13.1,112.3V350.3z" fill="#666666"/>
      <path d="m465.7,431.1c-4.9,4.7-10.2,8.9-16.1,12.5-5.9,3.6-12.1,6.3-18.5,8.5l20.2,39.2c8.7,13.7 23.1,9.6 27.8,6.6 9.5-5.9 12.5-18.3 6.6-27.8l-20-39z" fill="#666666"/>
      <circle cx="400.5" cy="363.7" r="56.7" fill="#666666"/>
      <path d="m276.2,188v252.5c0,0 44.7-15.8 46.6-17.6-12.6-16.4-20-37-20-59.2 0-53.9 43.8-97.7 97.7-97.7 51.4,0 93.6,39.9 97.4,90.3 0.6-1.9 1-3.9 1-6v-238l-222.7,75.7z" fill="#666666"/>
    </g>
  </g>
</svg>
