<?xml version="1.0" encoding="iso-8859-1"?>
<!-- Generator: Adobe Illustrator 18.0.0, SVG Export Plug-In . SVG Version: 6.00 Build 0)  -->
<!DOCTYPE svg PUBLIC "-//W3C//DTD SVG 1.1//EN" "http://www.w3.org/Graphics/SVG/1.1/DTD/svg11.dtd">
<svg xmlns="http://www.w3.org/2000/svg" xmlns:xlink="http://www.w3.org/1999/xlink" version="1.1" id="Capa_1" x="0px" y="0px" viewBox="0 0 495.973 495.973" style="enable-background:new 0 0 495.973 495.973;" xml:space="preserve" width="512px" height="512px">
<path d="M347.402,0H148.571c-14.548,0-26.35,11.807-26.35,26.354V488.65c0,2.984,1.806,5.662,4.561,6.789  c2.76,1.113,5.92,0.453,8.016-1.691l107.947-111.027c1.373-1.418,3.275-2.225,5.242-2.225c1.985,0,3.87,0.807,5.256,2.225  L361.19,493.748c2.082,2.145,5.242,2.805,8.015,1.691c2.741-1.127,4.547-3.805,4.547-6.789V26.354  C373.752,11.807,361.964,0,347.402,0z" fill="#666666"/>
<g>
</g>
<g>
</g>
<g>
</g>
<g>
</g>
<g>
</g>
<g>
</g>
<g>
</g>
<g>
</g>
<g>
</g>
<g>
</g>
<g>
</g>
<g>
</g>
<g>
</g>
<g>
</g>
<g>
</g>
</svg>
