<?xml version="1.0" encoding="utf-8"?>
<!-- Generator: Adobe Illustrator 18.0.0, SVG Export Plug-In . SVG Version: 6.00 Build 0)  -->
<!DOCTYPE svg PUBLIC "-//W3C//DTD SVG 1.1//EN" "http://www.w3.org/Graphics/SVG/1.1/DTD/svg11.dtd">
<svg version="1.1" id="Layer_1" xmlns="http://www.w3.org/2000/svg" xmlns:xlink="http://www.w3.org/1999/xlink" x="0px" y="0px"
	 viewBox="0 0 16 16" enable-background="new 0 0 16 16" xml:space="preserve">
<g opacity="0.3" enable-background="new    ">
	<path d="M14,13H5.2c-1.3,0-2-0.9-2-2V2.2c0-1.1,0.9-2,2-2H14c1.1,0,2,0.9,2,2v8.9C16,12,15.1,12.9,14,13z M5.1,0.9
		c-0.7,0-1.2,0.6-1.2,1.3v8.9c0,0.7,0.5,1.3,1.2,1.3H14c0.7,0,1.3-0.6,1.3-1.3V2.2c0-0.7-0.6-1.3-1.3-1.3C14,0.9,5.1,0.9,5.1,0.9z"
		/>
</g>
<path opacity="0.8" fill="#FFFFFF" enable-background="new    " d="M14,12.6H5.2c-0.9,0-1.6-0.7-1.6-1.6V2.2c0-0.9,0.7-1.6,1.6-1.6
	h8.9c0.9,0,1.6,0.7,1.6,1.6v8.9C15.6,11.9,14.9,12.6,14,12.6z"/>
<path opacity="0.3" enable-background="new    " d="M0.2,5v8.8c0,1.1,0.9,2,2,2H11c1,0,1.9-0.9,2-1.9v-1h-0.7v1
	c0,0.7-0.6,1.3-1.3,1.3H2c-0.7,0-1.2-0.6-1.2-1.3V5c0-0.7,0.5-1.3,1.2-1.3h1.2V3H2.1C1.1,3,0.2,3.9,0.2,5z"/>
<rect x="6" y="3.2" fill="#229928" width="7.2" height="7.2"/>
</svg>
