<?xml version="1.0" encoding="utf-8"?>
<!-- Generator: Adobe Illustrator 18.0.0, SVG Export Plug-In . SVG Version: 6.00 Build 0)  -->
<!DOCTYPE svg PUBLIC "-//W3C//DTD SVG 1.1//EN" "http://www.w3.org/Graphics/SVG/1.1/DTD/svg11.dtd">
<svg version="1.1" id="Layer_1" xmlns="http://www.w3.org/2000/svg" xmlns:xlink="http://www.w3.org/1999/xlink" x="0px" y="0px"
	 viewBox="0 0 16 16" enable-background="new 0 0 16 16" xml:space="preserve">
<g opacity="0.3" enable-background="new    ">
	<path d="M0.1,13.5V2.6c0-1.3,1.1-2.4,2.4-2.4h10.9c1.3,0,2.4,1.1,2.4,2.4v10.8c0,1.3-1.1,2.4-2.4,2.4H2.6
		C1.3,15.8,0.2,14.7,0.1,13.5z M2.6,1C1.7,1,1,1.7,1,2.6v10.9c0,0.9,0.7,1.6,1.6,1.6h10.9c0.9,0,1.5-0.7,1.5-1.6V2.6
		C15,1.7,14.4,1,13.5,1H2.6z"/>
</g>
<path opacity="0.8" fill="#FFFFFF" enable-background="new    " d="M0.5,13.5V2.6c0-1.1,0.9-2,2-2h10.9c1.1,0,2,0.9,2,2v10.8
	c0,1.1-0.9,2-2,2H2.6C1.5,15.4,0.6,14.5,0.5,13.5z"/>
<g>
	<path fill="#229928" stroke="#229928" stroke-width="0.25" stroke-miterlimit="10" d="M4.8,7.4c0,1.1,1,2,2.1,2
		c0.3,0,0.5-0.1,0.8-0.2L8.5,10l0.9-0.9L8.7,8.2c0.2-0.3,0.2-0.6,0.2-1c0-1.1-0.9-1.9-2-2l0.9,0.9L7.5,8L5.7,8.2L5.6,8.1l0,0
		L4.8,7.4L4.8,7.4z"/>
	<path fill="#229928" stroke="#229928" stroke-width="0.25" stroke-miterlimit="10" d="M12.4,11.9l-0.9,0.9l1.5,1.5c0,0,0.1,0,0.1,0
		l0.8-0.9c0,0,0-0.1,0-0.1L12.4,11.9z M12.3,13.2l0.5-0.5c0,0,0,0,0.1,0l0.6,0.6c0,0,0,0,0,0.1L13,13.9c0,0,0,0-0.1,0L12.3,13.2
		C12.3,13.3,12.3,13.2,12.3,13.2z"/>
	
		<rect x="8.9" y="10.3" transform="matrix(0.7044 0.7098 -0.7098 0.7044 10.9277 -4.2267)" fill="#229928" stroke="#229928" stroke-width="0.25" stroke-miterlimit="10" width="3.2" height="1.3"/>
</g>
<path fill="#D33737" d="M13.5,4.5H2.9C2.3,4.5,1.8,4,1.8,3.4V3.2c0-0.6,0.5-1.1,1.1-1.1h10.6c0.6,0,1.1,0.5,1.1,1.1v0.2
	C14.6,4,14.1,4.5,13.5,4.5z"/>
</svg>
