<?xml version="1.0" encoding="utf-8"?>
<!-- Generator: Adobe Illustrator 18.0.0, SVG Export Plug-In . SVG Version: 6.00 Build 0)  -->
<!DOCTYPE svg PUBLIC "-//W3C//DTD SVG 1.1//EN" "http://www.w3.org/Graphics/SVG/1.1/DTD/svg11.dtd">
<svg version="1.1" id="Layer_1" xmlns="http://www.w3.org/2000/svg" xmlns:xlink="http://www.w3.org/1999/xlink" x="0px" y="0px"
	 viewBox="0 0 16 16" enable-background="new 0 0 16 16" xml:space="preserve">
<path opacity="0.8" fill="#FFFFFF" enable-background="new    " d="M13.4,15.2H2.8c-1.1,0-1.8-0.8-1.8-1.9V2.6
	c0-1.1,0.7-1.8,1.8-1.8h10.8c1.1,0,1.7,0.7,1.7,1.8l0.1,10.6C15.4,14.5,14.7,15.2,13.4,15.2z"/>
<g opacity="0.5" enable-background="new    ">
	<path d="M13.4,15.8h-11c-1.3,0-2.3-1-2.3-2.3v-11c0-1.3,1-2.3,2.3-2.3h11.1c1.3,0,2.3,1,2.3,2.3v11.1
		C15.9,14.8,14.9,15.8,13.4,15.8z M2.6,0.9C1.7,0.9,1,1.6,1,2.5v11.1c0,0.9,0.7,1.6,1.6,1.6h11.1c0.9,0,1.6-0.7,1.6-1.6V2.5
		c0-0.9-0.7-1.6-1.6-1.6H2.6z"/>
</g>
<g opacity="0.8">
	<g>
		<path d="M12.6,11.9L11.5,13l1.6,1.6l0,0h0.2l0.9-1v-0.2L12.6,11.9z M13,13l0.5,0.5L13.1,14l-0.5-0.6L13,13z"/>
		<path d="M12.3,11.6L8.9,8.2C9,7.9,9,7.6,9,7.2c0-1.1-0.9-2-2.1-2.1L6.6,5l1.1,1.1L7.4,7.9L5.7,8.1L4.7,7.1v0.3
			c0,1.2,1,2.1,2.2,2.1c0.3,0,0.7-0.2,0.8-0.2l3.6,3.4L12.3,11.6z"/>
	</g>
	<path d="M14.5,4H1.8V2.6c0-0.4,0.3-0.8,0.8-0.8h11.3c0.4,0,0.8,0.3,0.8,0.8V4z"/>
</g>
</svg>
