<?xml version="1.0" encoding="utf-8"?>
<!-- Generator: Adobe Illustrator 18.0.0, SVG Export Plug-In . SVG Version: 6.00 Build 0)  -->
<!DOCTYPE svg PUBLIC "-//W3C//DTD SVG 1.1//EN" "http://www.w3.org/Graphics/SVG/1.1/DTD/svg11.dtd">
<svg version="1.1" id="Layer_1" xmlns="http://www.w3.org/2000/svg" xmlns:xlink="http://www.w3.org/1999/xlink" x="0px" y="0px"
	 viewBox="0 0 16 16" enable-background="new 0 0 16 16" xml:space="preserve">
<g opacity="0.3" enable-background="new    ">
	<path d="M0.2,13.6V2.7c0-1.3,1.1-2.4,2.4-2.4h10.9c1.3,0,2.4,1.1,2.4,2.4v10.8c0,1.3-1.1,2.4-2.4,2.4H2.7
		C1.4,15.9,0.3,14.8,0.2,13.6z M2.7,1.1c-0.9,0-1.6,0.7-1.6,1.6v10.9c0,0.9,0.7,1.6,1.6,1.6h10.9c0.9,0,1.5-0.7,1.5-1.6V2.7
		c0-0.9-0.6-1.6-1.5-1.6H2.7z"/>
</g>
<path opacity="0.8" fill="#FFFFFF" enable-background="new    " d="M0.6,13.6V2.7c0-1.1,0.9-2,2-2h10.9c1.1,0,2,0.9,2,2v10.8
	c0,1.1-0.9,2-2,2H2.7C1.6,15.5,0.7,14.6,0.6,13.6z"/>
<path fill="#229928" d="M8.7,11.4C8.8,12,8.9,12.6,9,13.2c-0.7,0.1-1.4,0.1-2.1,0C7,12.6,7.1,12,7.2,11.4c-0.4-0.1-0.7-0.2-1-0.4
	c-0.3,0.5-0.7,0.9-1,1.4c-0.6-0.4-1.1-0.9-1.5-1.5c0.5-0.3,1-0.7,1.4-1c-0.2-0.3-0.3-0.7-0.4-1C4.2,8.9,3.6,9,3,9.1
	C2.9,8.4,2.9,7.7,3,7c0.6,0.1,1.2,0.2,1.8,0.3c0.1-0.3,0.3-0.7,0.5-0.9c-0.5-0.4-1-0.7-1.5-1.1c0.4-0.6,0.9-1.1,1.5-1.5
	C5.6,4.3,6,4.8,6.4,5.3C6.7,5.2,7,5.1,7.3,5C7.2,4.4,7.1,3.7,7,3.1C7.7,3,8.4,3,9.1,3.1C9,3.7,8.9,4.4,8.8,5.1
	c0.3,0.1,0.6,0.2,0.9,0.4c0.4-0.6,0.8-1.1,1.2-1.7c0.6,0.4,1.1,0.9,1.5,1.5c-0.6,0.4-1.1,0.8-1.7,1.2c0.2,0.3,0.3,0.6,0.4,0.9
	c0.7-0.1,1.3-0.2,2-0.3c0.1,0.7,0.1,1.4,0,2.1c-0.7-0.1-1.3-0.2-2-0.3c0,0,1.3,1.4,2.1,2.2c0.4-0.8,0.8-2,0.8-3c0-3.3-2.7-6-6-6
	c-3.3,0-6,2.7-6,6s2.7,6,6,6c0.8,0,1.8-0.3,2.5-0.6C9.9,12.7,8.7,11.4,8.7,11.4z"/>
<path fill="#229928" d="M6.7,8.6c0,0.9,0.8,1.6,1.6,1.6c0.2,0,0.4-0.1,0.6-0.1l0.7,0.6l0.7-0.7L9.7,9.3c0.1-0.2,0.2-0.5,0.2-0.8
	C9.9,7.7,9.2,7,8.3,7L9,7.7L8.8,9.1L7.4,9.3L7.3,9.2l0,0L6.7,8.6L6.7,8.6z"/>
<path fill="#229928" d="M12.6,12.2l-0.7,0.7l1.2,1.1c0,0,0,0,0.1,0l0.7-0.7c0,0,0,0,0-0.1L12.6,12.2z M12.6,13.2l0.4-0.4
	c0,0,0,0,0,0l0.4,0.5c0,0,0,0,0,0L13,13.7c0,0,0,0,0,0L12.6,13.2C12.5,13.2,12.5,13.2,12.6,13.2z"/>
<rect x="9.9" y="11" transform="matrix(0.7044 0.7098 -0.7098 0.7044 11.4438 -4.5244)" fill="#229928" width="2.5" height="1"/>
</svg>
