<?xml version="1.0" encoding="utf-8"?>
<!-- Generator: Adobe Illustrator 18.0.0, SVG Export Plug-In . SVG Version: 6.00 Build 0)  -->
<!DOCTYPE svg PUBLIC "-//W3C//DTD SVG 1.1//EN" "http://www.w3.org/Graphics/SVG/1.1/DTD/svg11.dtd">
<svg version="1.1" id="Layer_1" xmlns="http://www.w3.org/2000/svg" xmlns:xlink="http://www.w3.org/1999/xlink" x="0px" y="0px"
	 viewBox="0 0 16 16" enable-background="new 0 0 16 16" xml:space="preserve">
<path opacity="0.15" enable-background="new    " d="M1.3,14.6c0.3,0.3,0.9,0.5,1.4,0.5h10.6c1.2,0,1.7-0.6,1.9-1.8L15.1,2.5
	c0-0.3-0.2-0.8-0.3-1L1.3,14.6z"/>
<path opacity="0.7" fill="#FFFFFF" enable-background="new    " d="M14.9,1.5C14.6,1.1,14.1,1,13.7,1h-11c-1.2,0-2,0.7-1.8,1.9v11.2
	c0,0.3,0.1,0.5,0.3,0.7L14.9,1.5z"/>
<g opacity="0.8" enable-background="new    ">
	<path d="M13.5,15.8h-11c-1.3,0-2.3-1-2.3-2.3v-11c0-1.3,1-2.3,2.3-2.3h11.1c1.3,0,2.3,1,2.3,2.3v11.1
		C15.8,14.8,14.8,15.8,13.5,15.8z M2.5,0.9c-0.9,0-1.6,0.7-1.6,1.6v11.1c0,0.9,0.7,1.6,1.6,1.6h11.1c0.9,0,1.6-0.7,1.6-1.6V2.5
		c0-0.9-0.7-1.6-1.6-1.6H2.5z"/>
</g>
<path opacity="0.8" d="M12.5,9.5c-0.1,0.8-0.4,2.1-1.1,2.5l0.2-1.3c0-1.8-1.2-2.2-2.4-2.2H9H7.1c0,0,0,0-0.1,0v1
	C7,9.8,6.9,10,6.5,9.8L4.3,7.6C4,7.5,4,7.2,4.3,7l2.2-2.1C6.8,4.8,7,4.9,7,5.2v1.1c0.1,0,0.1,0,0.2,0h2.2c0.3,0,1.2,0,2,0.5
	S12.7,8.4,12.5,9.5z"/>
<g id="Arrow_10">
</g>
</svg>
