<?xml version="1.0" encoding="utf-8"?>
<!-- Generator: Adobe Illustrator 18.0.0, SVG Export Plug-In . SVG Version: 6.00 Build 0)  -->
<!DOCTYPE svg PUBLIC "-//W3C//DTD SVG 1.1//EN" "http://www.w3.org/Graphics/SVG/1.1/DTD/svg11.dtd">
<svg version="1.1" id="Layer_1" xmlns="http://www.w3.org/2000/svg" xmlns:xlink="http://www.w3.org/1999/xlink" x="0px" y="0px"
	 viewBox="0 0 16 16" enable-background="new 0 0 16 16" xml:space="preserve">
<g opacity="0.3" enable-background="new    ">
	<path d="M13.4,15.9H2.6c-1.3,0-2.4-1.1-2.4-2.4V2.7c0-1.3,1.1-2.4,2.4-2.4h10.9c1.3,0,2.4,1.1,2.4,2.4v10.9
		C15.8,14.8,14.7,15.9,13.4,15.9z M2.5,1.1C1.6,1.1,1,1.8,1,2.7v10.9c0,0.9,0.6,1.6,1.5,1.6h10.9c0.9,0,1.6-0.7,1.6-1.6V2.7
		c0-0.9-0.7-1.6-1.6-1.6L2.5,1.1z"/>
</g>
<path opacity="0.8" fill="#FFFFFF" enable-background="new    " d="M13.4,15.5H2.6c-1.1,0-2-0.9-2-2V2.7c0-1.1,0.9-2,2-2h10.9
	c1.1,0,2,0.9,2,2v10.9C15.4,14.6,14.5,15.5,13.4,15.5z"/>
<path fill="#D42B00" d="M12.4,9.2c-0.1,0.8-0.4,2.2-1.1,2.6l0.2-1.4c0-1.9-1.3-2.3-2.5-2.3H8.8h-2c-0.1,0-0.1,0-0.2,0v1
	c0,0.3-0.1,0.5-0.5,0.3L3.8,7.2c-0.3-0.1-0.3-0.4,0-0.6l2.3-2.2c0.3-0.1,0.5,0,0.5,0.3v1.1c0.1,0,0.1,0,0.2,0h2.3
	c0.3,0,1.3,0,2.1,0.5S12.5,8,12.4,9.2z"/>
</svg>
