<?xml version="1.0" encoding="iso-8859-1"?>
<!-- Generator: Adobe Illustrator 18.1.1, SVG Export Plug-In . SVG Version: 6.00 Build 0)  -->
<svg version="1.1" id="Capa_1" xmlns="http://www.w3.org/2000/svg" xmlns:xlink="http://www.w3.org/1999/xlink" x="0px" y="0px"
	 viewBox="0 0 46 46" style="enable-background:new 0 0 46 46;" xml:space="preserve">
<g>
	<path style="fill:#010002;" d="M42.088,6.046H3.911C1.751,6.046,0,7.797,0,9.957v15.178c0,2.16,1.751,3.911,3.911,3.911h21.52
		l2.291,6.123c0.238,0.637,0.784,1.109,1.449,1.254c0.141,0.031,0.283,0.046,0.424,0.046c0.525,0,1.035-0.207,1.414-0.586
		l1.555-1.555l5.039,5.039c0.391,0.391,0.902,0.586,1.414,0.586s1.024-0.195,1.414-0.586l2.766-2.766
		c0.781-0.781,0.781-2.047,0-2.828l-4.727-4.727h3.619c2.16,0,3.911-1.751,3.911-3.911V9.957C46,7.797,44.249,6.046,42.088,6.046z
		 M39.36,24.704l-4.03,4.03l0.312,0.312l6.141,6.141l-2.766,2.766L32.564,31.5l-2.969,2.969l-2.029-5.423l-3.809-10.181
		L39.36,24.704z M10,26.046H6v-16h4V26.046z"/>
</g>
<g>
</g>
<g>
</g>
<g>
</g>
<g>
</g>
<g>
</g>
<g>
</g>
<g>
</g>
<g>
</g>
<g>
</g>
<g>
</g>
<g>
</g>
<g>
</g>
<g>
</g>
<g>
</g>
<g>
</g>
</svg>
