<?xml version="1.0" encoding="utf-8"?>
<!-- Generator: Adobe Illustrator 18.0.0, SVG Export Plug-In . SVG Version: 6.00 Build 0)  -->
<!DOCTYPE svg PUBLIC "-//W3C//DTD SVG 1.1//EN" "http://www.w3.org/Graphics/SVG/1.1/DTD/svg11.dtd">
<svg version="1.1" id="Layer_1" xmlns="http://www.w3.org/2000/svg" xmlns:xlink="http://www.w3.org/1999/xlink" x="0px" y="0px"
	 viewBox="0 0 16 16" enable-background="new 0 0 16 16" xml:space="preserve">
<path opacity="0.8" enable-background="new    " d="M13.7,0.1H2.3C1,0.1,0.1,0.7,0.2,2.2v11.6c0,1.3,0.7,2,2.2,2h11.3
	c1.6,0,2.1-1,2.1-2.1V2.2C15.8,0.9,15.4,0,13.7,0.1z M15,13.2c0,1.1-0.4,1.9-1.9,1.9H3c-1.4,0-2-0.6-2-1.8V2.8
	C0.9,1.5,1.8,0.9,2.9,0.9h10.2C14.6,0.8,15,1.6,15,2.8V13.2z"/>
<path opacity="0.8" fill="#FFFFFF" enable-background="new    " d="M1,13.3V2.8C0.9,1.5,1.8,0.9,2.9,0.9h10.2
	C14.6,0.8,15,1.6,15,2.8v10.3c0,1.1-0.4,1.9-1.9,1.9H3C1.6,15.1,1,14.4,1,13.3z"/>
<path opacity="0.8" fill="#D33737" d="M13.5,9.4c-3.7-2.5-7.4,5.6-11.2,3.1C1.6,12.1,1,10.4,1,9.6c0-0.9,0-1.8,0-2.7
	C1,6,1.6,6.4,2.4,6.9c3.7,2.5,7.4-5.6,11.2-3.1C14.3,4.3,15,6,15,6.8c0,0.9,0,1.8,0,2.7C15,10.4,14.3,10,13.5,9.4z"/>
</svg>
