<?xml version="1.0" encoding="utf-8"?>
<!-- Generator: Adobe Illustrator 18.0.0, SVG Export Plug-In . SVG Version: 6.00 Build 0)  -->
<!DOCTYPE svg PUBLIC "-//W3C//DTD SVG 1.1//EN" "http://www.w3.org/Graphics/SVG/1.1/DTD/svg11.dtd">
<svg version="1.1" id="Layer_1" xmlns="http://www.w3.org/2000/svg" xmlns:xlink="http://www.w3.org/1999/xlink" x="0px" y="0px"
	 viewBox="0 0 16 16" enable-background="new 0 0 16 16" xml:space="preserve">
<path opacity="0.8" fill="#FFFFFF" enable-background="new    " d="M13.4,15.3H2.8c-1.1,0-1.8-0.8-1.8-1.9V2.6
	c0-1.1,0.7-1.8,1.8-1.8h10.8c1.1,0,1.7,0.7,1.7,1.8l0.1,10.6C15.4,14.5,14.7,15.3,13.4,15.3z"/>
<g opacity="0.5" enable-background="new    ">
	<path d="M13.4,15.9h-11c-1.3,0-2.3-1-2.3-2.3v-11c0-1.3,1-2.3,2.3-2.3h11.1c1.3,0,2.3,1,2.3,2.3v11.1
		C15.9,14.9,14.9,15.9,13.4,15.9z M2.6,0.9C1.7,0.9,1,1.6,1,2.5v11.1c0,0.9,0.7,1.6,1.6,1.6h11.1c0.9,0,1.6-0.7,1.6-1.6V2.5
		c0-0.9-0.7-1.6-1.6-1.6H2.6z"/>
</g>
<g opacity="0.8">
	<rect x="2.6" y="3.6" width="10.7" height="1.4"/>
	<rect x="2.7" y="11.5" width="3.1" height="1.4"/>
	<rect x="2.7" y="7.3" width="3.7" height="1.4"/>
	<path d="M12.3,7.7H7.4v0.7h4.9c0.5,0,1,0.5,1,1v1.5c0,0.5-0.5,1-1,1H9.9H9.5v-0.8c0-0.2-0.1-0.3-0.3-0.2L7.3,12
		c-0.2,0.1-0.2,0.3,0,0.4l1.9,1.1c0.1,0.1,0.3,0,0.3-0.2v-0.7h2.8c0.9,0,1.7-0.7,1.7-1.7V9.3C14,8.4,13.2,7.7,12.3,7.7z"/>
</g>
</svg>
