<?xml version="1.0" encoding="utf-8"?>
<!-- Generator: Adobe Illustrator 18.0.0, SVG Export Plug-In . SVG Version: 6.00 Build 0)  -->
<!DOCTYPE svg PUBLIC "-//W3C//DTD SVG 1.1//EN" "http://www.w3.org/Graphics/SVG/1.1/DTD/svg11.dtd">
<svg version="1.1" id="Layer_1" xmlns="http://www.w3.org/2000/svg" xmlns:xlink="http://www.w3.org/1999/xlink" x="0px" y="0px"
	 viewBox="0 0 16 16" enable-background="new 0 0 16 16" xml:space="preserve">
<polygon opacity="0.8" fill="#FFFFFF" enable-background="new    " points="14.6,15 3.4,15 3.4,1 10.2,1 14.6,4.7 "/>
<path opacity="0.5" enable-background="new    " d="M10.4,0.2H2.6v15.6h12.7V4.3L10.4,0.2z M10.5,1.3l3.6,3 M14.6,4.7V15
	c0,0-11.2,0-11.2,0V1l6.8,0"/>
<polygon opacity="0.8" points="10.2,4.7 10.2,1 9.4,1 9.4,5.5 9.9,5.5 9.9,5.5 14.6,5.5 14.6,4.7 "/>
<rect x="0.3" y="6.4" fill="#945301" width="15" height="7"/>
<g>
	<path fill="#FFFFFF" d="M3.2,9.9L3.2,9.9L2,7.5h0.9L3.6,9l0.9-1.5h0.8L4.1,9.9l0,0l1.2,2.3H4.4l-0.7-1.5l-0.8,1.5H2L3.2,9.9z"/>
	<path fill="#FFFFFF" d="M6.9,12.2H6V7.5h0.9l0.9,2.6l1-2.6h0.9v4.8H8.8v-2l-0.7,2H7.6l-0.7-2C6.9,10.3,6.9,12.2,6.9,12.2z"/>
	<path fill="#FFFFFF" d="M11.2,11.4h2.4v0.8h-3.3V7.5h0.9V11.4z"/>
</g>
</svg>
