<?xml version="1.0" encoding="utf-8"?>
<!-- Generator: Adobe Illustrator 18.0.0, SVG Export Plug-In . SVG Version: 6.00 Build 0)  -->
<!DOCTYPE svg PUBLIC "-//W3C//DTD SVG 1.1//EN" "http://www.w3.org/Graphics/SVG/1.1/DTD/svg11.dtd">
<svg version="1.1" id="Layer_1" xmlns="http://www.w3.org/2000/svg" xmlns:xlink="http://www.w3.org/1999/xlink" x="0px" y="0px"
	 viewBox="0 0 16 16" enable-background="new 0 0 16 16" xml:space="preserve">
<polygon opacity="0.8" fill="#FFFFFF" enable-background="new    " points="14.8,15.6 2.6,15.6 2.6,0.4 10.1,0.4 14.8,4.4 "/>
<path opacity="0.3" enable-background="new    " d="M10.2,0h-8v16h13V4.2L10.2,0z M10.3,1.1L14,4.2h-3.7V1.1z M3,15.2V0.8h6.5v4.1h5
	v10.3C14.5,15.2,3,15.2,3,15.2z"/>
<rect x="0.3" y="6.4" fill="#945301" width="15" height="7"/>
<g>
	<path fill="#FFFFFF" d="M3.2,9.9L3.2,9.9L2,7.5h0.9L3.6,9l0.9-1.5h0.8L4.1,9.9l0,0l1.2,2.3H4.4l-0.7-1.5l-0.8,1.5H2L3.2,9.9z"/>
	<path fill="#FFFFFF" d="M6.9,12.2H6V7.5h0.9l0.9,2.6l1-2.6h0.9v4.8H8.8v-2l-0.7,2H7.6l-0.7-2C6.9,10.3,6.9,12.2,6.9,12.2z"/>
	<path fill="#FFFFFF" d="M11.2,11.4h2.4v0.8h-3.3V7.5h0.9V11.4z"/>
</g>
</svg>
