<?xml version="1.0" encoding="iso-8859-1"?>
<!-- Generator: Adobe Illustrator 18.0.0, SVG Export Plug-In . SVG Version: 6.00 Build 0)  -->
<!DOCTYPE svg PUBLIC "-//W3C//DTD SVG 1.1//EN" "http://www.w3.org/Graphics/SVG/1.1/DTD/svg11.dtd">
<svg xmlns="http://www.w3.org/2000/svg" xmlns:xlink="http://www.w3.org/1999/xlink" version="1.1" id="Capa_1" x="0px" y="0px" viewBox="0 0 512 512" style="enable-background:new 0 0 512 512;" xml:space="preserve" width="512px" height="512px">
<g>
	<path d="M497.938,430.063l-112-112c-0.313-0.313-0.637-0.607-0.955-0.909C404.636,285.403,416,248.006,416,208   C416,93.313,322.695,0,208,0S0,93.313,0,208s93.305,208,208,208c40.007,0,77.404-11.364,109.154-31.018   c0.302,0.319,0.596,0.643,0.909,0.955l112,112C439.43,507.313,451.719,512,464,512c12.281,0,24.57-4.688,33.938-14.063   C516.688,479.203,516.688,448.797,497.938,430.063z M64,208c0-79.406,64.602-144,144-144s144,64.594,144,144   c0,79.406-64.602,144-144,144S64,287.406,64,208z" fill="#666666"/>
	<path d="M272,176h-32v-32c0-17.672-14.328-32-32-32s-32,14.328-32,32v32h-32c-17.672,0-32,14.328-32,32s14.328,32,32,32h32v32   c0,17.672,14.328,32,32,32s32-14.328,32-32v-32h32c17.672,0,32-14.328,32-32S289.672,176,272,176z" fill="#666666"/>
</g>
<g>
</g>
<g>
</g>
<g>
</g>
<g>
</g>
<g>
</g>
<g>
</g>
<g>
</g>
<g>
</g>
<g>
</g>
<g>
</g>
<g>
</g>
<g>
</g>
<g>
</g>
<g>
</g>
<g>
</g>
</svg>
