<?xml version="1.0" encoding="utf-8"?>
<!-- Generator: Adobe Illustrator 18.0.0, SVG Export Plug-In . SVG Version: 6.00 Build 0)  -->
<!DOCTYPE svg PUBLIC "-//W3C//DTD SVG 1.1//EN" "http://www.w3.org/Graphics/SVG/1.1/DTD/svg11.dtd">
<svg version="1.1" id="Layer_1" xmlns="http://www.w3.org/2000/svg" xmlns:xlink="http://www.w3.org/1999/xlink" x="0px" y="0px"
	 viewBox="0 0 16 16" enable-background="new 0 0 16 16" xml:space="preserve">
<g>
	<polygon fill="#FFFFFF" points="13.6,15.6 1.4,15.6 1.4,0.4 8.9,0.4 13.6,4.4 	"/>
	<path fill="#95999B" d="M14,16H1V0h8l5,4.2V16z M1.8,15.2h11.5V4.6L8.8,0.8h-7C1.8,0.8,1.8,15.2,1.8,15.2z"/>
</g>
<g>
	<polygon fill="#95999B" points="13.6,4.9 8.3,4.9 8.3,0.4 9.1,0.4 9.1,4.2 13.6,4.2 	"/>
</g>
<rect y="5.9" fill="#945301" width="15" height="7"/>
<g>
	<path fill="#FFFFFF" d="M2.9,9.4L2.9,9.4L1.7,7h0.9l0.7,1.5L4.2,7H5L3.8,9.4h0L5,11.7H4.1l-0.7-1.5l-0.8,1.5H1.7L2.9,9.4z"/>
	<path fill="#FFFFFF" d="M6.6,11.7H5.7V7h0.9l0.9,2.6l1-2.6h0.9v4.8H8.5v-2l-0.7,2H7.3l-0.7-2V11.7z"/>
	<path fill="#FFFFFF" d="M10.9,10.9h2.4v0.8H10V7h0.9V10.9z"/>
</g>
</svg>
