<?xml version="1.0" encoding="utf-8"?>
<!-- Generator: Adobe Illustrator 18.0.0, SVG Export Plug-In . SVG Version: 6.00 Build 0)  -->
<!DOCTYPE svg PUBLIC "-//W3C//DTD SVG 1.1//EN" "http://www.w3.org/Graphics/SVG/1.1/DTD/svg11.dtd">
<svg version="1.1" id="Layer_1" xmlns="http://www.w3.org/2000/svg" xmlns:xlink="http://www.w3.org/1999/xlink" x="0px" y="0px"
	 viewBox="0 0 16 16" enable-background="new 0 0 16 16" xml:space="preserve">
<g>
	<polygon fill="#FFFFFF" points="13.6,15.6 1.4,15.6 1.4,0.4 8.9,0.4 13.6,4.4 	"/>
	<path fill="#95999B" d="M14,16H1V0h8l5,4.2V16z M1.8,15.2h11.5V4.6L8.8,0.8h-7C1.8,0.8,1.8,15.2,1.8,15.2z"/>
</g>
<g>
	<polygon fill="#95999B" points="13.6,4.9 8.3,4.9 8.3,0.4 9.1,0.4 9.1,4.2 13.6,4.2 	"/>
</g>
<rect x="-0.1" y="5.9" fill="#0D469D" width="15" height="7"/>
<g>
	<path fill="#FFFFFF" d="M1.9,9.7v1h1.3V7.4h0.7v4H1.1V9.7H1.9z"/>
	<path fill="#FFFFFF" d="M4.4,9.7V7.4h2.7v0.7h-2v1h2v2.3H4.4v-0.7h2v-1H4.4z"/>
	<path fill="#FFFFFF" d="M10.4,7.4v4H7.7v-4H10.4z M9.7,8.1H8.5v2.6h1.3V8.1z"/>
	<path fill="#FFFFFF" d="M11.7,11.4H11v-4h0.8L13,9.6V7.4h0.7v4H13l-1.3-2.3V11.4z"/>
</g>
</svg>
