<?xml version="1.0" encoding="utf-8"?>
<!-- Generator: Adobe Illustrator 18.0.0, SVG Export Plug-In . SVG Version: 6.00 Build 0)  -->
<!DOCTYPE svg PUBLIC "-//W3C//DTD SVG 1.1//EN" "http://www.w3.org/Graphics/SVG/1.1/DTD/svg11.dtd">
<svg version="1.1" id="Layer_1" xmlns="http://www.w3.org/2000/svg" xmlns:xlink="http://www.w3.org/1999/xlink" x="0px" y="0px"
	 viewBox="0 0 16 16" enable-background="new 0 0 16 16" xml:space="preserve">
<g>
	<polygon fill="#FFFFFF" points="13.6,15.6 1.4,15.6 1.4,0.4 8.9,0.4 13.6,4.4 	"/>
	<path fill="#AAAEAF" d="M14,16H1V0h8l5,4.2V16z M1.8,15.2h11.5V4.6L8.8,0.8h-7V15.2z"/>
</g>
<g>
	<polygon fill="#AAAEAF" points="13.6,4.9 8.3,4.9 8.3,0.4 9.1,0.4 9.1,4.2 13.6,4.2 	"/>
</g>
<rect y="6" fill="#51539A" width="15" height="7"/>
<g>
	<path fill="#FFFFFF" d="M2.5,12h-1V7H5v2.9H2.5V12z M2.5,7.9v1.2h1.6V7.9H2.5z"/>
	<path fill="#FFFFFF" d="M6.6,12h-1V7h1v2.1h1.6V7h0.9v5H8.2V9.9H6.6V12z"/>
	<path fill="#FFFFFF" d="M10.7,12h-1V7h3.4v2.9h-2.5V12z M10.7,7.9v1.2h1.6V7.9H10.7z"/>
</g>
</svg>
