<?xml version="1.0" encoding="utf-8"?>
<!-- Generator: Adobe Illustrator 18.0.0, SVG Export Plug-In . SVG Version: 6.00 Build 0)  -->
<!DOCTYPE svg PUBLIC "-//W3C//DTD SVG 1.1//EN" "http://www.w3.org/Graphics/SVG/1.1/DTD/svg11.dtd">
<svg version="1.1" id="Layer_1" xmlns="http://www.w3.org/2000/svg" xmlns:xlink="http://www.w3.org/1999/xlink" x="0px" y="0px"
	 viewBox="0 0 24 24" enable-background="new 0 0 24 24" xml:space="preserve">
<g>
	<path fill="#117A82" d="M12,3.3V1.1c0-0.5-0.4-0.8-0.8-0.8H3.1c-1.6,0-2.8,1.3-2.8,2.8v17.8c0,1.6,1.3,2.8,2.8,2.8h17.8
		c1.6,0,2.8-1.3,2.8-2.8V5c0-0.5-0.4-0.8-0.8-0.8H12.8C12.4,4.1,12,3.8,12,3.3z"/>
	<path fill="#006A33" d="M1,23.8"/>
	<path fill="#006A33" d="M22.6,4.2C3.7,19.2,0.3,21.1,0.3,21.1c0.1,1.5,1.3,2.7,2.8,2.7h17.8c1.6,0,2.8-1.3,2.8-2.8V5
		C23.8,4.4,22.9,3.9,22.6,4.2z"/>
	<polygon fill="#CC9823" points="12,6.1 14.4,11.6 20.3,12.1 15.8,16.1 17.1,21.9 12,18.8 6.9,21.9 8.2,16.1 3.7,12.1 9.6,11.6 	"/>
	<g>
		<defs>
			<rect id="SVGID_1_" x="1.2" y="0.3" width="10.8" height="26.3"/>
		</defs>
		<clipPath id="SVGID_2_">
			<use xlink:href="#SVGID_1_"  overflow="visible"/>
		</clipPath>
		<polygon clip-path="url(#SVGID_2_)" fill="#DEAF3E" points="12,6.2 14.4,11.7 20.3,12.2 15.8,16.1 17.1,21.9 12,18.9 6.9,21.9 
			8.2,16.1 3.7,12.2 9.6,11.7 		"/>
	</g>
</g>
</svg>
