<?xml version="1.0" encoding="utf-8"?>
<!-- Generator: Adobe Illustrator 18.0.0, SVG Export Plug-In . SVG Version: 6.00 Build 0)  -->
<!DOCTYPE svg PUBLIC "-//W3C//DTD SVG 1.1//EN" "http://www.w3.org/Graphics/SVG/1.1/DTD/svg11.dtd">
<svg version="1.1" id="Layer_1" xmlns="http://www.w3.org/2000/svg" xmlns:xlink="http://www.w3.org/1999/xlink" x="0px" y="0px"
	 viewBox="0 0 16 16" enable-background="new 0 0 16 16" xml:space="preserve">
<g>
	<polygon fill="#FFFFFF" points="13.6,15.6 1.4,15.6 1.4,0.4 8.9,0.4 13.6,4.4 	"/>
	<path fill="#95999B" d="M14,16H1V0h8l5,4.2V16z M1.8,15.2h11.5V4.6L8.8,0.8h-7C1.8,0.8,1.8,15.2,1.8,15.2z"/>
</g>
<g>
	<polygon fill="#95999B" points="13.6,4.9 8.3,4.9 8.3,0.4 9.1,0.4 9.1,4.2 13.6,4.2 	"/>
</g>
<rect x="0" y="6" fill="#E44D26" width="15" height="7"/>
<g>
	<path fill="#FFFFFF" d="M1.5,11.6H0.7V7.4h0.8v1.8h1.3V7.4h0.8v4.2H2.8V9.8H1.5V11.6z"/>
	<path fill="#FFFFFF" d="M5.2,8.1H4.1V7.4H7v0.7H6v3.5H5.2V8.1z"/>
	<path fill="#FFFFFF" d="M8.4,11.6H7.6V7.4h0.8l0.8,2.3l0.9-2.3h0.8v4.2h-0.8V9.8l-0.6,1.8H9L8.4,9.8V11.6z"/>
	<path fill="#FFFFFF" d="M12.2,10.8h2.1v0.7h-2.9V7.4h0.8V10.8z"/>
</g>
</svg>
