<?xml version="1.0" encoding="utf-8"?>
<!-- Generator: Adobe Illustrator 18.0.0, SVG Export Plug-In . SVG Version: 6.00 Build 0)  -->
<!DOCTYPE svg PUBLIC "-//W3C//DTD SVG 1.1//EN" "http://www.w3.org/Graphics/SVG/1.1/DTD/svg11.dtd">
<svg version="1.1" id="Layer_1" xmlns="http://www.w3.org/2000/svg" xmlns:xlink="http://www.w3.org/1999/xlink" x="0px" y="0px"
	 viewBox="0 0 16 16" enable-background="new 0 0 16 16" xml:space="preserve">
<g>
	<polygon fill="#FFFFFF" points="13.6,15.6 1.4,15.6 1.4,0.4 8.9,0.4 13.6,4.4 	"/>
	<path fill="#95999B" d="M14,16H1V0h8l5,4.2V16z M1.8,15.2h11.5V4.6L8.8,0.8h-7C1.8,0.8,1.8,15.2,1.8,15.2z"/>
</g>
<g>
	<polygon fill="#95999B" points="13.6,4.9 8.3,4.9 8.3,0.4 9.1,0.4 9.1,4.2 13.6,4.2 	"/>
</g>
<rect x="0" y="5.9" fill="#EFBE35" width="15" height="7"/>
<g>
	<path fill="#FFFFFF" d="M1.3,10.9H0.8v-3h1.9v1.7H1.3V10.9z M1.3,8.4v0.7h0.9V8.4H1.3z"/>
	<path fill="#FFFFFF" d="M4.3,9.4v1.5H3.7V9.4L3.1,7.9h0.5L4,8.9l0.4-0.9H5L4.3,9.4z"/>
	<path fill="#FFFFFF" d="M6.1,8.4H5.4V7.9h1.9v0.5H6.6v2.5H6.1V8.4z"/>
	<path fill="#FFFFFF" d="M8.2,10.9H7.7v-3h0.5v1.2h0.9V7.9h0.5v3H9.1V9.7H8.2V10.9z"/>
	<path fill="#FFFFFF" d="M11.9,7.9v3H10v-3H11.9z M11.4,8.4h-0.9v2h0.9V8.4z"/>
	<path fill="#FFFFFF" d="M12.8,10.9h-0.5v-3h0.5l0.9,1.7V7.9h0.5v3h-0.5l-0.9-1.7V10.9z"/>
</g>
</svg>
