<?xml version="1.0" encoding="utf-8"?>
<!-- Generator: Adobe Illustrator 18.0.0, SVG Export Plug-In . SVG Version: 6.00 Build 0)  -->
<!DOCTYPE svg PUBLIC "-//W3C//DTD SVG 1.1//EN" "http://www.w3.org/Graphics/SVG/1.1/DTD/svg11.dtd">
<svg version="1.1" id="Layer_1" xmlns="http://www.w3.org/2000/svg" xmlns:xlink="http://www.w3.org/1999/xlink" x="0px" y="0px"
	 viewBox="0 0 16 16" enable-background="new 0 0 16 16" xml:space="preserve">
<g>
	<polygon fill="#FFFFFF" points="13.6,15.6 1.4,15.6 1.4,0.4 8.9,0.4 13.6,4.4 	"/>
	<path fill="#95999B" d="M14,16H1V0h8l5,4.2V16z M1.8,15.2h11.5V4.6L8.8,0.8h-7C1.8,0.8,1.8,15.2,1.8,15.2z"/>
</g>
<g>
	<polygon fill="#95999B" points="13.6,4.9 8.3,4.9 8.3,0.4 9.1,0.4 9.1,4.2 13.6,4.2 	"/>
</g>
<rect y="6" fill="#CB4BD4" width="15" height="7"/>
<g>
	<path fill="#FFFFFF" d="M0.9,9.7V7.3h2.8V8h-2v1h2v2.4H0.9v-0.7H3v-1H0.9z"/>
	<path fill="#FFFFFF" d="M5.1,10.7h2v0.7H4.3V7.3h2.8V8h-2V10.7z"/>
	<path fill="#FFFFFF" d="M7.7,9.7V7.3h2.8V8h-2v1h2v2.4H7.7v-0.7h2.1v-1H7.7z"/>
	<path fill="#FFFFFF" d="M11.1,9.7V7.3h2.8V8h-2v1h2v2.4h-2.8v-0.7h2.1v-1H11.1z"/>
</g>
</svg>
