<?xml version="1.0" encoding="utf-8"?>
<!-- Generator: Adobe Illustrator 18.0.0, SVG Export Plug-In . SVG Version: 6.00 Build 0)  -->
<!DOCTYPE svg PUBLIC "-//W3C//DTD SVG 1.1//EN" "http://www.w3.org/Graphics/SVG/1.1/DTD/svg11.dtd">
<svg version="1.1" id="Layer_1" xmlns="http://www.w3.org/2000/svg" xmlns:xlink="http://www.w3.org/1999/xlink" x="0px" y="0px"
	 viewBox="0 0 16 16" enable-background="new 0 0 16 16" xml:space="preserve">
<g opacity="0.5" enable-background="new    ">
	<path d="M0.2,11.1V2.2c0-1.1,0.9-2,2-2H11c1.1,0,2,0.9,2,2V11c0,1.1-0.7,2-2,2H2.2C1.1,12.9,0.2,12,0.2,11.1z M2.2,0.9
		c-0.7,0-1.3,0.6-1.3,1.3v8.9c0,0.7,0.6,1.3,1.3,1.3h8.9c0.7,0,1.2-0.6,1.2-1.3V2.2c0-0.7-0.5-1.3-1.2-1.3C11.1,0.9,2.2,0.9,2.2,0.9
		z"/>
</g>
<path opacity="0.8" fill="#FFFFFF" enable-background="new    " d="M0.9,11V2.4c0-0.9,0.6-1.6,1.4-1.6h8.6c0.9,0,1.4,0.6,1.4,1.5
	v8.5c0,0.9-0.1,1.5-1.4,1.5H2.4C1.1,12.3,1,11.8,0.9,11z"/>
<path opacity="0.8" fill="#FFFFFF" enable-background="new    " d="M14,3.7h-1l-0.1,7.6c0.1,1.1-1,1.7-1.6,1.7l-7.4-0.1v0.5
	c-0.1,1.3,0.5,1.8,1.4,1.8h8.6c1.6,0,1.7-1,1.6-1.8V4.9C15.5,4.3,14.8,3.6,14,3.7z"/>
<path opacity="0.5" enable-background="new    " d="M14.1,3H13v0.7h1.2c0.7,0,1.2,0.6,1.2,1.3v8.9c0,0.7-0.5,1.3-1.2,1.3h-9
	c-0.7,0-1.3-0.6-1.3-1.3v-1H3.2v1c0.1,1,1,1.9,2,1.9H14c1.1,0,2-0.9,2-2V5C16,3.9,15.1,3,14.1,3z"/>
<polygon opacity="0.8" fill="#D33737" enable-background="new    " points="10.5,3.5 9.7,2.7 6.6,5.7 3.4,2.7 2.6,3.5 5.8,6.5 
	2.6,9.6 3.4,10.4 6.6,7.3 9.7,10.4 10.5,9.6 7.4,6.5 "/>
</svg>
