<?xml version="1.0" encoding="utf-8"?>
<!-- Generator: Adobe Illustrator 18.0.0, SVG Export Plug-In . SVG Version: 6.00 Build 0)  -->
<!DOCTYPE svg PUBLIC "-//W3C//DTD SVG 1.1//EN" "http://www.w3.org/Graphics/SVG/1.1/DTD/svg11.dtd">
<svg version="1.1" id="Layer_1" xmlns="http://www.w3.org/2000/svg" xmlns:xlink="http://www.w3.org/1999/xlink" x="0px" y="0px"
	 viewBox="0 0 16 16" enable-background="new 0 0 16 16" xml:space="preserve">
<g opacity="0.5" enable-background="new    ">
	<path d="M0.3,13.5V2.6c0-1.1,0.9-2,1.9-2l5.5,1c1.1,0,1.9,0.9,1.9,2v8.8c0,1.1-0.6,1.7-1.9,2l-5.5,1C1.2,15.3,0.3,14.4,0.3,13.5z
		 M2.3,1.3C1.6,1.3,1,1.9,1,2.6v10.9c0,0.7,0.6,1.3,1.2,1.3l5.6-1c0.8-0.3,1.1-0.6,1.1-1.3V3.6c0-0.7-0.5-1.3-1.1-1.3L2.3,1.3z"/>
</g>
<path opacity="0.8" fill="#FFFFFF" enable-background="new    " d="M1,13.4V2.8c0-1.1,0.8-1.6,1.4-1.5l5.3,1c0.8,0,1.3,0.5,1.3,1.1
	v8.8c0,0.9-0.2,1.3-1.3,1.6l-5.2,1C1.7,14.8,1,14.5,1,13.4z"/>
<path fill="#229928" d="M15.6,8L15.6,8l-2.9-3.1c-0.3-0.4-0.7-0.4-0.9-0.1c-0.4,0.4-0.4,0.7-0.1,1l1.5,1.6L7.9,7.3
	C7.5,7.3,7.3,7.7,7.3,8S7.6,8.7,8,8.7h5.4l-1.4,1.4c-0.4,0.4-0.4,0.7-0.1,1c0.4,0.4,0.7,0.4,1,0.1L15.6,8z"/>
</svg>
