<?xml version="1.0" encoding="utf-8"?>
<!-- Generator: Adobe Illustrator 18.0.0, SVG Export Plug-In . SVG Version: 6.00 Build 0)  -->
<!DOCTYPE svg PUBLIC "-//W3C//DTD SVG 1.1//EN" "http://www.w3.org/Graphics/SVG/1.1/DTD/svg11.dtd">
<svg version="1.1" id="Layer_1" xmlns="http://www.w3.org/2000/svg" xmlns:xlink="http://www.w3.org/1999/xlink" x="0px" y="0px"
	 viewBox="0 0 16 16" enable-background="new 0 0 16 16" xml:space="preserve">
<path opacity="0.8" fill="#FFFFFF" enable-background="new    " d="M12.5,3.1L7,3c0-1-0.6-1.6-1-1.6H2.6c-1,0-1.8,0.8-1.8,1.8
	l-0.1,9.6c0,0.5,0.9,1.7,1.4,1.7h8.6c0.9,0,1.7-0.5,2.1-1.3l2.5-6c0.7-1.8-1.6-2.7-1.6-2.7C13.6,3.6,12.5,3.1,12.5,3.1z"/>
<g opacity="0.3" enable-background="new    ">
	<path d="M1.2,9.9l-1,2.6L0.3,3c0-1.1,0.9-2.1,2.1-2.1h3.1c1,0,1.8,0.7,2,1.6H12c1.1,0,2.1,1,2.1,2.1l-1-0.2c0-0.5-0.6-0.9-1.1-0.9
		H6.5V3c0-0.6-0.5-1.1-1.1-1.1H2.4C1.8,1.9,1.3,2.4,1.3,3L1.2,9.9z"/>
</g>
<path opacity="0.3" fill="none" stroke="#000000" stroke-miterlimit="10" enable-background="new    " d="M11,14.6H2.6
	c-1.1,0-2-0.9-2-2L3,6.9c0.5-1.3,0.9-2,2-2h8.4c0.9,0,1.7,0.6,1.9,1.5c0.1,0.3,0,0.6-0.1,0.9L13,12.6C12.5,14,12.1,14.6,11,14.6z"/>
</svg>
