<?xml version="1.0" encoding="utf-8"?>
<!-- Generator: Adobe Illustrator 18.0.0, SVG Export Plug-In . SVG Version: 6.00 Build 0)  -->
<!DOCTYPE svg PUBLIC "-//W3C//DTD SVG 1.1//EN" "http://www.w3.org/Graphics/SVG/1.1/DTD/svg11.dtd">
<svg version="1.1" id="Layer_1" xmlns="http://www.w3.org/2000/svg" xmlns:xlink="http://www.w3.org/1999/xlink" x="0px" y="0px"
	 viewBox="0 0 16 16" enable-background="new 0 0 16 16" xml:space="preserve">
<path opacity="0.8" fill="#FFFFFF" enable-background="new    " d="M10.9,7.3c-0.9,0-5.6,0-6.8,0L1,12.6c-0.3,0.6,0,1,1.3,0.9h6.6
	c0.8,0,2.5,0.3,2.8-0.4l2.8-4.8c0.4-0.5,1.1-1.2-0.5-1H10.9z"/>
<path opacity="0.8" fill="#FFFFFF" enable-background="new    " d="M10,4.6H5.5c0.1-0.8-0.4-1.3-0.8-1.3H2.5c-0.8,0-1.5,0-1.4,1.4
	L1,10.8C1.9,9.5,2.9,7.7,3.3,7c0.3-0.5,0.4-0.7,2-0.7c2.1,0,5.9,0,5.9,0C11.4,6.1,11.2,4.4,10,4.6z"/>
<path opacity="0.5" enable-background="new    " d="M15.9,6.8c-0.2-0.4-0.7-0.5-1.1-0.5h-2.7c0-0.9,0.1-2.7-1.9-2.6H6.4
	C6.3,3,5.6,2.4,4.8,2.4H2.1c-1,0-1.8,0.9-1.8,1.8l-0.1,8.1c-0.1,0.5-0.3,1.2,0,1.7c0.3,0.4,0.7,0.4,1.2,0.4h9.5
	c0.8,0,1.1-0.1,1.7-0.8L15.8,8C16,7.7,16.1,7.1,15.9,6.8z M1.2,4.2c0-0.5,0.4-0.9,0.9-0.9h2.6c0.5,0,0.9,0.4,0.9,0.9v0.4h4.7
	c0.9,0,1,1.3,1,1.8H4.4C4,6.4,3.6,6.7,3.4,7l-2.3,3.8L1.2,4.2z M14.9,7.6l-3.3,5.5c-0.2,0.2-0.5,0.4-0.8,0.4H1.5
	c-0.2,0-0.4-0.1-0.5-0.3s-0.1-0.4,0-0.6l3.2-5.3h0.2h10.3c0.1,0,0.2,0.1,0.2,0.1S15,7.5,14.9,7.6z"/>
</svg>
