<?xml version="1.0" encoding="utf-8"?>
<!-- Generator: Adobe Illustrator 18.0.0, SVG Export Plug-In . SVG Version: 6.00 Build 0)  -->
<!DOCTYPE svg PUBLIC "-//W3C//DTD SVG 1.1//EN" "http://www.w3.org/Graphics/SVG/1.1/DTD/svg11.dtd">
<svg version="1.1" id="Layer_1" xmlns="http://www.w3.org/2000/svg" xmlns:xlink="http://www.w3.org/1999/xlink" x="0px" y="0px"
	 viewBox="0 0 16 16" enable-background="new 0 0 16 16" xml:space="preserve">
<polygon opacity="0.8" fill="#FFFFFF" enable-background="new    " points="13.6,15.6 1.4,15.6 1.4,0.4 8.9,0.4 13.6,4.4 "/>
<path opacity="0.3" enable-background="new    " d="M9,0H1v16h13V4.2L9,0z M9.1,1.1l3.7,3.1H9.1V1.1z M1.8,15.2V0.8h6.5v4.1h5v10.3
	C13.3,15.2,1.8,15.2,1.8,15.2z"/>
<g>
	<polygon fill="#EF4343" points="10.9,9.9 10.3,11 8.6,7.7 6.9,11.2 5.2,7.7 2.7,12.8 6.1,12.8 7.7,12.8 9.4,12.8 11.1,12.8 
		12.3,12.8 	"/>
	<circle fill="#EF4343" cx="10.7" cy="8.1" r="0.9"/>
</g>
</svg>
