<?xml version="1.0" encoding="utf-8"?>
<!-- Generator: Adobe Illustrator 18.0.0, SVG Export Plug-In . SVG Version: 6.00 Build 0)  -->
<!DOCTYPE svg PUBLIC "-//W3C//DTD SVG 1.1//EN" "http://www.w3.org/Graphics/SVG/1.1/DTD/svg11.dtd">
<svg version="1.1" id="Layer_1" xmlns="http://www.w3.org/2000/svg" xmlns:xlink="http://www.w3.org/1999/xlink" x="0px" y="0px"
	 viewBox="0 0 16 16" enable-background="new 0 0 16 16" xml:space="preserve">
<path opacity="0.8" fill="#FFFFFF" enable-background="new    " d="M13.2,15.2H2.6c-1.3,0-1.8-0.9-1.8-2V2.6c0-1.1,0.7-1.8,1.8-1.8
	h10.7c1.1,0,1.9,0.5,1.9,1.8v10.7C15.1,14.5,14.8,15.3,13.2,15.2z"/>
<g opacity="0.5" enable-background="new    ">
	<path d="M13.4,15.8h-11c-1.3,0-2.3-1-2.3-2.3v-11c0-1.3,1-2.3,2.3-2.3h11.1c1.3,0,2.3,1,2.3,2.3v11.1
		C15.8,14.8,14.8,15.8,13.4,15.8z M2.4,0.9c-0.9,0-1.6,0.7-1.6,1.6v11.1c0,0.9,0.7,1.6,1.6,1.6h11.1c0.9,0,1.6-0.7,1.6-1.6V2.5
		c0-0.9-0.7-1.6-1.6-1.6H2.4z"/>
</g>
<path opacity="0.8" enable-background="new    " d="M14.5,7.1H9.2C9,7.1,8.9,6.8,9,6.7l1.1-1c0.2-0.2,0.1-0.5-0.2-0.5H8.4
	c-0.1,0-0.2,0-0.2,0.1L5.8,7.8C5.7,7.9,5.7,8,5.8,8.2l2.5,2.5c0.1,0.1,0.1,0.1,0.2,0.1h1.6c0.2,0,0.3-0.3,0.2-0.5l-1.1-1
	C8.9,9.2,9,8.9,9.2,8.9h5.3c0.2,0,0.2-0.1,0.2-0.2V7.4C14.7,7.3,14.7,7.1,14.5,7.1z"/>
<path opacity="0.3" enable-background="new    " d="M5.7,0.9l-3.1,0C1,0.9,0.8,1.7,0.8,2.7v10.6c-0.1,0.9,0.1,1.9,1.9,1.9h2.9
	L5.7,0.9z"/>
<g id="Arrow_10">
</g>
</svg>
