<?xml version="1.0" encoding="utf-8"?>
<!-- Generator: Adobe Illustrator 18.0.0, SVG Export Plug-In . SVG Version: 6.00 Build 0)  -->
<!DOCTYPE svg PUBLIC "-//W3C//DTD SVG 1.1//EN" "http://www.w3.org/Graphics/SVG/1.1/DTD/svg11.dtd">
<svg version="1.1" id="Layer_1" xmlns="http://www.w3.org/2000/svg" xmlns:xlink="http://www.w3.org/1999/xlink" x="0px" y="0px"
	 viewBox="0 0 16 16" enable-background="new 0 0 16 16" xml:space="preserve">
<path opacity="0.8" fill="#FFFFFF" enable-background="new    " d="M13.4,15.2H2.8c-1.1,0-1.8-0.8-1.8-1.9V2.6
	c0-1.1,0.7-1.8,1.8-1.8h10.8c1.1,0,1.7,0.7,1.7,1.8l0.1,10.6C15.4,14.5,14.7,15.2,13.4,15.2z"/>
<g opacity="0.5" enable-background="new    ">
	<path d="M13.4,15.8h-11c-1.3,0-2.3-1-2.3-2.3v-11c0-1.3,1-2.3,2.3-2.3h11.1c1.3,0,2.3,1,2.3,2.3v11.1
		C15.9,14.8,14.9,15.8,13.4,15.8z M2.5,0.9C1.7,0.9,1,1.6,1,2.5v11.1c0,0.9,0.7,1.6,1.6,1.6h11.1c0.9,0,1.6-0.7,1.6-1.6V2.5
		c0-0.9-0.7-1.6-1.6-1.6H2.5z"/>
</g>
<g display="none">
	<circle display="inline" cx="3.6" cy="7.5" r="0.8"/>
	<circle display="inline" cx="3.6" cy="10.5" r="0.8"/>
	<circle display="inline" cx="7.6" cy="11.5" r="0.8"/>
	
		<line display="inline" fill="none" stroke="#000000" stroke-width="0.75" stroke-miterlimit="10" x1="3.7" y1="7.9" x2="7.4" y2="11.5"/>
	<circle display="inline" cx="12.1" cy="7.3" r="0.8"/>
	
		<line display="inline" fill="none" stroke="#000000" stroke-width="0.75" stroke-miterlimit="10" x1="6.8" y1="6.8" x2="12" y2="7.3"/>
	
		<line display="inline" fill="none" stroke="#000000" stroke-width="0.75" stroke-miterlimit="10" x1="9" y1="7.8" x2="7.6" y2="11.5"/>
	
		<line display="inline" fill="none" stroke="#000000" stroke-width="0.75" stroke-miterlimit="10" x1="4.4" y1="9.5" x2="3.7" y2="10.2"/>
	<circle display="inline" cx="6.7" cy="6.4" r="0.8"/>
	
		<line display="inline" fill="none" stroke="#000000" stroke-width="0.75" stroke-miterlimit="10" x1="5.6" y1="7.3" x2="6.4" y2="6.5"/>
	<circle display="inline" cx="10.6" cy="5.4" r="0.8"/>
	
		<line display="inline" fill="none" stroke="#000000" stroke-width="0.75" stroke-miterlimit="10" x1="10.3" y1="6.7" x2="10.5" y2="5.6"/>
</g>
<polygon opacity="0.8" points="11.3,7.3 8.8,5.3 12.5,2.2 11.3,1.8 8,4.6 4.5,1.9 3.5,2.6 7.2,5.3 4.7,7.4 3.9,14 5,13.6 5.7,7.9 
	8,5.9 10.4,7.8 11.4,13.4 12.5,13.7 "/>
</svg>
