<?xml version="1.0" encoding="utf-8"?>
<!-- Generator: Adobe Illustrator 18.0.0, SVG Export Plug-In . SVG Version: 6.00 Build 0)  -->
<!DOCTYPE svg PUBLIC "-//W3C//DTD SVG 1.1//EN" "http://www.w3.org/Graphics/SVG/1.1/DTD/svg11.dtd">
<svg version="1.1" id="Layer_1" xmlns="http://www.w3.org/2000/svg" xmlns:xlink="http://www.w3.org/1999/xlink" x="0px" y="0px"
	 viewBox="0 0 16 16" enable-background="new 0 0 16 16" xml:space="preserve">
<polygon opacity="0.8" fill="#FFFFFF" enable-background="new    " points="8.6,13.6 3,12.6 3,1 9.1,1 13,4.3 13,12.7 "/>
<path opacity="0.5" enable-background="new    " d="M9.3,0.2h-7v12.4L8.5,14l5.2-1.4V3.9L9.3,0.2z M9.3,1.2l3.2,2.7 M13,4.2v8.5
	l-4.5,0.9l-0.4-0.1L3,12.6V0.9h6.1"/>
<polygon opacity="0.5" enable-background="new    " points="9.1,4.2 9.1,0.9 8.4,0.9 8.4,5 8.8,5 8.8,5 13,5 13,4.2 "/>
<g opacity="0.8">
	<rect x="4.4" y="6.2" width="7.3" height="0.9"/>
</g>
<g opacity="0.8">
	<rect x="5.4" y="8.5" width="4.6" height="0.9"/>
</g>
<g opacity="0.8">
	<rect x="4.3" y="10.9" width="7.5" height="0.9"/>
</g>
<path opacity="0.8" d="M15.2,15.9H0.8c-0.4,0-0.7-0.3-0.7-0.7l0.2-3.1l8.1,1.4c0.1,0,0.2,0,0.3,0l7.1-1.4l0.2,3.1
	C15.9,15.6,15.6,15.9,15.2,15.9z"/>
</svg>
