<?xml version="1.0" encoding="utf-8"?>
<!-- Generator: Adobe Illustrator 18.0.0, SVG Export Plug-In . SVG Version: 6.00 Build 0)  -->
<!DOCTYPE svg PUBLIC "-//W3C//DTD SVG 1.1//EN" "http://www.w3.org/Graphics/SVG/1.1/DTD/svg11.dtd">
<svg version="1.1" id="Layer_1" xmlns="http://www.w3.org/2000/svg" xmlns:xlink="http://www.w3.org/1999/xlink" x="0px" y="0px"
	 viewBox="0 0 16 16" enable-background="new 0 0 16 16" xml:space="preserve">
<path opacity="0.8" fill="#FFFFFF" enable-background="new    " d="M13.3,15.2H2.6c-1.1,0-1.7-0.8-1.7-1.8V2.6
	c0-1.1,0.6-1.8,1.7-1.8h10.8c1.1,0,1.9,0.6,1.9,1.7v10.8C15.3,14.6,14.5,15.2,13.3,15.2z"/>
<g opacity="0.5" enable-background="new    ">
	<path d="M13.4,15.8h-11c-1.3,0-2.3-1-2.3-2.3v-11c0-1.3,1-2.3,2.3-2.3h11.1c1.3,0,2.3,1,2.3,2.3v11.1
		C15.9,14.8,14.9,15.8,13.4,15.8z M2.5,0.9C1.7,0.9,1,1.6,1,2.5v11.1c0,0.9,0.7,1.6,1.6,1.6h11.1c0.9,0,1.6-0.7,1.6-1.6V2.5
		c0-0.9-0.7-1.6-1.6-1.6H2.5z"/>
</g>
<path fill="#229928" d="M8,2.6L8,2.6l-3.1,3C4.5,5.9,4.5,6.3,4.8,6.5c0.4,0.4,0.7,0.4,1,0.1L7.4,5l-0.1,5.7c0,0.4,0.4,0.6,0.7,0.6
	c0.3,0,0.7-0.3,0.7-0.7V5l1.4,1.5c0.4,0.4,0.7,0.4,1,0.1c0.4-0.4,0.4-0.7,0.1-1L8,2.6z"/>
<path opacity="0.8" enable-background="new    " d="M13.5,14.1h-11c-0.5,0-0.9-0.4-0.9-0.9v-1.4h12.9v1.4
	C14.4,13.7,14,14.1,13.5,14.1z"/>
</svg>
