<?xml version="1.0" encoding="utf-8"?>
<!-- Generator: Adobe Illustrator 18.0.0, SVG Export Plug-In . SVG Version: 6.00 Build 0)  -->
<!DOCTYPE svg PUBLIC "-//W3C//DTD SVG 1.1//EN" "http://www.w3.org/Graphics/SVG/1.1/DTD/svg11.dtd">
<svg version="1.1" id="Layer_1" xmlns="http://www.w3.org/2000/svg" xmlns:xlink="http://www.w3.org/1999/xlink" x="0px" y="0px"
	 viewBox="0 0 16 16" enable-background="new 0 0 16 16" xml:space="preserve">
<path opacity="0.8" fill="#FFFFFF" enable-background="new    " d="M1.5,1.5c-0.6,0-1,0.8-1,1.3v9.9c0,0.7,0.5,1.2,1,1.2h6.7
	c0,0-0.2-3.7-0.1-5.5c0-0.5,0.2-1.1,0.7-1.2h2.2l-0.2-4.3c0-0.7-0.5-1.2-1.1-1.2H7.8v-1c0-0.2-0.1-0.3-0.6-0.3H4.3
	c-0.5,0-0.6,0.1-0.6,0.3v0.8C3.7,1.5,1.5,1.5,1.5,1.5z"/>
<path opacity="0.5" fill="none" stroke="#000000" stroke-width="0.75" stroke-miterlimit="10" enable-background="new    " d="
	M10.9,6.8l-0.1-3.9c0-0.7-0.5-1.2-1.1-1.2H7.9v-1c0-0.2-0.1-0.3-0.6-0.3H4.4c-0.5,0-0.6,0.1-0.6,0.3v0.8c0,0-2.3,0-2.3,0
	c-0.6,0-1,0.8-1,1.3v9.9c0,0.7,0.5,1.2,1,1.2h6.4"/>
<g id="Arrow_10">
</g>
<path opacity="0.8" fill="#050505" enable-background="new    " d="M9.1,5.1H2.1c-0.3,0-0.5-0.2-0.5-0.5V4.4c0-0.3,0.2-0.5,0.5-0.5
	h7.2c0.3,0,0.5,0.2,0.5,0.5v0.2C9.7,4.9,9.3,5.1,9.1,5.1z"/>
<path opacity="0.8" fill="#050505" enable-background="new    " d="M7,8.4H2c-0.2,0-0.3-0.2-0.3-0.5V7.6c0-0.3,0.1-0.5,0.3-0.5h5.4
	C6.9,7.4,7,8.4,7,8.4z"/>
<path opacity="0.8" fill="#050505" enable-background="new    " d="M6.9,12H2c-0.2,0-0.3-0.2-0.3-0.5v-0.3c0-0.3,0.1-0.5,0.3-0.5
	h4.9L6.9,12z"/>
<g opacity="0.8">
	<path fill="#050202" d="M6.5,2.1c0,0.2-0.1,0.4-0.2,0.4H5.2C5.1,2.5,5,2.3,5,2.1l0,0c0-0.2,0.1-0.4,0.1-0.4h1.4
		C6.5,1.7,6.5,1.9,6.5,2.1L6.5,2.1z"/>
</g>
<path opacity="0.8" fill="#D33737" enable-background="new    " d="M9.2,7.4C8.6,7.4,8.5,7.6,8.5,8.2v6.2c0,0.9,0.3,0.8,0.8,0.8h5
	c0.6,0,0.6-0.2,0.6-0.8V8.2c0-0.6-0.2-0.7-0.6-0.7C14.3,7.4,9.2,7.4,9.2,7.4z"/>
<path opacity="0.5" fill="none" stroke="#000000" stroke-width="0.75" stroke-miterlimit="10" enable-background="new    " d="
	M8.9,7.1C8.5,7.1,8.2,7.7,8.2,8v6.7c0,0.4,0.3,0.9,0.8,0.9h5.5c0.4,0,0.8-0.4,0.8-0.9V8c0-0.4-0.3-0.9-0.8-0.9
	C14.5,7.1,8.9,7.1,8.9,7.1z"/>
</svg>
