<?xml version="1.0" encoding="utf-8"?>
<!-- Generator: Adobe Illustrator 18.0.0, SVG Export Plug-In . SVG Version: 6.00 Build 0)  -->
<!DOCTYPE svg PUBLIC "-//W3C//DTD SVG 1.1//EN" "http://www.w3.org/Graphics/SVG/1.1/DTD/svg11.dtd">
<svg version="1.1" id="Layer_1" xmlns="http://www.w3.org/2000/svg" xmlns:xlink="http://www.w3.org/1999/xlink" x="0px" y="0px"
	 viewBox="0 0 16 16" enable-background="new 0 0 16 16" xml:space="preserve">
<polygon opacity="0.8" fill="#FFFFFF" enable-background="new    " points="15.2,15.6 3,15.6 3,0.4 10.5,0.4 15.2,4.4 "/>
<path opacity="0.3" enable-background="new    " d="M10.6,0h-8v16h13V4.2L10.6,0z M10.7,1.1l3.7,3.1h-3.7V1.1z M3.4,15.2V0.8h6.5
	v4.1h5v10.3C14.9,15.2,3.4,15.2,3.4,15.2z"/>
<rect x="0.7" y="6.4" fill="#CB4BD4" width="15" height="7"/>
<g>
	<path fill="#FFFFFF" d="M1.7,10.3V7.9h2.8v0.7h-2v1h2v2.4H1.7v-0.7h2.1v-1H1.7z"/>
	<path fill="#FFFFFF" d="M5.9,11.3h2v0.7H5.1V7.9h2.8v0.7h-2C5.9,8.6,5.9,11.3,5.9,11.3z"/>
	<path fill="#FFFFFF" d="M8.5,10.3V7.9h2.8v0.7h-2v1h2v2.4H8.5v-0.7h2.1v-1H8.5z"/>
	<path fill="#FFFFFF" d="M11.9,10.3V7.9h2.8v0.7h-2v1h2v2.4h-2.8v-0.7H14v-1H11.9z"/>
</g>
</svg>
