<?xml version="1.0" encoding="utf-8"?>
<!-- Generator: Adobe Illustrator 18.0.0, SVG Export Plug-In . SVG Version: 6.00 Build 0)  -->
<!DOCTYPE svg PUBLIC "-//W3C//DTD SVG 1.1//EN" "http://www.w3.org/Graphics/SVG/1.1/DTD/svg11.dtd">
<svg version="1.1" id="Layer_1" xmlns="http://www.w3.org/2000/svg" xmlns:xlink="http://www.w3.org/1999/xlink" x="0px" y="0px"
	 viewBox="0 0 16 16" enable-background="new 0 0 16 16" xml:space="preserve">
<path opacity="0.15" enable-background="new    " d="M2.7,4.3c0-0.9,0.7-1.6,1.6-1.6h8V2.2c0-0.9-0.5-1.6-1.6-1.6H2.2
	c-1.1,0-1.6,0.7-1.6,1.6v8.5c0,1.2,0.6,1.6,1.6,1.6h0.5V4.3z"/>
<path opacity="0.8" fill="#FFFFFF" enable-background="new    " d="M14.2,15.3H4.9c-0.7,0-1.2-0.5-1.2-1.2V4.9
	c0-0.7,0.5-1.2,1.2-1.2h9.3c0.7,0,1.2,0.5,1.2,1.2v9.2C15.4,14.7,14.8,15.3,14.2,15.3z"/>
<g opacity="0.5" enable-background="new    ">
	<path d="M14.2,15.6H4.9c-0.9,0-1.5-0.7-1.5-1.5V4.9c0-0.9,0.7-1.5,1.5-1.5h9.3c0.9,0,1.5,0.7,1.5,1.5v9.2
		C15.7,14.9,15,15.6,14.2,15.6z M4.9,4C4.4,4,4,4.4,4,4.9v9.2C4,14.6,4.4,15,4.9,15h9.3c0.5,0,0.9-0.4,0.9-0.9V4.9
		c0-0.5-0.4-0.9-0.9-0.9H4.9z"/>
</g>
<path opacity="0.5" enable-background="new    " d="M2.7,12.3H2c-0.7,0-1.3-0.6-1.3-1.3V2c0-0.7,0.6-1.3,1.3-1.3h8.9
	c0.7,0,1.3,0.6,1.3,1.3v0.7h0.6V2c0-1-0.8-1.9-1.9-1.9H2C0.9,0.2,0.1,1,0.1,2v8.9c0,1,0.8,1.9,1.9,1.9h0.7V12.3z"/>
<polygon opacity="0.8" enable-background="new    " points="13.9,6.8 13.1,6.1 8.4,11.5 6.4,9.7 5.6,10.6 8.4,12.9 8.4,12.9 8.5,13 
	"/>
</svg>
