<?xml version="1.0" encoding="utf-8"?>
<!-- Generator: Adobe Illustrator 18.0.0, SVG Export Plug-In . SVG Version: 6.00 Build 0)  -->
<!DOCTYPE svg PUBLIC "-//W3C//DTD SVG 1.1//EN" "http://www.w3.org/Graphics/SVG/1.1/DTD/svg11.dtd">
<svg version="1.1" id="Layer_1" xmlns="http://www.w3.org/2000/svg" xmlns:xlink="http://www.w3.org/1999/xlink" x="0px" y="0px"
	 viewBox="0 0 16 16" enable-background="new 0 0 16 16" xml:space="preserve">
<g opacity="0.3" enable-background="new    ">
	<path d="M0.1,13.5V2.6c0-1.3,1.1-2.4,2.4-2.4h10.9c1.3,0,2.4,1.1,2.4,2.4v10.8c0,1.3-1.1,2.4-2.4,2.4H2.6
		C1.3,15.8,0.2,14.7,0.1,13.5z M2.6,1C1.7,1,1,1.7,1,2.6v10.9c0,0.9,0.7,1.6,1.6,1.6h10.9c0.9,0,1.5-0.7,1.5-1.6V2.6
		C15,1.7,14.4,1,13.5,1H2.6z"/>
</g>
<path opacity="0.8" fill="#FFFFFF" enable-background="new    " d="M0.5,13.5V2.6c0-1.1,0.9-2,2-2h10.9c1.1,0,2,0.9,2,2v10.8
	c0,1.1-0.9,2-2,2H2.6C1.5,15.4,0.6,14.5,0.5,13.5z"/>
<path opacity="0.8" fill="none" stroke="#000000" stroke-miterlimit="10" enable-background="new    " d="M2.5,5.4h11.1v7.3
	c0,0.4-0.3,0.7-0.7,0.7H3.2c-0.4,0-0.7-0.3-0.7-0.7V5.4z"/>
<path opacity="0.8" enable-background="new    " d="M14.1,4.1v1.7H2V4.1C2,3.5,2.4,3,2.8,3h10.3C13.6,3,14,3.5,14.1,4.1z"/>
<rect x="4.5" y="3.1" fill="#FFFFFF" stroke="#7F7F7F" stroke-width="0.5" stroke-miterlimit="10" width="4.3" height="3.1"/>
</svg>
