<?xml version="1.0" encoding="utf-8"?>
<!-- Generator: Adobe Illustrator 18.0.0, SVG Export Plug-In . SVG Version: 6.00 Build 0)  -->
<!DOCTYPE svg PUBLIC "-//W3C//DTD SVG 1.1//EN" "http://www.w3.org/Graphics/SVG/1.1/DTD/svg11.dtd">
<svg version="1.1" id="Layer_1" xmlns="http://www.w3.org/2000/svg" xmlns:xlink="http://www.w3.org/1999/xlink" x="0px" y="0px"
	 viewBox="0 0 16 16" enable-background="new 0 0 16 16" xml:space="preserve">
<path opacity="0.8" fill="#FFFFFF" enable-background="new    " d="M13.5,10.3h-11c-1.1,0-2-0.9-2-2V7.6c0-1.1,0.9-2,2-2h11
	c1.1,0,2,0.9,2,2v0.7C15.5,9.4,14.6,10.3,13.5,10.3z"/>
<g opacity="0.3">
	<path d="M13.5,10.7h-11c-1.3,0-2.4-1.1-2.4-2.4V7.6c0-1.3,1.1-2.4,2.4-2.4h11c1.3,0,2.4,1.1,2.4,2.4v0.7
		C15.9,9.7,14.8,10.7,13.5,10.7z M2.5,6C1.6,6,0.9,6.7,0.9,7.6v0.7c0,0.9,0.7,1.6,1.6,1.6h11c0.9,0,1.6-0.7,1.6-1.6V7.6
		c0-0.9-0.7-1.6-1.6-1.6H2.5z"/>
</g>
<circle fill="#229928" cx="11.7" cy="8" r="4.1"/>
</svg>
