<?xml version="1.0" encoding="utf-8"?>
<!-- Generator: Adobe Illustrator 18.0.0, SVG Export Plug-In . SVG Version: 6.00 Build 0)  -->
<!DOCTYPE svg PUBLIC "-//W3C//DTD SVG 1.1//EN" "http://www.w3.org/Graphics/SVG/1.1/DTD/svg11.dtd">
<svg version="1.1" id="Layer_1" xmlns="http://www.w3.org/2000/svg" xmlns:xlink="http://www.w3.org/1999/xlink" x="0px" y="0px"
	 viewBox="0 0 16 16" enable-background="new 0 0 16 16" xml:space="preserve">
<g opacity="0.3" enable-background="new    ">
	<path d="M13.9,13H5.1c-1.3,0-2-0.9-2-2V2.2c0-1.1,0.9-2,2-2h8.8c1.1,0,2,0.9,2,2v8.9C15.9,12,15,12.9,13.9,13z M5,0.9
		c-0.7,0-1.2,0.6-1.2,1.3v8.9c0,0.7,0.5,1.3,1.2,1.3h8.9c0.7,0,1.3-0.6,1.3-1.3V2.2c0-0.7-0.6-1.3-1.3-1.3C13.9,0.9,5,0.9,5,0.9z"/>
</g>
<path opacity="0.8" fill="#FFFFFF" enable-background="new    " d="M13.8,12.4H5.2c-0.9,0-1.6-0.7-1.6-1.6V2.3
	c0-0.9,0.7-1.6,1.6-1.6h8.6c0.9,0,1.4,0.6,1.4,1.5v8.6C15.2,11.7,14.6,12.4,13.8,12.4z"/>
<path opacity="0.3" enable-background="new    " d="M0.1,5v8.8c0,1.1,0.9,2,2,2h8.8c1,0,1.9-0.9,2-1.9l0-0.9h-0.7l0,0.9
	c0,0.7-0.6,1.3-1.3,1.3h-9c-0.7,0-1.2-0.6-1.2-1.3V5c0-0.7,0.5-1.3,1.2-1.3h1.2V3H2C1,3,0.1,3.9,0.1,5z"/>
<path opacity="0.8" fill="#FFFFFF" enable-background="new    " d="M4.9,13c-1-0.1-1.8-0.8-1.8-1.9l0-7.4L2.3,3.6
	C1.2,3.6,0.7,4,0.7,5.1l0,8.3c0,1.6,0.6,1.9,1.7,1.9h8.2c1.2,0,1.7-0.5,1.7-2l0-0.3H4.9z"/>
<rect x="6" y="3.2" opacity="0.8" width="7.2" height="7.2"/>
</svg>
