<?xml version="1.0" encoding="utf-8"?>
<!-- Generator: Adobe Illustrator 18.0.0, SVG Export Plug-In . SVG Version: 6.00 Build 0)  -->
<!DOCTYPE svg PUBLIC "-//W3C//DTD SVG 1.1//EN" "http://www.w3.org/Graphics/SVG/1.1/DTD/svg11.dtd">
<svg version="1.1" id="Layer_1" xmlns="http://www.w3.org/2000/svg" xmlns:xlink="http://www.w3.org/1999/xlink" x="0px" y="0px"
	 viewBox="0 0 16 16" enable-background="new 0 0 16 16" xml:space="preserve">
<path opacity="0.8" fill="#FFFFFF" enable-background="new    " d="M0.6,13.2L0.8,2.6c0-1.1,0.6-1.8,1.7-1.8h10.8
	c1.1,0,1.8,0.7,1.8,1.8v10.7c0,1.1-0.7,1.9-1.8,1.9H2.6C1.3,15.2,0.6,14.5,0.6,13.2z"/>
<g opacity="0.5" enable-background="new    ">
	<path d="M0.1,13.6V2.5c0-1.3,1-2.3,2.3-2.3h11.1c1.3,0,2.3,1,2.3,2.3v11c0,1.3-1,2.3-2.3,2.3h-11C1.1,15.8,0.1,14.8,0.1,13.6z
		 M2.3,0.9c-0.9,0-1.6,0.7-1.6,1.6v11.1c0,0.9,0.7,1.6,1.6,1.6h11.1c0.9,0,1.6-0.7,1.6-1.6V2.5c0-0.9-0.7-1.6-1.6-1.6H2.3z"/>
</g>
<path opacity="0.8" fill="#249112" enable-background="new    " d="M2.3,8.3l2.8,1.6c0.1,0,0.3-0.1,0.3-0.2V8.7l3.1,0V7.3l-3.1,0
	V6.4c0-0.2-0.2-0.3-0.3-0.2L2.3,7.8C2.2,7.9,2.2,8.1,2.3,8.3z"/>
<path d="M2.3,2.9h11.2V2.5C13.4,2.3,13.2,2,13,2H2.7C2.5,2,2.3,2.3,2.3,2.5V2.9z"/>
<rect x="7.6" y="4.8" width="5.9" height="0.6"/>
<path d="M2.3,12.9h11.2v0.4c0,0.3-0.2,0.5-0.5,0.5H2.7c-0.3,0-0.5-0.2-0.5-0.5V12.9z"/>
<rect x="7.6" y="10.4" width="5.9" height="0.6"/>
</svg>
